<svg width="365" height="231" viewBox="0 0 365 231" fill="none" xmlns="http://www.w3.org/2000/svg">
<g clip-path="url(#clip0_362_260)">
<path d="M187.672 59.4975L221.184 111.201L223.289 110.344L189.721 58.7478L187.672 59.4975Z" fill="#3B7CD3"/>
<path d="M221.103 111.447L221.015 111.308L187.368 59.397L189.801 58.508L189.888 58.6395L223.583 110.439L221.103 111.447V111.447ZM187.974 59.6091L221.259 110.961L222.99 110.26L189.637 58.9909L187.974 59.6091V59.6091Z" fill="#3B7CD3"/>
<path d="M189.722 58.7474L191.485 58.0294L224.626 109.03L223.29 110.342L189.723 58.7465L189.722 58.7474Z" fill="#DEECFF"/>
<path d="M223.253 110.658L189.422 58.6561L191.563 57.7824L191.651 57.9216L224.883 109.064L223.252 110.658H223.253ZM190.02 58.8433L223.32 110.032L224.37 109.003L191.408 58.2768L190.02 58.8433V58.8433Z" fill="#3B7CD3"/>
<path d="M181.147 24.8008C170.505 8.99031 157.409 -0.819121 151.902 2.86925C146.396 6.55763 150.558 22.4084 161.206 38.2151C171.853 54.0217 184.944 63.8398 190.451 60.1264C195.958 56.4141 191.775 40.6113 181.147 24.8008V24.8008ZM188.441 54.0419C186.211 55.6365 173.399 46.2821 165.097 33.9488C156.795 21.6155 153.632 8.63126 156.065 6.88884C158.498 5.14641 170.313 12.7104 178.615 25.0446C186.917 37.3779 192.372 51.2271 188.42 54.0428H188.441V54.0419Z" fill="#3B7CD3"/>
<path d="M187.631 61.1285C184.984 61.1285 181.551 59.6136 177.614 56.6664C172.071 52.5153 166.178 46.0073 161.018 38.3435C150.328 22.4649 146.181 6.48642 151.771 2.71837C157.361 -1.04969 170.608 8.81542 181.279 24.6902C191.949 40.565 196.117 56.5435 190.526 60.3116C189.665 60.8684 188.656 61.1535 187.63 61.1285H187.631ZM154.702 2.29116C153.744 2.26716 152.801 2.53116 151.995 3.04861C146.583 6.69379 150.798 22.4246 161.35 38.1199C166.486 45.7481 172.348 52.2196 177.854 56.3467C183.361 60.4738 187.732 61.7218 190.324 59.9794C195.727 56.3342 191.52 40.6034 180.965 24.912C171.889 11.4315 161.019 2.29116 154.702 2.29116ZM187.747 54.4132C187.574 54.4123 187.4 54.3959 187.229 54.3652C183.305 53.6519 172.404 45.1942 164.898 34.06C156.444 21.5068 153.426 8.53893 155.934 6.72547C156.332 6.44226 156.915 6.37026 157.688 6.51042C161.72 7.22467 171.545 14.1982 178.771 24.9331C186.874 36.9678 192.728 51.2077 188.525 54.202C188.295 54.3518 188.022 54.4257 187.747 54.4132ZM157.003 6.84163C156.714 6.82339 156.427 6.89635 156.181 7.04899C153.852 8.7319 157.055 21.6758 165.241 33.8372C172.678 44.8832 183.44 53.2689 187.3 53.9707C187.634 54.0686 187.994 54.0359 188.305 53.8785C191.842 51.3623 187.424 38.4789 178.452 25.1683C171.274 14.5256 161.592 7.62308 157.628 6.91267C157.422 6.87139 157.212 6.84643 157.002 6.84067L157.003 6.84163Z" fill="#3B7CD3"/>
<g opacity="0.5">
<path d="M188.596 60.929L221.183 111.2L223.288 110.343L190.622 60.135L188.596 60.929V60.929Z" fill="#3B7CD3"/>
<path d="M221.183 111.401C221.149 111.401 221.116 111.392 221.088 111.376C221.058 111.36 221.033 111.337 221.016 111.309L188.429 61.0376C188.413 61.0127 188.403 60.9848 188.399 60.956C188.395 60.9272 188.399 60.8975 188.409 60.8696C188.417 60.8408 188.432 60.8149 188.452 60.7928C188.472 60.7707 188.497 60.7534 188.525 60.7429L190.547 59.9451C190.59 59.9298 190.637 59.9288 190.681 59.9422C190.725 59.9557 190.764 59.9835 190.791 60.021L223.452 110.233C223.47 110.256 223.481 110.283 223.486 110.313C223.49 110.342 223.487 110.372 223.476 110.4C223.469 110.428 223.453 110.453 223.433 110.475C223.414 110.497 223.389 110.513 223.361 110.523L221.256 111.381C221.234 111.393 221.209 111.4 221.184 111.401H221.183ZM188.899 61.0175L221.259 110.946L222.989 110.244L190.542 60.379L188.899 61.0175V61.0175Z" fill="#3B7CD3"/>
</g>
<g opacity="0.5">
<path d="M181.149 24.8008C170.506 8.99028 157.411 -0.819152 151.903 2.86922C146.397 6.5576 150.559 22.4084 161.206 38.215C171.853 54.0217 184.944 63.8397 190.451 60.1274C195.958 56.415 191.775 40.6122 181.148 24.8008H181.149ZM188.443 54.0418C186.213 55.6364 173.401 46.282 165.099 33.9487C156.797 21.6154 153.634 8.63123 156.067 6.88881C158.5 5.14638 170.315 12.7103 178.617 25.0446C186.919 37.3779 192.374 51.2271 188.422 54.0428H188.443V54.0418Z" fill="#3B7CD3"/>
<path d="M187.632 61.1276C184.984 61.1276 181.551 59.6127 177.615 56.6655C172.072 52.5144 166.179 46.0065 161.018 38.3427C150.329 22.464 146.181 6.48554 151.772 2.71748C157.362 -1.05058 170.609 8.81453 181.28 24.6893C191.95 40.5641 196.118 56.5426 190.526 60.3107C189.665 60.8675 188.656 61.1526 187.631 61.1276H187.632ZM154.703 2.29027C153.744 2.26627 152.802 2.53028 151.995 3.04773C146.584 6.6929 150.799 22.4237 161.351 38.119C166.487 45.7472 172.349 52.2187 177.855 56.3458C183.362 60.4729 187.733 61.7209 190.325 59.9785C195.728 56.3333 191.521 40.6025 180.966 24.9111C171.89 11.4306 161.019 2.29027 154.703 2.29027ZM187.748 54.4123C187.574 54.4114 187.401 54.3951 187.23 54.3643C183.306 53.651 172.404 45.1933 164.899 34.0591C156.445 21.5059 153.427 8.53805 155.934 6.72458C156.333 6.44138 156.915 6.36938 157.689 6.50954C161.72 7.22379 171.546 14.1973 178.772 24.9322C186.875 36.967 192.729 51.2069 188.526 54.2011C188.295 54.3509 188.023 54.4248 187.748 54.4123ZM157.004 6.84074C156.715 6.8225 156.428 6.89546 156.182 7.04811C153.853 8.73101 157.056 21.6749 165.242 33.8363C172.679 44.8823 183.441 53.268 187.301 53.9698C187.635 54.0677 187.995 54.0351 188.306 53.8776C191.843 51.3614 187.425 38.478 178.452 25.1674C171.274 14.5247 161.593 7.62219 157.629 6.91178C157.422 6.8705 157.213 6.84554 157.003 6.83978L157.004 6.84074Z" fill="#3B7CD3"/>
</g>
<path d="M185.204 55.7291C179.864 56.4146 172.623 49.1933 165.146 39.6393C156.107 28.0749 153.602 19.382 152.785 13.764C151.968 8.146 156.071 6.88934 156.071 6.88934C153.655 8.63177 156.777 21.6198 165.083 33.9493C173.389 46.2787 186.198 55.6254 188.427 54.0424C189.097 53.5633 189.495 52.7704 189.659 51.7172L189.739 51.8286C189.739 51.8286 190.545 55.0341 185.205 55.7282L185.204 55.7291Z" fill="#DEECFF"/>
<path d="M184.473 55.9755C179.84 55.9755 173.616 50.7914 164.986 39.758C157.869 30.6666 153.821 22.1724 152.581 13.7905C151.744 8.07654 155.962 6.70852 156.006 6.697L157.158 6.3418L156.181 7.04741C153.852 8.73031 157.055 21.6742 165.241 33.8366C172.678 44.8825 183.44 53.2683 187.3 53.97C187.634 54.068 187.994 54.0353 188.305 53.8788C188.911 53.4478 189.298 52.7105 189.453 51.6852L189.525 51.2148L189.923 51.7774C189.995 52.146 189.99 52.5243 189.911 52.891C189.832 53.2577 189.681 53.6043 189.465 53.9105C188.735 54.979 187.307 55.6568 185.221 55.9285C184.973 55.9601 184.722 55.9765 184.472 55.9765L184.473 55.9755ZM155.441 7.39109C154.348 8.01702 152.39 9.72393 152.976 13.7358C154.197 22.0419 158.228 30.4833 165.302 39.5151C174.31 51.0276 180.631 56.1195 185.176 55.5329C187.138 55.2776 188.47 54.6593 189.136 53.6945C189.244 53.5361 189.333 53.3662 189.403 53.1886C189.201 53.5918 188.902 53.9393 188.533 54.2014C188.338 54.3128 188.122 54.3848 187.898 54.4126C187.674 54.4404 187.447 54.4241 187.23 54.3646C183.306 53.6503 172.404 45.1936 164.899 34.0593C157.151 22.5353 153.973 10.6599 155.441 7.39013V7.39109Z" fill="#3B7CD3"/>
<path d="M191.472 59.6969C191.22 59.8034 190.96 59.8898 190.694 59.9522C194.451 54.8997 190.97 39.4204 181.124 24.8013C170.601 9.17033 157.685 -0.595901 152.071 2.76991C152.5 2.15166 153.041 1.61789 153.666 1.19837C160.189 -3.11594 172.918 6.78085 183.477 22.767C194.036 38.7532 200.125 55.4776 191.472 59.6959V59.6969Z" fill="#DEECFF"/>
<path d="M190.255 60.2188L190.535 59.8204C194.068 55.0712 191.065 39.902 180.964 24.9009C170.597 9.48879 157.677 -0.364805 152.174 2.92517L151.377 3.41573L151.927 2.61796C152.378 1.98819 152.942 1.4477 153.59 1.02338C159.97 -3.18725 172.61 5.90793 183.68 22.6477C192.808 36.4489 197.19 48.5671 195.412 55.1029C195.166 56.1311 194.694 57.0921 194.03 57.9148C193.367 58.7375 192.528 59.4028 191.575 59.8607L191.488 59.6812L191.575 59.8607C191.305 59.9788 191.025 60.0719 190.738 60.1401L190.255 60.2198V60.2188ZM154.706 1.89987C161.214 1.89987 172.08 10.9998 181.296 24.6887C185.933 31.5787 189.454 39.1196 191.205 45.9146C192.772 51.9953 192.752 56.9289 191.169 59.6006L191.384 59.5171C192.285 59.0803 193.077 58.4486 193.704 57.669C194.332 56.8895 194.778 55.9804 195.012 55.0069C196.759 48.5988 192.397 36.5881 183.333 22.8791C172.388 6.33418 159.966 -2.713 153.793 1.34594C153.427 1.58882 153.09 1.87203 152.788 2.19171C153.405 1.98435 154.054 1.88547 154.706 1.90083V1.89987Z" fill="#3B7CD3"/>
<path d="M230.961 40.9269V41.9118C230.961 42.5695 229.582 42.965 229.582 42.965L226.606 42.3871L223.416 44.4808L215.253 40.2059C214.256 39.9688 213.32 39.5243 212.506 38.9012C211.691 38.2792 211.016 37.4929 210.524 36.5924C208.817 33.506 212.494 32.1303 212.494 32.1303C212.494 32.1303 211.837 30.8822 213.479 29.1715C213.89 28.6924 214.452 28.367 215.072 28.2489C215.692 28.1299 216.333 28.2249 216.893 28.5177C216.893 28.5177 217.877 26.4124 221.618 26.3481C225.358 26.2847 224.772 30.8822 224.772 30.8822C225.326 30.4829 225.973 30.2313 226.651 30.1517C227.328 30.071 228.016 30.1651 228.648 30.4234C230.75 31.3402 229.565 34.6897 229.565 34.6897C229.565 34.6897 231.73 34.8173 232.719 37.4487C233.709 40.0801 230.961 40.9259 230.961 40.9259V40.9269Z" fill="#5E96FC"/>
<path d="M223.416 44.6679C223.383 44.6679 223.352 44.6602 223.324 44.6439L215.201 40.3968C214.18 40.1539 213.221 39.6989 212.388 39.0605C211.555 38.4221 210.865 37.6157 210.364 36.6921C210.124 36.3168 209.972 35.8924 209.916 35.4499C209.861 35.0073 209.906 34.559 210.046 34.1356C210.5 32.9116 211.776 32.2377 212.255 32.0178C212.123 31.5752 211.992 30.4424 213.351 29.0312C213.769 28.5445 214.331 28.2037 214.956 28.0606C215.581 27.9176 216.236 27.9781 216.824 28.2334C217.163 27.7073 218.419 26.1838 221.633 26.1281C222.082 26.0955 222.534 26.1636 222.953 26.3278C223.373 26.492 223.75 26.7483 224.058 27.0776C224.991 28.1221 225.047 29.7253 225.019 30.4751C225.576 30.1419 226.203 29.9451 226.851 29.9C227.498 29.8559 228.146 29.9653 228.743 30.2197C230.677 31.0655 230.079 33.7007 229.844 34.5062C230.466 34.6262 232.089 35.1446 232.922 37.3574C233.075 37.703 233.155 38.0774 233.155 38.4557C233.155 38.8339 233.075 39.2083 232.922 39.5539C232.536 40.2432 231.917 40.7722 231.176 41.0448V41.8906C231.176 42.6884 229.808 43.0868 229.652 43.1348C229.622 43.1425 229.591 43.1425 229.561 43.1348L226.641 42.5722L223.543 44.666C223.502 44.6785 223.457 44.6785 223.416 44.666V44.6679ZM215.596 28.3784C215.221 28.3851 214.852 28.4715 214.512 28.6299C214.172 28.7883 213.868 29.0168 213.622 29.3C212.111 30.8706 212.645 31.9794 212.669 32.0274C212.682 32.0524 212.689 32.0812 212.689 32.109C212.689 32.1369 212.682 32.1657 212.669 32.1906C212.66 32.2165 212.643 32.2405 212.624 32.2597C212.604 32.2789 212.58 32.2933 212.553 32.3029C212.553 32.3029 210.883 32.949 210.396 34.269C210.278 34.6377 210.243 35.0265 210.293 35.4105C210.344 35.7936 210.479 36.1612 210.687 36.4867C211.167 37.3584 211.823 38.1206 212.613 38.7254C213.403 39.3302 214.31 39.7642 215.277 39.9994L215.337 40.0195L223.416 44.2705L226.471 42.2448C226.492 42.2304 226.516 42.2199 226.541 42.2141C226.567 42.2084 226.592 42.2084 226.617 42.2132L229.569 42.7834C229.967 42.6519 230.765 42.3053 230.765 41.9338V40.9488C230.765 40.9066 230.778 40.8643 230.803 40.8298C230.828 40.7952 230.864 40.7703 230.905 40.7568C231.597 40.5235 232.183 40.0483 232.551 39.4166C232.683 39.121 232.751 38.8013 232.751 38.4777C232.751 38.1542 232.683 37.8345 232.551 37.5389C231.626 35.0707 229.656 34.9151 229.572 34.9113C229.542 34.9103 229.512 34.9017 229.486 34.8863C229.459 34.871 229.437 34.8499 229.421 34.8239C229.403 34.799 229.393 34.7692 229.389 34.7395C229.384 34.7087 229.387 34.678 229.397 34.6492C229.397 34.6175 230.494 31.4591 228.6 30.6258C228 30.3858 227.35 30.2994 226.708 30.3752C226.066 30.4511 225.454 30.6863 224.927 31.0607C224.894 31.0828 224.855 31.0952 224.816 31.0952C224.776 31.0952 224.737 31.0837 224.704 31.0607C224.671 31.0415 224.644 31.0127 224.626 30.9772C224.609 30.9426 224.602 30.9032 224.608 30.8648C224.608 30.8408 224.879 28.604 223.775 27.3713C223.503 27.0862 223.173 26.8654 222.806 26.7243C222.439 26.5832 222.045 26.5246 221.653 26.5544C218.096 26.6139 217.111 28.5877 217.104 28.6078C217.091 28.6328 217.074 28.6549 217.053 28.6731C217.032 28.6914 217.007 28.7038 216.98 28.7115C216.955 28.7221 216.927 28.7278 216.9 28.7278C216.873 28.7278 216.845 28.7221 216.821 28.7115C216.452 28.5032 216.035 28.3938 215.612 28.3928L215.596 28.3813V28.3784Z" fill="#5E96FC"/>
<path d="M230.961 40.9274V41.9124C230.961 42.57 229.386 43.1403 229.386 43.1403L226.594 42.3866C226.594 42.3866 228.732 42.0199 229.31 41.6494C229.487 41.513 229.631 41.3374 229.727 41.1358C229.824 40.9341 229.873 40.7124 229.869 40.4887C230.661 39.7284 231.224 38.7616 231.495 37.697C231.815 36.1024 229.593 34.6902 229.593 34.6902C229.593 34.6902 231.758 34.8179 232.748 37.4493C233.736 40.0807 230.961 40.9265 230.961 40.9265V40.9274Z" fill="#3B7CD3"/>
<path d="M215.84 40.3164C215.84 40.3164 211.944 38.55 213.392 35.9541C214.416 34.1157 214.938 38.1189 216.238 38.4021C217.539 38.6853 216.836 40.0332 216.836 40.0332L215.84 40.3164Z" fill="#3B7CD3"/>
<path d="M234.522 55.3182C231.228 57.1643 228.329 53.7706 228.329 53.7706C228.209 53.0305 228.048 52.297 227.851 51.5732C227.564 50.5364 227.145 49.3882 226.582 48.7344C226.084 48.1478 225.442 48.072 224.7 48.2237C223.664 48.431 222.428 49.0848 221.087 49.4199C218.791 50.018 217.941 46.2739 217.499 45.3763C217.056 44.4787 216.251 44.9779 215.062 43.678C213.874 42.3782 215.753 38.0955 215.753 38.0955C216.083 38.3269 216.437 38.5237 216.809 38.6821C217.606 39.0805 220.246 37.3419 221.295 37.4418C222.344 37.5416 222.595 42.3868 223.492 42.2265C224.39 42.0671 223.213 40.2325 223.46 39.0882C223.707 37.9438 226.399 36.3406 227.89 37.892C230.378 40.4716 227.89 42.6335 227.89 42.6335L237.425 45.8236C237.425 45.8236 239.395 52.5869 234.522 55.3182V55.3182Z" fill="#DEECFF"/>
<path d="M232.499 56.064C230.059 56.064 228.197 53.927 228.176 53.8992C228.152 53.8704 228.136 53.8368 228.129 53.7993C228.01 53.0669 227.852 52.3411 227.654 51.6259V51.598C227.435 50.6121 227.02 49.6809 226.434 48.8582C226.036 48.3916 225.517 48.2524 224.74 48.4117C224.152 48.5538 223.578 48.743 223.021 48.9782C222.407 49.2278 221.778 49.4409 221.139 49.6166C219.074 50.1551 218.108 47.5554 217.589 46.1557C217.482 45.8687 217.391 45.621 217.315 45.4703C217.233 45.3195 217.12 45.189 216.982 45.0872C216.844 44.9855 216.685 44.9163 216.517 44.8837C215.891 44.6821 215.332 44.3144 214.899 43.819C213.63 42.4395 215.473 38.1924 215.552 38.0129C215.564 37.9841 215.583 37.9591 215.606 37.9389C215.63 37.9188 215.658 37.9044 215.688 37.8967C215.717 37.89 215.748 37.89 215.778 37.8967C215.808 37.9034 215.836 37.9169 215.86 37.9361C216.178 38.1569 216.519 38.345 216.876 38.4986C217.231 38.6657 218.204 38.2596 219.061 37.9005C219.918 37.5415 220.756 37.1911 221.294 37.2391C221.972 37.3025 222.299 38.5946 222.646 39.9627C222.829 40.6923 223.173 42.0401 223.444 42.0401C223.47 42.0392 223.497 42.0315 223.52 42.018C223.544 42.0046 223.565 41.9864 223.579 41.9643C223.695 41.7924 223.579 41.2827 223.447 40.8315C223.253 40.2603 223.186 39.6526 223.253 39.0526C223.412 38.3105 224.384 37.4858 225.469 37.1786C225.905 37.025 226.376 36.9981 226.827 37.1009C227.277 37.2036 227.69 37.4301 228.017 37.7565C228.383 38.0926 228.676 38.5015 228.875 38.9566C229.075 39.4116 229.178 39.9031 229.178 40.4004C229.119 41.202 228.788 41.9604 228.241 42.5499L237.472 45.6363C237.503 45.6469 237.53 45.6651 237.553 45.6882C237.575 45.7122 237.591 45.741 237.6 45.7717C237.624 45.8399 239.565 52.7145 234.612 55.4938C233.969 55.8624 233.242 56.0583 232.499 56.064V56.064ZM228.512 53.6717C228.863 54.0701 231.463 56.7898 234.418 55.1309C238.78 52.6867 237.46 46.8085 237.245 45.9599L227.802 42.8254C227.768 42.8158 227.737 42.7966 227.714 42.7697C227.69 42.7438 227.672 42.7112 227.666 42.6766C227.659 42.6421 227.662 42.6056 227.673 42.572C227.686 42.5384 227.707 42.5086 227.734 42.4865C228.324 41.9326 228.691 41.1828 228.767 40.3774C228.764 39.9358 228.669 39.4999 228.488 39.0967C228.308 38.6935 228.046 38.3326 227.719 38.0359C227.438 37.7652 227.089 37.578 226.709 37.4954C226.328 37.4129 225.932 37.4369 225.565 37.5655C224.549 37.8525 223.743 38.61 223.627 39.1409C223.582 39.6804 223.648 40.2228 223.823 40.7355C223.978 41.3412 224.11 41.8635 223.903 42.187C223.857 42.2542 223.799 42.3118 223.73 42.3541C223.662 42.3963 223.584 42.4241 223.503 42.4337C222.881 42.5297 222.606 41.4449 222.255 40.0654C222.016 39.1121 221.649 37.673 221.255 37.6404C220.859 37.6087 220.002 37.9389 219.213 38.2702C218.184 38.6964 217.219 39.1034 216.7 38.8606C216.398 38.7223 216.103 38.5668 215.819 38.394C215.281 39.6977 214.332 42.6209 215.186 43.5502C215.576 43.9995 216.084 44.3317 216.652 44.5112C216.868 44.563 217.068 44.661 217.242 44.7992C217.415 44.9375 217.555 45.1112 217.654 45.309C217.737 45.476 217.829 45.7074 217.945 46.0309C218.455 47.4028 219.304 49.6914 221.023 49.2489C221.647 49.0732 222.261 48.863 222.862 48.6191C223.441 48.3772 224.038 48.1833 224.647 48.0373C225.012 47.925 225.401 47.9193 225.769 48.021C226.136 48.1228 226.467 48.3282 226.721 48.6114C227.212 49.1855 227.65 50.1667 228.03 51.5308V51.5587C228.32 52.5475 228.476 53.4403 228.516 53.6841L228.512 53.6726V53.6717Z" fill="#3B7CD3"/>
<path d="M224.245 40.4958C224.192 40.4958 224.141 40.4747 224.104 40.4372C224.066 40.3998 224.045 40.3489 224.045 40.2961C224.045 40.2241 224.077 38.5057 225.465 38.139C225.76 38.0305 226.081 38.0238 226.38 38.1198C226.678 38.2158 226.936 38.4087 227.111 38.6689C227.124 38.6919 227.133 38.7169 227.135 38.7428C227.138 38.7687 227.135 38.7956 227.128 38.8206C227.121 38.8455 227.109 38.8695 227.092 38.8897C227.076 38.9099 227.055 38.9271 227.032 38.9396C227.009 38.9521 226.984 38.9598 226.958 38.9626C226.932 38.9655 226.905 38.9627 226.88 38.9559C226.855 38.9483 226.831 38.9367 226.811 38.9195C226.791 38.9031 226.774 38.883 226.761 38.8599C226.761 38.8398 226.426 38.2935 225.565 38.521C224.472 38.8119 224.445 40.2836 224.445 40.3C224.445 40.3259 224.439 40.3518 224.429 40.3758C224.419 40.3998 224.404 40.4219 224.386 40.4401C224.367 40.4584 224.345 40.4728 224.321 40.4824C224.297 40.492 224.271 40.4968 224.245 40.4958V40.4958Z" fill="#3B7CD3"/>
<path d="M226.123 40.6801H226.083C225.828 40.6148 225.588 40.4996 225.378 40.3412C225.043 40.0897 225.293 39.7508 225.441 39.5434C225.566 39.4013 225.656 39.2324 225.704 39.049C225.704 39.001 225.704 38.9809 225.685 38.9693C225.495 38.8657 225.276 38.8282 225.063 38.8618C225.01 38.8657 224.958 38.8484 224.917 38.8157C224.877 38.7821 224.85 38.7351 224.843 38.6823C224.838 38.6295 224.855 38.5767 224.888 38.5364C224.922 38.4951 224.97 38.4692 225.023 38.4634C225.359 38.4164 225.699 38.4989 225.976 38.6948C226.025 38.7476 226.062 38.8109 226.083 38.8801C226.106 38.9492 226.11 39.0221 226.1 39.0941C226.045 39.3418 225.93 39.5722 225.765 39.7642C225.701 39.8381 225.65 39.9217 225.613 40.0119C225.78 40.131 225.968 40.2193 226.167 40.2711C226.22 40.2769 226.269 40.3038 226.301 40.345C226.335 40.3863 226.35 40.4391 226.345 40.4919C226.339 40.5447 226.312 40.5937 226.271 40.6263C226.229 40.6599 226.177 40.6753 226.123 40.6695V40.681V40.6801Z" fill="#3B7CD3"/>
<path d="M219.029 46.4896C218.924 46.4915 218.818 46.481 218.715 46.4579C218.663 46.4445 218.619 46.4119 218.591 46.3667C218.564 46.3216 218.555 46.2669 218.567 46.2151C218.573 46.1891 218.585 46.1661 218.6 46.145C218.617 46.1239 218.636 46.1066 218.659 46.0931C218.681 46.0797 218.706 46.0711 218.733 46.0672C218.759 46.0634 218.785 46.0653 218.811 46.072C219.043 46.1075 219.281 46.0903 219.506 46.0211C219.73 45.952 219.938 45.833 220.11 45.6736C220.736 45.1389 220.314 43.8313 220.309 43.8198C220.293 43.7699 220.297 43.7161 220.32 43.6691C220.343 43.6221 220.384 43.5865 220.433 43.5683C220.458 43.5597 220.485 43.5558 220.512 43.5577C220.538 43.5597 220.564 43.5664 220.588 43.5789C220.612 43.5913 220.633 43.6077 220.65 43.6278C220.667 43.648 220.681 43.671 220.688 43.6969C220.709 43.7603 221.199 45.2723 220.37 45.9779C219.999 46.3043 219.523 46.4877 219.029 46.4925V46.4896Z" fill="#3B7CD3"/>
<path d="M217.519 41.4571C217.79 41.4571 218.009 41.2373 218.009 40.9666C218.009 40.6959 217.79 40.476 217.519 40.476C217.248 40.476 217.028 40.6959 217.028 40.9666C217.028 41.2373 217.248 41.4571 217.519 41.4571Z" fill="#3B7CD3"/>
<path d="M228.265 45.0218C228.265 45.0218 228.449 47.0513 228.449 48.523C228.423 49.484 228.274 50.4382 228.006 51.3617C227.773 50.3547 227.339 49.4052 226.73 48.571C226.495 48.3022 226.189 48.1044 225.847 48.0007C225.505 47.898 225.141 47.8932 224.796 47.9882C224.796 47.9882 226.391 47.5658 227.229 46.553C227.646 46.0951 227.995 45.5796 228.265 45.0218V45.0218Z" fill="#3B7CD3"/>
<path d="M274.96 45.8843C274.96 45.8843 283.951 47.4117 291.34 59.2352C298.73 71.0587 301.309 85.0193 301.309 85.0193L271.753 71.5733L274.96 45.8852V45.8843Z" fill="#DEECFF"/>
<path d="M301.317 85.2177C301.29 85.2225 301.262 85.2225 301.234 85.2177L271.666 71.7516C271.627 71.7353 271.594 71.7065 271.573 71.669C271.552 71.6326 271.544 71.5894 271.55 71.5481L274.74 45.86C274.744 45.8331 274.753 45.8072 274.766 45.7842C274.78 45.7611 274.798 45.741 274.82 45.7246C274.864 45.6939 274.919 45.6805 274.972 45.6891C275.064 45.6891 284.143 47.3682 291.493 59.1274C298.841 70.8866 301.461 84.8433 301.493 84.9825C301.499 85.019 301.495 85.0555 301.482 85.0891C301.469 85.1227 301.446 85.1524 301.417 85.1745C301.389 85.1985 301.355 85.2139 301.317 85.2187V85.2177ZM271.977 71.4521L301.043 84.6753C300.568 82.3626 297.781 69.9209 291.173 59.3377C284.566 48.7545 276.507 46.4418 275.131 46.1231L271.977 71.4521V71.4521Z" fill="#3B7CD3"/>
<path d="M225.593 75.1887C225.593 75.1887 223.703 80.2249 217.028 78.5065C210.353 76.788 194.745 68.9361 192.803 72.9797C191.3 76.1218 194.255 77.9679 194.255 77.9679C194.255 77.9679 192.221 80.9113 192.577 83.7578C192.932 86.6052 198.475 99.2697 204.168 99.8562C206.382 100.088 208.008 100.402 213.392 99.1785L215.532 95.0427C215.532 95.0427 217.191 98.4757 217.925 98.3212C227.204 96.3627 237.269 93.1092 239.119 91.3188C242.054 88.4791 242.257 85.433 242.257 85.433L225.593 75.1887Z" fill="#DEECFF"/>
<path d="M207.068 100.271C206.248 100.262 205.429 100.207 204.615 100.106L204.144 100.055C198.251 99.445 192.704 86.4099 192.377 83.7814C192.059 81.245 193.553 78.6856 193.972 78.0155C193.35 77.5489 191.269 75.7067 192.616 72.8958C194.072 69.8611 202.302 72.9668 209.564 75.7105C212.431 76.7953 215.146 77.8158 217.073 78.315C223.48 79.9653 225.322 75.3198 225.398 75.1249C225.409 75.0961 225.424 75.0711 225.445 75.05C225.466 75.0289 225.491 75.0135 225.52 75.0039C225.548 74.9943 225.578 74.9915 225.607 74.9943C225.636 74.9982 225.665 75.0087 225.69 75.0251L242.35 85.2694C242.382 85.2876 242.407 85.3145 242.424 85.3471C242.441 85.3798 242.448 85.4163 242.445 85.4527C242.445 85.5804 242.206 88.6064 239.255 91.4615C237.413 93.2442 227.664 96.4737 217.966 98.5195C217.244 98.6712 216.123 96.6695 215.529 95.4887L213.567 99.2731C213.553 99.299 213.534 99.3211 213.512 99.3384C213.489 99.3566 213.463 99.3691 213.435 99.3768C210.361 100.071 208.511 100.271 207.068 100.271V100.271ZM195.424 72.0337C194.207 72.0337 193.335 72.3332 192.983 73.0666C191.576 76.0062 194.248 77.7246 194.359 77.7966C194.382 77.8101 194.402 77.8283 194.418 77.8504C194.434 77.8725 194.445 77.8974 194.451 77.9233C194.461 77.9781 194.449 78.0337 194.418 78.0789C194.418 78.1077 192.425 80.9983 192.776 83.7334C193.174 86.8563 198.71 99.0897 204.188 99.66L204.675 99.6965C206.669 99.9115 208.375 100.095 213.268 98.9899L215.37 94.9386C215.386 94.907 215.411 94.8801 215.443 94.8609C215.473 94.8417 215.509 94.8311 215.545 94.8311C215.582 94.8311 215.617 94.8417 215.649 94.8618C215.68 94.881 215.705 94.9098 215.72 94.9425C216.57 96.6974 217.586 98.1883 217.89 98.1134C227.36 96.1195 237.218 92.8689 238.984 91.1629C240.598 89.671 241.675 87.6896 242.05 85.5238L225.701 75.4676C225.227 76.4363 222.954 80.2207 217.001 78.6894C215.051 78.1874 212.327 77.1582 209.448 76.0696C204.507 74.2235 198.693 72.0337 195.424 72.0337V72.0337Z" fill="#3B7CD3"/>
<path d="M328.657 168.977L336.851 173.101L353.787 168.977L352.806 154.447L340.045 151.109L328.657 168.977Z" fill="#DEECFF"/>
<path d="M200.117 156.308L186.758 168.131L215.39 202.692L230.295 186.785L200.117 156.308V156.308Z" fill="#DEECFF"/>
<path d="M215.389 202.891C215.36 202.891 215.332 202.884 215.306 202.872C215.281 202.859 215.258 202.841 215.241 202.819L186.611 168.258C186.578 168.219 186.562 168.168 186.565 168.117C186.569 168.065 186.592 168.017 186.631 167.983L199.989 156.156C200.027 156.122 200.076 156.103 200.127 156.103C200.178 156.103 200.227 156.122 200.265 156.156L230.439 186.633C230.476 186.67 230.496 186.719 230.496 186.771C230.496 186.823 230.476 186.872 230.439 186.909L215.537 202.815C215.52 202.837 215.496 202.855 215.472 202.868C215.446 202.881 215.418 202.889 215.39 202.891H215.389ZM187.037 168.155L215.4 202.393L230.015 186.789L200.108 156.579L187.037 168.155V168.155Z" fill="#3B7CD3"/>
<path d="M213.519 99.1307C213.472 99.1327 213.426 99.1173 213.391 99.0866C213.37 99.0703 213.354 99.0501 213.34 99.0271C213.328 99.004 213.32 98.9791 213.318 98.9531C213.315 98.9272 213.318 98.9004 213.326 98.8754C213.333 98.8504 213.346 98.8274 213.363 98.8072C213.386 98.7755 215.959 95.5739 214.958 93.3524C213.65 90.3821 212.134 90.7124 212.071 90.7287C212.019 90.7412 211.964 90.7316 211.919 90.7047C211.873 90.6769 211.841 90.6327 211.827 90.5809C211.821 90.5559 211.819 90.53 211.823 90.5041C211.827 90.4781 211.836 90.4532 211.849 90.4311C211.863 90.409 211.88 90.3898 211.901 90.3745C211.922 90.3591 211.946 90.3476 211.971 90.3418C212.047 90.3217 213.865 89.8868 215.321 93.1892C216.402 95.6373 213.765 98.9195 213.65 99.0587C213.634 99.0789 213.614 99.0952 213.591 99.1077C213.569 99.1202 213.544 99.1279 213.519 99.1307V99.1307Z" fill="#3B7CD3"/>
<path d="M207.306 93.4594C207.253 93.4661 207.199 93.4517 207.157 93.42C207.115 93.3874 207.088 93.3394 207.08 93.2866C207.074 93.2328 207.088 93.18 207.121 93.1378C207.153 93.0955 207.201 93.0677 207.254 93.061C207.294 93.061 211.544 91.8648 212.386 89.4283C212.725 88.451 212.466 87.3863 211.624 86.2382C208.124 81.5408 203.582 84.2922 203.39 84.4122C203.368 84.4257 203.343 84.4353 203.317 84.4391C203.291 84.4439 203.265 84.4429 203.239 84.4372C203.213 84.4314 203.189 84.4199 203.168 84.4045C203.147 84.3892 203.129 84.37 203.116 84.3479C203.088 84.3028 203.079 84.249 203.092 84.1972C203.103 84.1463 203.135 84.1012 203.179 84.0724C203.231 84.0407 208.223 81.0022 211.951 86.003C212.877 87.2433 213.148 88.4356 212.769 89.5435C211.855 92.1835 207.545 93.3797 207.362 93.4277C207.346 93.4431 207.327 93.4536 207.306 93.4594V93.4594Z" fill="#3B7CD3"/>
<path d="M207.705 83.6262C207.665 83.6272 207.625 83.6156 207.592 83.5926C207.558 83.5696 207.532 83.5369 207.518 83.4985C207.508 83.4745 207.503 83.4476 207.504 83.4217C207.505 83.3948 207.511 83.3689 207.521 83.3449C207.532 83.3209 207.547 83.2988 207.567 83.2816C207.586 83.2633 207.609 83.2489 207.634 83.2393C207.8 83.1616 207.948 83.0502 208.07 82.9139C208.192 82.7766 208.285 82.6163 208.343 82.4425C208.578 81.7926 208.399 80.8873 207.821 79.8226C205.001 74.6385 194.423 78.108 194.319 78.1436C194.293 78.1522 194.268 78.156 194.241 78.1541C194.214 78.1522 194.188 78.1455 194.165 78.133C194.141 78.1215 194.12 78.1052 194.102 78.085C194.085 78.0648 194.072 78.0408 194.064 78.0159C194.049 77.966 194.053 77.9112 194.077 77.8642C194.1 77.8181 194.142 77.7816 194.192 77.7644C194.638 77.6175 205.193 74.1758 208.171 79.6306C208.818 80.8268 209.001 81.8156 208.714 82.5855C208.634 82.8102 208.509 83.0156 208.347 83.1904C208.186 83.3651 207.99 83.5052 207.773 83.6022C207.752 83.6147 207.729 83.6224 207.705 83.6262Z" fill="#3B7CD3"/>
<path d="M213.52 98.9307L215.533 95.0426L217.595 98.2126C217.595 98.2126 216.019 96.7533 215.569 96.809C215.118 96.8657 213.52 98.9307 213.52 98.9307Z" fill="#3B7CD3"/>
<path d="M293.039 76.1897C293.039 76.1897 311.897 90.325 317.631 112.225C323.365 134.125 323.828 138.483 323.828 138.483L344.939 151.136C344.939 151.136 344.711 159.111 339.89 163.713C336.779 166.613 333.309 169.105 329.566 171.126C329.566 171.126 299.886 159.442 294.874 151.136C289.862 142.83 285.044 135.637 285.044 135.637C285.044 135.637 228.676 196.432 225.829 197.121C224.236 197.549 222.544 197.408 221.044 196.722L226.132 191.319C226.132 191.319 223.046 180.855 215.214 172.665C207.913 165.029 195.699 156.767 192.261 159.614C188.823 162.461 255.508 97.2083 255.508 97.2083L253.914 84.4161L289.06 73.2262L293.039 76.1897V76.1897Z" fill="#5E96FC"/>
<path d="M223.922 197.552C222.89 197.572 221.867 197.351 220.935 196.906C220.91 196.89 220.888 196.869 220.871 196.844C220.854 196.819 220.842 196.791 220.836 196.763C220.832 196.732 220.834 196.701 220.843 196.672C220.853 196.644 220.867 196.617 220.888 196.595L225.897 191.275C225.541 190.142 222.344 180.429 215.062 172.808C207.37 164.765 195.523 157.157 192.381 159.773C192.277 159.861 192.114 159.992 191.982 159.845C191.851 159.697 191.815 159.658 194.645 156.811C196.276 155.176 198.681 152.779 201.795 149.697C207.043 144.513 214.376 137.279 223.592 128.227C238.744 113.337 254.12 98.2919 255.293 97.1438L253.698 84.4514C253.692 84.4053 253.701 84.3583 253.726 84.3189C253.751 84.2796 253.789 84.2508 253.833 84.2364L288.976 73.0426C289.006 73.033 289.039 73.0301 289.069 73.0359C289.101 73.0416 289.131 73.0551 289.156 73.0752L293.143 76.0292C293.335 76.1732 312.12 90.4563 317.81 112.173C323.054 132.135 323.903 137.579 324.015 138.375L345.037 150.973C345.068 150.991 345.093 151.018 345.11 151.05C345.127 151.08 345.135 151.116 345.133 151.152C345.133 151.232 344.846 159.266 340.025 163.865C336.896 166.773 333.413 169.274 329.658 171.31C329.631 171.321 329.602 171.327 329.573 171.327C329.545 171.327 329.517 171.321 329.49 171.31C328.294 170.831 299.691 159.506 294.707 151.24C290.228 143.819 285.853 137.203 285.024 135.959C280.976 140.325 228.695 196.63 225.873 197.313C225.234 197.469 224.579 197.55 223.922 197.552V197.552ZM221.37 196.667C222.777 197.211 224.319 197.302 225.78 196.926C227.986 196.391 265.417 156.52 284.901 135.517C284.921 135.494 284.947 135.477 284.975 135.467C285.004 135.455 285.033 135.451 285.064 135.453C285.094 135.455 285.123 135.465 285.148 135.48C285.174 135.495 285.195 135.516 285.212 135.541C285.264 135.613 290.093 142.838 295.045 151.049C299.83 158.984 327.795 170.221 329.554 170.923C333.247 168.912 336.675 166.445 339.754 163.582C344.141 159.399 344.678 152.256 344.735 151.264L323.724 138.659C323.698 138.642 323.676 138.621 323.66 138.595C323.643 138.57 323.633 138.542 323.628 138.512C323.628 138.468 323.098 133.882 317.44 112.281C311.781 90.68 293.139 76.5198 292.92 76.3566L289.008 73.4612L254.12 84.5628L255.716 97.1918C255.718 97.2225 255.716 97.2532 255.704 97.282C255.693 97.3108 255.677 97.3377 255.655 97.3598C235.598 116.986 198.8 153.078 193.051 158.992C197.556 157.692 208.829 165.715 215.349 172.549C223.125 180.684 226.282 191.184 226.315 191.291C226.325 191.324 226.326 191.36 226.317 191.393C226.308 191.427 226.291 191.458 226.267 191.482L221.37 196.667V196.667Z" fill="#3B7CD3"/>
<path d="M285.047 135.645L263.595 102.44L282.136 138.775L285.047 135.645Z" fill="#3B7CD3"/>
<path d="M336.851 163.921C336.811 163.92 336.772 163.907 336.74 163.884C336.532 163.745 315.884 149.853 307.745 144.119C299.607 138.384 279.832 81.3538 278.979 78.9288C278.962 78.8789 278.966 78.8251 278.989 78.7781C279.012 78.7311 279.053 78.6955 279.102 78.6783C279.153 78.661 279.208 78.6648 279.255 78.6879C279.303 78.7109 279.339 78.7512 279.358 78.8011C279.561 79.3916 299.894 138.097 307.977 143.799C316.06 149.501 336.755 163.423 336.962 163.562C337.007 163.592 337.037 163.638 337.048 163.69C337.058 163.742 337.048 163.796 337.018 163.841C336.999 163.866 336.973 163.887 336.944 163.901C336.915 163.914 336.883 163.922 336.851 163.921Z" fill="#3B7CD3"/>
<path d="M283.993 97.4862C280.778 97.4344 277.616 96.6606 274.741 95.2216C268.76 92.3185 269.809 83.8732 269.821 83.7849C269.828 83.7331 269.855 83.6851 269.897 83.6534C269.939 83.6208 269.992 83.6073 270.044 83.614C270.096 83.6217 270.143 83.6496 270.174 83.6908C270.206 83.7321 270.221 83.7849 270.216 83.8368C270.216 83.9212 269.203 92.0871 274.917 94.8625C280.707 97.6783 285.241 97.0283 285.285 97.0197C285.338 97.012 285.391 97.0254 285.434 97.0571C285.477 97.0888 285.506 97.1368 285.513 97.1896C285.522 97.2424 285.509 97.2962 285.477 97.3394C285.444 97.3826 285.397 97.4114 285.344 97.419C284.895 97.4699 284.444 97.492 283.993 97.4862V97.4862Z" fill="#3B7CD3"/>
<path d="M295.934 78.5029L293.239 76.3457C290.642 76.3121 288.05 76.5608 285.507 77.0868C283.117 77.5553 280.774 78.236 278.504 79.1211C275.933 80.1186 273.485 81.4108 271.211 82.9727C265.413 87.0624 260.136 91.8461 255.501 97.2164L254.603 96.4187L253.008 95.0036L244.451 87.3945L242.249 85.4332C240.567 85.3142 238.918 84.91 237.373 84.237C235.626 83.518 234 82.5397 232.548 81.334C227.691 77.3259 225.586 75.1726 225.586 75.1726C225.586 75.1726 224.337 67.0662 225.278 61.5039C225.362 61.0056 225.466 60.5228 225.586 60.0764C225.84 59.1509 226.084 58.3579 226.315 57.684C226.498 57.1454 226.678 56.6789 226.845 56.2728C227.04 55.7985 227.258 55.3339 227.499 54.8808C227.699 54.4545 227.98 54.0715 228.324 53.7518C228.324 53.7518 232.364 57.9067 235.61 54.5256C238.856 51.1444 237.412 45.8163 237.412 45.8163C237.412 45.8163 238.708 44.0422 247.254 43.1244C255.799 42.2076 264.966 42.1318 269.437 42.6703L270.123 42.7702C270.794 42.8681 271.46 43.0006 272.116 43.1686C274.968 43.8828 276.662 44.983 277.025 45.4179C277.092 45.4745 277.146 45.5446 277.183 45.6243C277.22 45.704 277.239 45.7904 277.239 45.8787C277.239 45.967 277.22 46.0534 277.183 46.1331C277.146 46.2128 277.092 46.2829 277.025 46.3395L275.143 45.8173C275.143 45.8173 275.318 46.3558 275.573 47.241C276.302 49.7293 276.878 52.259 277.301 54.8174C277.559 56.3381 277.636 57.8846 277.527 59.4235C277.424 60.421 277.34 61.286 277.26 62.0357C276.977 64.7833 276.834 65.9718 276.834 65.9718L277.734 66.3702C281.519 68.0646 295.958 74.6926 296.629 77.3681C297.003 78.8475 295.934 78.5048 295.934 78.5048V78.5029Z" fill="#92C1FF"/>
<path d="M255.501 97.4159C255.452 97.4159 255.406 97.3996 255.369 97.3679L242.158 85.6279C240.479 85.5021 238.832 85.0979 237.286 84.4317C235.52 83.7059 233.876 82.7161 232.409 81.4969C227.623 77.533 225.455 75.3442 225.434 75.324C225.403 75.2952 225.383 75.2559 225.379 75.2127C225.379 75.133 224.135 67.0103 225.068 61.4835C225.159 60.9651 225.263 60.4784 225.383 60.0358C225.633 59.1142 225.881 58.3049 226.116 57.6434C226.284 57.1529 226.459 56.6863 226.651 56.2197C226.844 55.7368 227.065 55.2655 227.312 54.8085C227.525 54.3554 227.827 53.9483 228.197 53.6123C228.237 53.5864 228.284 53.5749 228.331 53.5797C228.377 53.5845 228.42 53.6066 228.453 53.6402C228.473 53.6402 230.467 55.6773 232.7 55.6773C233.219 55.6687 233.732 55.5516 234.204 55.3336C234.677 55.1157 235.098 54.8028 235.444 54.413C238.573 51.1509 237.21 45.9437 237.198 45.8919C237.19 45.8631 237.188 45.8324 237.194 45.8026C237.199 45.7729 237.212 45.745 237.229 45.721C237.281 45.6452 238.673 43.8624 247.199 42.9495C256.242 41.9846 265.222 41.9923 269.425 42.4992C269.664 42.5271 269.892 42.5587 270.119 42.5952C270.789 42.6951 271.459 42.8304 272.113 42.9936C275.076 43.7395 276.77 44.88 277.125 45.314C277.212 45.4042 277.278 45.5117 277.319 45.6289C277.362 45.746 277.378 45.8717 277.368 45.9956C277.342 46.201 277.236 46.3892 277.074 46.5178C277.05 46.537 277.022 46.5495 276.992 46.5553C276.962 46.561 276.932 46.5591 276.902 46.5505L275.371 46.1242C275.446 46.3757 275.559 46.7425 275.694 47.2052C276.425 49.7089 277.003 52.2549 277.425 54.8296C277.692 56.3484 277.776 57.893 277.676 59.431L277.592 60.2681C277.529 60.9219 277.468 61.5123 277.413 62.0422C277.185 64.2272 277.05 65.4397 277.014 65.8343L277.783 66.1732C282.066 68.0951 296.102 74.5704 296.789 77.3065C296.935 77.9084 296.888 78.3308 296.637 78.5622C296.525 78.6486 296.394 78.7062 296.255 78.7302C296.116 78.7542 295.973 78.7446 295.839 78.7014C295.816 78.6946 295.794 78.6822 295.776 78.6658L293.132 76.5528C290.572 76.5298 288.019 76.7775 285.511 77.2901C283.134 77.7557 280.802 78.4326 278.545 79.3119C275.985 80.3036 273.549 81.5891 271.288 83.1443C262.352 89.3287 255.716 97.2642 255.657 97.3439C255.639 97.365 255.618 97.3823 255.594 97.3948C255.57 97.4072 255.543 97.414 255.517 97.4159H255.501V97.4159ZM225.777 75.085C226.108 75.4162 228.269 77.5493 232.676 81.1859C234.117 82.3801 235.73 83.3497 237.461 84.0611C238.986 84.7139 240.61 85.1056 242.265 85.2218C242.313 85.2227 242.359 85.241 242.393 85.2736L255.489 96.9215C256.474 95.7647 262.786 88.5271 271.108 82.7929C273.398 81.2291 275.859 79.934 278.446 78.9327C280.725 78.0457 283.079 77.3621 285.48 76.8917C288.04 76.3647 290.649 76.1151 293.263 76.1458C293.305 76.1506 293.345 76.166 293.379 76.19L296.039 78.3193C296.101 78.3385 296.167 78.3433 296.233 78.3337C296.297 78.3241 296.359 78.3001 296.413 78.2636C296.545 78.1397 296.557 77.8325 296.45 77.3977C295.927 75.372 286.42 70.4472 277.648 66.5313C277.074 66.2721 276.746 66.1328 276.746 66.1328C276.708 66.1156 276.675 66.0858 276.655 66.0484C276.634 66.0109 276.625 65.9677 276.631 65.9255C276.631 65.9255 276.774 64.7091 277.057 61.9933C277.114 61.4633 277.17 60.8729 277.237 60.2192L277.321 59.382C277.414 57.8767 277.332 56.3657 277.074 54.8805C276.652 52.323 276.077 49.7924 275.351 47.3041C275.096 46.4266 274.924 45.8842 274.924 45.8842C274.913 45.8506 274.911 45.8132 274.918 45.7786C274.926 45.7441 274.943 45.7114 274.968 45.6855C274.994 45.6605 275.026 45.6423 275.06 45.6317C275.096 45.6221 275.132 45.6212 275.168 45.6298L276.934 46.1242C276.977 46.0695 277.004 46.0052 277.014 45.937C277.014 45.8669 277.002 45.7969 276.975 45.7316C276.948 45.6663 276.909 45.6077 276.859 45.5578C276.544 45.1594 274.896 44.0861 272.073 43.3728C271.435 43.2135 270.773 43.0819 270.112 42.9744C269.888 42.9399 269.66 42.9082 269.429 42.8784C265.25 42.3763 256.307 42.3715 247.294 43.3325C239.913 44.1303 237.988 45.5655 237.649 45.8804C237.832 46.6782 238.801 51.5233 235.77 54.6732C235.389 55.1023 234.923 55.4469 234.401 55.686C233.879 55.925 233.313 56.0527 232.739 56.0604C230.666 56.0604 228.86 54.5167 228.353 54.0386C228.102 54.3276 227.885 54.6444 227.707 54.9842C227.468 55.4296 227.252 55.8876 227.061 56.3561C226.874 56.8149 226.703 57.2729 226.538 57.7558C226.303 58.4297 226.06 59.2275 225.813 60.1481C225.694 60.5792 225.594 61.0534 225.506 61.5555C224.613 66.7636 225.666 74.3275 225.777 75.0975V75.085Z" fill="#3B7CD3"/>
<path d="M266.234 60.2025L276.834 65.9492L277.288 61.7702L266.234 60.2035V60.2025Z" fill="#3B7CD3"/>
<path d="M233.717 74.0439L242.254 85.4325L239.702 85.0216L233.717 74.0439V74.0439Z" fill="#3B7CD3"/>
<path d="M274.961 45.8839L276.902 46.3543C276.902 46.3543 278.381 45.7437 275.974 44.6675C274.291 43.9139 274.961 45.8839 274.961 45.8839Z" fill="#3B7CD3"/>
<path d="M293.039 76.19C293.039 76.19 295.296 78.6342 295.934 78.5027C296.572 78.3711 297.075 77.8489 296.365 76.8274C295.727 75.9106 293.039 76.19 293.039 76.19Z" fill="#3B7CD3"/>
<path d="M220.972 196.738C220.972 196.738 224.445 197.966 225.829 197.136C228.341 195.594 226.156 190.908 226.156 190.908L220.972 196.738Z" fill="#3B7CD3"/>
<path d="M191.962 159.674C191.86 160 191.833 160.345 191.883 160.683C191.933 161.02 192.06 161.342 192.253 161.624L192.915 162.684L196.544 159.47C195.807 159.216 195.035 159.074 194.255 159.048C193.47 159.172 192.702 159.382 191.963 159.674H191.962Z" fill="#3B7CD3"/>
<path d="M271.91 43.3837C271.266 43.3895 270.629 43.2531 270.044 42.9853C270 42.9642 269.967 42.9287 269.948 42.8845C269.928 42.8403 269.926 42.7914 269.94 42.7453C269.953 42.6992 269.983 42.6598 270.024 42.6339C270.064 42.608 270.112 42.5984 270.16 42.6061C270.834 42.7098 271.507 42.8413 272.153 43.0045C272.2 43.016 272.242 43.0439 272.27 43.0832C272.298 43.1226 272.31 43.1715 272.304 43.2195C272.3 43.2666 272.278 43.3107 272.243 43.3434C272.209 43.376 272.164 43.3962 272.117 43.3991L271.91 43.3827V43.3837Z" fill="#3B7CD3"/>
<path d="M247.039 52.0764C245.954 52.0783 244.906 51.6751 244.102 50.9465C243.298 50.2178 242.794 49.2146 242.69 48.1346C242.585 47.0546 242.887 45.9736 243.537 45.1038C244.185 44.234 245.136 43.6379 246.202 43.4315C247.048 43.2635 247.926 43.3499 248.723 43.6811C249.52 44.0113 250.202 44.572 250.681 45.29C251.16 46.0081 251.414 46.852 251.414 47.715C251.413 48.5781 251.156 49.422 250.675 50.1391C250.356 50.6172 249.946 51.0281 249.467 51.3449C248.987 51.6617 248.449 51.8815 247.884 51.989C247.606 52.0476 247.323 52.0764 247.039 52.0764V52.0764ZM247.039 43.7463C246.771 43.7444 246.504 43.7703 246.242 43.8222C245.602 43.9499 245.004 44.2321 244.501 44.6459C243.997 45.0596 243.603 45.5905 243.354 46.1925C243.105 46.7944 243.008 47.4491 243.071 48.0971C243.134 48.7461 243.357 49.3682 243.719 49.9106C244.081 50.452 244.57 50.8965 245.145 51.2047C245.72 51.5119 246.361 51.6732 247.013 51.6741C247.664 51.6741 248.306 51.5148 248.881 51.2076C249.456 50.9004 249.947 50.4568 250.308 49.9164C250.707 49.3202 250.935 48.6271 250.971 47.9109C251.006 47.1947 250.847 46.4824 250.51 45.8497C250.172 45.2171 249.67 44.6872 249.057 44.3176C248.442 43.947 247.739 43.7502 247.023 43.7473H247.039V43.7463Z" fill="#3B7CD3"/>
<path d="M264.368 54.6369C263.58 54.6341 262.808 54.4181 262.133 54.011C261.458 53.6049 260.905 53.0232 260.534 52.3271C260.164 51.6321 259.988 50.8497 260.025 50.0625C260.064 49.2753 260.314 48.513 260.751 47.8573C261.065 47.3716 261.473 46.9539 261.951 46.6266C262.428 46.3002 262.966 46.0717 263.533 45.9555C264.1 45.8384 264.683 45.8355 265.252 45.9469C265.819 46.0583 266.36 46.281 266.84 46.6026C267.321 46.9242 267.732 47.3389 268.052 47.8208C268.371 48.3037 268.591 48.8442 268.699 49.4125C268.807 49.9809 268.801 50.5655 268.681 51.131C268.561 51.6974 268.33 52.2331 268 52.7092C267.682 53.1883 267.271 53.5982 266.792 53.9169C266.313 54.2357 265.774 54.4555 265.21 54.563C264.932 54.6129 264.65 54.6369 264.368 54.635V54.6369ZM264.368 46.3107C263.685 46.3146 263.014 46.4951 262.421 46.8339C261.827 47.1728 261.332 47.6605 260.984 48.2471C260.634 48.8346 260.442 49.5018 260.427 50.1854C260.411 50.8689 260.573 51.5438 260.895 52.1467C261.219 52.7486 261.691 53.2574 262.269 53.6232C262.846 53.9889 263.507 54.1992 264.19 54.2337C264.873 54.2683 265.552 54.1253 266.164 53.82C266.774 53.5137 267.296 53.0558 267.678 52.4884C268.077 51.8923 268.307 51.1991 268.343 50.482C268.38 49.7649 268.22 49.0516 267.882 48.4189C267.544 47.7853 267.04 47.2564 266.425 46.8877C265.81 46.5181 265.106 46.3232 264.388 46.3242L264.368 46.3127V46.3107Z" fill="#3B7CD3"/>
<path d="M273.963 68.9355C273.175 68.9326 272.403 68.7166 271.728 68.3105C271.053 67.9035 270.501 67.3217 270.13 66.6266C269.758 65.9316 269.583 65.1492 269.621 64.362C269.66 63.5748 269.91 62.8125 270.347 62.1568C270.361 62.1347 270.381 62.1165 270.403 62.1021C270.425 62.0877 270.45 62.0781 270.476 62.0723C270.501 62.0675 270.528 62.0675 270.554 62.0733C270.579 62.0791 270.604 62.0896 270.625 62.105C270.647 62.1194 270.667 62.1376 270.681 62.1597C270.695 62.1818 270.705 62.2058 270.71 62.2317C270.715 62.2576 270.715 62.2835 270.709 62.3095C270.703 62.3354 270.693 62.3594 270.677 62.3805C270.093 63.2541 269.88 64.3245 270.085 65.3565C270.29 66.3876 270.896 67.2958 271.771 67.8795C272.644 68.4641 273.715 68.6772 274.746 68.4718C275.777 68.2673 276.685 67.6606 277.27 66.787C277.344 66.6718 277.413 66.5633 277.468 66.4596L276.755 66.1447C276.716 66.1274 276.684 66.0977 276.663 66.0602C276.642 66.0228 276.634 65.9796 276.639 65.9374C276.639 65.9374 276.783 64.721 277.066 62.0061C277.071 61.9533 277.097 61.9043 277.138 61.8707C277.179 61.8371 277.232 61.8208 277.285 61.8266C277.338 61.8323 277.387 61.8583 277.42 61.8986C277.454 61.9389 277.47 61.9927 277.464 62.0455C277.237 64.2305 277.102 65.4429 277.066 65.8375L277.835 66.1764C277.883 66.1985 277.92 66.2388 277.938 66.2878C277.957 66.3367 277.956 66.3914 277.935 66.4394C277.846 66.6382 277.739 66.8292 277.616 67.0097C277.296 67.4887 276.886 67.8987 276.407 68.2164C275.927 68.5352 275.39 68.755 274.824 68.8635C274.54 68.9153 274.252 68.9393 273.963 68.9355V68.9355Z" fill="#3B7CD3"/>
<path d="M238.915 64.2071C237.944 64.2052 236.999 63.8788 236.234 63.2788C235.469 62.6787 234.926 61.8407 234.691 60.897C234.456 59.9533 234.544 58.9587 234.939 58.0697C235.336 57.1817 236.016 56.4511 236.874 55.9942C237.733 55.5372 238.72 55.3797 239.677 55.5478C240.635 55.7158 241.509 56.1986 242.161 56.9196C242.813 57.6406 243.206 58.5593 243.276 59.5299C243.346 60.5005 243.09 61.4653 242.548 62.2736C242.149 62.8698 241.608 63.3584 240.975 63.6954C240.341 64.0324 239.633 64.209 238.915 64.2071V64.2071ZM238.915 55.8847C238.231 55.8838 237.557 56.0604 236.961 56.3974C236.364 56.7343 235.864 57.2201 235.512 57.8067C235.159 58.3942 234.964 59.0624 234.947 59.7478C234.929 60.4333 235.09 61.1101 235.412 61.7149C235.735 62.3197 236.208 62.8295 236.787 63.1962C237.366 63.5629 238.029 63.7732 238.714 63.8077C239.398 63.8413 240.08 63.6973 240.691 63.3892C241.304 63.081 241.825 62.6192 242.205 62.0499C242.606 61.4538 242.835 60.7606 242.872 60.0435C242.907 59.3264 242.748 58.614 242.41 57.9804C242.072 57.3468 241.569 56.8179 240.954 56.4492C240.338 56.0806 239.633 55.8847 238.915 55.8857V55.8847Z" fill="#3B7CD3"/>
<path d="M256.242 66.7896C255.382 66.7915 254.54 66.5361 253.825 66.0561C253.108 65.5761 252.549 64.8945 252.219 64.0967C251.89 63.299 251.805 62.4215 251.973 61.5757C252.142 60.729 252.559 59.9524 253.17 59.3427C253.78 58.7331 254.559 58.3184 255.405 58.1514C256.251 57.9843 257.129 58.0717 257.926 58.4029C258.722 58.7341 259.403 59.2938 259.882 60.0128C260.36 60.7309 260.615 61.5748 260.614 62.4378C260.614 63.3009 260.355 64.1438 259.874 64.8609C259.475 65.4571 258.934 65.9448 258.3 66.2817C257.666 66.6187 256.96 66.7934 256.242 66.7915V66.7896ZM256.242 58.4672C255.291 58.4653 254.372 58.8051 253.651 59.4253C252.93 60.0445 252.455 60.9028 252.314 61.8436C252.173 62.7834 252.375 63.7434 252.882 64.547C253.389 65.3515 254.169 65.9457 255.078 66.2232C255.987 66.5006 256.967 66.4411 257.835 66.0571C258.705 65.6731 259.408 64.9895 259.815 64.1303C260.223 63.2711 260.308 62.2948 260.055 61.378C259.802 60.4612 259.229 59.6663 258.439 59.1373C257.794 58.7024 257.036 58.4701 256.258 58.4672H256.242Z" fill="#3B7CD3"/>
<path d="M265.836 81.0814C264.71 81.0805 263.627 80.6465 262.813 79.8689C261.998 79.0923 261.513 78.0315 261.459 76.9063C261.404 75.7821 261.784 74.6791 262.521 73.8276C263.257 72.9751 264.293 72.4394 265.413 72.3299C266.535 72.2205 267.654 72.5459 268.541 73.2391C269.428 73.9332 270.015 74.9412 270.18 76.0548C270.344 77.1684 270.073 78.3031 269.424 79.2238C268.775 80.1435 267.798 80.779 266.693 80.9979C266.411 81.0536 266.124 81.0814 265.836 81.0814ZM265.836 72.7514C265.568 72.7514 265.301 72.7783 265.038 72.8311C264.399 72.9578 263.801 73.241 263.296 73.6538C262.792 74.0676 262.398 74.5985 262.147 75.2013C261.898 75.8033 261.801 76.458 261.864 77.107C261.928 77.7559 262.151 78.379 262.513 78.9204C262.875 79.4628 263.366 79.9073 263.941 80.2145C264.516 80.5217 265.158 80.683 265.81 80.683C266.462 80.683 267.103 80.5217 267.678 80.2145C268.253 79.9073 268.744 79.4628 269.106 78.9204C269.496 78.3223 269.719 77.6302 269.752 76.9169C269.783 76.2036 269.623 75.4941 269.287 74.8644C268.951 74.2336 268.453 73.7047 267.842 73.3332C267.233 72.9616 266.534 72.761 265.819 72.7514H265.836V72.7514Z" fill="#3B7CD3"/>
<path d="M278.505 79.3199C278.475 79.3199 278.446 79.3112 278.419 79.2978C278.392 79.2844 278.369 79.2652 278.351 79.2412C278.333 79.2181 278.32 79.1903 278.314 79.1615C278.307 79.1317 278.307 79.102 278.314 79.0732C278.431 78.5499 278.644 78.0536 278.943 77.6091C279.591 76.653 280.591 75.9905 281.725 75.7669C282.857 75.5432 284.033 75.7755 284.996 76.413C285.229 76.5723 285.446 76.7509 285.646 76.9477C285.672 76.9726 285.69 77.0053 285.7 77.0398C285.709 77.0754 285.709 77.1119 285.698 77.1464C285.688 77.181 285.668 77.2117 285.641 77.2357C285.615 77.2597 285.582 77.276 285.547 77.2827C283.169 77.7474 280.838 78.4242 278.581 79.3045C278.557 79.3132 278.531 79.3189 278.505 79.3199V79.3199ZM282.576 76.0741C281.923 76.0731 281.281 76.2325 280.705 76.5397C280.129 76.8459 279.637 77.2904 279.275 77.8328C279.074 78.1285 278.916 78.4511 278.804 78.79C280.844 78.0162 282.943 77.4066 285.081 76.9678C284.981 76.8872 284.877 76.8123 284.774 76.7403C284.123 76.3054 283.359 76.0731 282.576 76.0741V76.0741Z" fill="#3B7CD3"/>
<path d="M226.323 57.8984C226.293 57.9003 226.263 57.8927 226.236 57.8783C226.191 57.8581 226.155 57.8216 226.136 57.7765C226.117 57.7314 226.116 57.6805 226.132 57.6344C226.299 57.1439 226.475 56.6773 226.666 56.2107C226.685 56.1656 226.72 56.1282 226.764 56.107C226.808 56.0859 226.858 56.0811 226.906 56.0946C226.953 56.109 226.993 56.1397 227.019 56.181C227.044 56.2232 227.054 56.2731 227.045 56.3211C226.957 56.8453 226.769 57.3474 226.491 57.8005C226.474 57.8293 226.449 57.8533 226.419 57.8706C226.391 57.8869 226.357 57.8965 226.323 57.8965V57.8984Z" fill="#3B7CD3"/>
<path d="M231.735 74.9729C230.763 74.97 229.819 74.6436 229.054 74.0436C228.289 73.4446 227.745 72.6065 227.511 71.6628C227.277 70.7191 227.364 69.7245 227.76 68.8365C228.154 67.9485 228.835 67.2179 229.693 66.7609C230.551 66.304 231.537 66.1465 232.494 66.3136C233.452 66.4806 234.327 66.9626 234.979 67.6835C235.632 68.4045 236.024 69.3232 236.095 70.2919C236.166 71.2615 235.912 72.2273 235.372 73.0356C235.052 73.5137 234.641 73.9246 234.162 74.2423C233.683 74.5611 233.145 74.7809 232.58 74.8894C232.301 74.9451 232.018 74.9729 231.735 74.9739V74.9729ZM231.754 66.6429C231.487 66.6409 231.219 66.6669 230.957 66.7187C230.189 66.8723 229.485 67.2496 228.931 67.8035C228.378 68.3575 228.001 69.0621 227.848 69.8301C227.694 70.5972 227.772 71.393 228.071 72.1169C228.369 72.8407 228.875 73.4599 229.525 73.8958C229.958 74.1857 230.444 74.3873 230.954 74.4891C231.464 74.5908 231.989 74.5918 232.5 74.491C233.011 74.3892 233.497 74.1886 233.93 73.8996C234.363 73.6116 234.735 73.2401 235.024 72.8071C235.603 71.9316 235.812 70.8631 235.608 69.833C235.403 68.8039 234.801 67.8966 233.932 67.3082C233.29 66.8685 232.532 66.6294 231.754 66.6227V66.6429V66.6429Z" fill="#3B7CD3"/>
<path d="M249.06 77.5251C247.935 77.5242 246.852 77.0902 246.037 76.3126C245.223 75.536 244.738 74.4752 244.683 73.35C244.629 72.2258 245.009 71.1228 245.746 70.2713C246.482 69.4188 247.517 68.8831 248.638 68.7736C249.759 68.6642 250.879 68.9896 251.766 69.6828C252.653 70.3759 253.24 71.3849 253.404 72.4985C253.568 73.6121 253.298 74.7468 252.649 75.6665C252 76.5872 251.022 77.2227 249.917 77.4416C249.635 77.4973 249.348 77.5251 249.06 77.5251ZM249.08 69.1951C248.812 69.1951 248.545 69.222 248.282 69.2748C247.646 69.4053 247.05 69.6904 246.549 70.1052C246.049 70.5199 245.657 71.0517 245.411 71.6537C245.164 72.2546 245.069 72.9084 245.134 73.5555C245.199 74.2025 245.423 74.8236 245.785 75.3632C246.147 75.9037 246.636 76.3462 247.21 76.6534C247.783 76.9597 248.423 77.121 249.073 77.1219C249.723 77.1219 250.363 76.9635 250.938 76.6582C251.513 76.3529 252.002 75.9113 252.366 75.3718C252.757 74.7737 252.979 74.0825 253.011 73.3683C253.044 72.655 252.883 71.9465 252.547 71.3157C252.211 70.685 251.712 70.157 251.103 69.7855C250.493 69.413 249.794 69.2124 249.08 69.2028V69.1951V69.1951Z" fill="#3B7CD3"/>
<path d="M225.283 61.7217C225.233 61.7217 225.185 61.7035 225.148 61.6699C225.122 61.6469 225.102 61.619 225.092 61.5864C225.08 61.5547 225.077 61.5201 225.083 61.4865C225.175 60.972 225.279 60.4852 225.398 60.0427C225.65 59.122 225.897 58.3118 226.132 57.6503C226.3 57.1598 226.475 56.6932 226.666 56.2266C226.86 55.7437 227.081 55.2724 227.329 54.8154C227.344 54.7866 227.367 54.7616 227.395 54.7444C227.422 54.7261 227.453 54.7156 227.486 54.7127C227.52 54.7098 227.552 54.7156 227.582 54.728C227.613 54.7415 227.639 54.7616 227.66 54.7876C228.239 55.5104 228.572 56.3985 228.61 57.3239C228.65 58.2494 228.391 59.1623 227.875 59.9313C227.278 60.8241 226.372 61.4654 225.331 61.7294L225.283 61.7217V61.7217ZM227.532 55.2695C227.368 55.592 227.201 55.9597 227.033 56.362C226.866 56.7642 226.675 57.2788 226.511 57.7617C226.276 58.4356 226.033 59.2334 225.785 60.154C225.694 60.4929 225.61 60.8596 225.534 61.2465C226.351 60.9643 227.052 60.4209 227.528 59.699C227.973 59.0462 228.211 58.2743 228.212 57.4842C228.212 56.6941 227.976 55.9223 227.532 55.2685V55.2695Z" fill="#3B7CD3"/>
<path d="M258.659 91.813C257.976 91.8139 257.303 91.6555 256.692 91.3493C256.083 91.0431 255.553 90.5976 255.146 90.0494C254.74 89.5013 254.467 88.8648 254.351 88.1918C254.235 87.5188 254.279 86.8286 254.478 86.1758C254.677 85.523 255.028 84.9258 255.499 84.4334C255.972 83.9399 256.553 83.5645 257.196 83.337C257.841 83.1095 258.528 83.0365 259.206 83.1239C259.883 83.2103 260.53 83.4551 261.095 83.8372C262.051 84.4862 262.714 85.4846 262.937 86.6183C263.162 87.7512 262.93 88.9272 262.291 89.891C261.973 90.3691 261.561 90.78 261.082 91.0978C260.603 91.4165 260.065 91.6363 259.501 91.7448C259.222 91.7938 258.941 91.8168 258.659 91.813V91.813ZM258.659 83.4868C257.974 83.4868 257.3 83.6625 256.703 83.9985C256.107 84.3354 255.608 84.8212 255.255 85.4087C254.902 85.9963 254.707 86.6644 254.69 87.3499C254.673 88.0344 254.833 88.7121 255.155 89.316C255.478 89.9208 255.951 90.4315 256.53 90.7982C257.109 91.165 257.772 91.3752 258.457 91.4088C259.141 91.4434 259.823 91.2984 260.435 90.9903C261.046 90.683 261.568 90.2213 261.949 89.651C262.348 89.0558 262.578 88.3617 262.615 87.6456C262.65 86.9284 262.491 86.2151 262.153 85.5825C261.815 84.9489 261.312 84.4199 260.697 84.0503C260.08 83.6817 259.377 83.4868 258.659 83.4868V83.4868Z" fill="#3B7CD3"/>
<path d="M277.277 55.0353H277.249C276.515 54.9364 275.819 54.6522 275.226 54.2087C274.632 53.7661 274.162 53.1786 273.859 52.5037C273.555 51.8279 273.429 51.0867 273.492 50.3494C273.555 49.6121 273.805 48.9027 274.219 48.2883C274.537 47.8035 274.953 47.3897 275.439 47.0719C275.465 47.0547 275.495 47.0441 275.526 47.0412C275.557 47.0383 275.589 47.0412 275.618 47.0518C275.647 47.0633 275.673 47.0806 275.695 47.1036C275.716 47.1267 275.733 47.1536 275.742 47.1833C276.473 49.687 277.051 52.233 277.472 54.8077C277.478 54.8375 277.476 54.8692 277.467 54.898C277.459 54.9268 277.442 54.9537 277.42 54.9758C277.383 55.0142 277.331 55.0353 277.277 55.0353V55.0353ZM275.435 47.5625C275.089 47.8265 274.79 48.1452 274.55 48.5081C274.187 49.0467 273.962 49.6669 273.895 50.3139C273.829 50.96 273.923 51.6128 274.169 52.2147C274.415 52.8167 274.805 53.3476 275.306 53.7623C275.806 54.177 276.401 54.4621 277.038 54.5927C276.634 52.2253 276.099 49.8819 275.435 47.574V47.5625V47.5625Z" fill="#3B7CD3"/>
<path d="M244.455 87.59C244.407 87.59 244.36 87.5737 244.323 87.542L242.122 85.5807C242.098 85.5643 242.079 85.5432 242.064 85.5192C242.049 85.4952 242.039 85.4683 242.036 85.4395C242.033 85.4117 242.035 85.3829 242.044 85.356C242.052 85.3291 242.066 85.3042 242.085 85.2831C242.105 85.2619 242.128 85.2447 242.154 85.2331C242.179 85.2216 242.207 85.2159 242.236 85.2159C242.264 85.2168 242.292 85.2226 242.318 85.2341C242.344 85.2466 242.367 85.2639 242.385 85.285L244.446 87.1196C244.593 86.9669 244.726 86.8028 244.845 86.629C245.423 85.7535 245.633 84.685 245.428 83.6549C245.224 82.6257 244.622 81.7185 243.753 81.13C241.855 79.858 239.626 80.2007 238.461 81.9278C238.432 81.972 238.385 82.0017 238.334 82.0123C238.282 82.0219 238.228 82.0123 238.184 81.9816C238.14 81.9518 238.11 81.9057 238.099 81.8539C238.09 81.802 238.1 81.7483 238.13 81.7041C239.422 79.7745 241.883 79.3876 243.976 80.7873C244.933 81.4353 245.594 82.4347 245.818 83.5675C246.043 84.7013 245.81 85.8773 245.172 86.8402C245.009 87.0888 244.819 87.3192 244.606 87.5266C244.586 87.5468 244.563 87.5631 244.537 87.5737C244.511 87.5852 244.483 87.5909 244.455 87.59V87.59Z" fill="#3B7CD3"/>
<path d="M242.253 85.6327C240.547 85.5223 238.873 85.1182 237.304 84.4356C237.256 84.4155 237.218 84.3771 237.198 84.3281C237.177 84.2801 237.177 84.2254 237.197 84.1764C237.206 84.1524 237.221 84.1303 237.239 84.1121C237.257 84.0929 237.279 84.0785 237.303 84.0679C237.328 84.0583 237.354 84.0526 237.38 84.0535C237.406 84.0535 237.432 84.0583 237.456 84.0689C238.981 84.7217 240.606 85.1143 242.261 85.2295C242.314 85.2295 242.364 85.2507 242.402 85.2881C242.439 85.3255 242.46 85.3764 242.46 85.4292C242.46 85.482 242.439 85.5329 242.402 85.5704C242.364 85.6068 242.314 85.628 242.261 85.628L242.253 85.6327V85.6327Z" fill="#3B7CD3"/>
<path d="M254.602 96.6171C254.578 96.6171 254.554 96.6133 254.531 96.6046C254.508 96.595 254.488 96.5825 254.471 96.5653L252.875 95.1531C252.841 95.1214 252.819 95.0772 252.813 95.0302C252.807 94.9822 252.818 94.9342 252.844 94.8939C252.869 94.8536 252.909 94.8238 252.956 94.8104C253.002 94.7969 253.052 94.8017 253.095 94.8228C253.255 94.8996 253.41 94.987 253.558 95.0859C254.034 95.4104 254.441 95.826 254.754 96.3099C254.781 96.3502 254.792 96.3982 254.786 96.4462C254.779 96.4942 254.755 96.5384 254.717 96.5691C254.685 96.5969 254.645 96.6133 254.602 96.6171V96.6171Z" fill="#3B7CD3"/>
<path d="M351.765 151.535C351.765 151.535 354.636 149.968 357.575 150.379C360.514 150.79 364.389 155.786 364.685 164.958C364.98 174.129 364.976 190.108 360.59 193.405C355.27 197.349 338.96 199.574 328.206 196.46C317.451 193.346 322.978 187.125 322.978 187.125L348.423 174.42L351.765 151.535Z" fill="#5E96FC"/>
<path d="M339.962 198.111C335.807 198.111 331.668 197.66 328.131 196.635C324.33 195.534 322.101 193.923 321.499 191.85C320.77 189.318 322.728 187.065 322.812 186.985L322.871 186.937L348.228 174.264L351.59 151.384L351.677 151.34C351.797 151.272 354.641 149.744 357.607 150.144C360.45 150.542 364.586 155.383 364.893 164.897C365.423 181.427 364.012 191.053 360.698 193.512C357.093 196.217 348.496 198.111 339.962 198.111V198.111ZM323.082 187.268C322.867 187.528 321.252 189.557 321.886 191.734C322.449 193.672 324.59 195.195 328.266 196.252C338.973 199.354 355.199 197.145 360.474 193.229C362.679 191.594 365.164 185.362 364.51 164.945C364.21 155.654 360.271 150.941 357.571 150.562C355.011 150.203 352.467 151.399 351.988 151.651L348.627 174.536L348.535 174.584L323.082 187.268V187.268Z" fill="#3B7CD3"/>
<path d="M356.124 187.475C351.107 192.343 339.982 191.861 333.23 190.633C326.479 189.405 323.106 188.799 322.958 187.107C322.811 185.417 325.526 180.153 326.862 178.303C329.223 175.041 332.497 174.048 333.965 173.606C335.432 173.163 334.307 171.819 334.307 171.819C334.307 171.819 340.133 170.962 343.232 168.027C343.715 167.58 344.127 167.062 344.456 166.492C344.968 165.573 345.403 164.612 345.756 163.621C346.84 160.599 347.044 157.731 346.796 156.375V156.324C346.787 156.254 346.772 156.187 346.752 156.12V156.072C346.314 154.533 344.966 152.392 344.966 152.392C344.966 152.392 347.554 150.665 350.644 151.112C353.962 151.586 357.076 158.182 358.62 165.754C360.294 174.096 360.083 183.63 356.124 187.475V187.475Z" fill="#92C1FF"/>
<path d="M342.123 191.658C339.129 191.648 336.141 191.37 333.195 190.829L332.797 190.753C326.017 189.501 322.927 188.931 322.772 187.124C322.616 185.318 325.46 179.923 326.715 178.188C329.109 174.858 332.486 173.849 333.921 173.403C334.049 173.383 334.169 173.331 334.272 173.252C334.374 173.173 334.455 173.071 334.508 172.953C334.523 172.768 334.501 172.583 334.443 172.407C334.385 172.232 334.292 172.069 334.169 171.932C334.146 171.905 334.13 171.873 334.124 171.839C334.117 171.804 334.121 171.769 334.132 171.736C334.146 171.703 334.168 171.674 334.196 171.652C334.224 171.629 334.257 171.614 334.292 171.609C334.347 171.609 340.09 170.727 343.108 167.868C343.582 167.437 343.986 166.936 344.305 166.381C344.813 165.472 345.244 164.523 345.593 163.542C346.654 160.579 346.873 157.759 346.626 156.4V156.36C346.615 156.294 346.601 156.229 346.582 156.165V156.1C346.159 154.621 344.836 152.512 344.819 152.484C344.792 152.44 344.783 152.387 344.794 152.336C344.806 152.285 344.836 152.241 344.879 152.213C346.616 151.136 348.665 150.674 350.697 150.901C354.345 151.423 357.417 158.709 358.839 165.702C360.363 173.192 360.618 183.428 356.308 187.607C353.193 190.614 347.694 191.658 342.123 191.658V191.658ZM334.671 171.964C334.78 172.125 334.857 172.305 334.896 172.497C334.935 172.688 334.936 172.884 334.898 173.076C334.829 173.259 334.714 173.421 334.565 173.548C334.416 173.674 334.237 173.76 334.045 173.797C332.645 174.197 329.375 175.202 327.046 178.42C325.687 180.298 323.039 185.497 323.179 187.093C323.306 188.596 326.708 189.222 332.877 190.362L333.275 190.438C340.851 191.834 351.327 191.862 356.004 187.332C360.196 183.264 359.924 173.188 358.421 165.798C356.766 157.688 353.556 151.734 350.613 151.312C348.065 150.945 345.828 152.11 345.234 152.46C345.935 153.579 346.507 154.774 346.941 156.021V156.081C346.961 156.153 346.977 156.226 346.989 156.3V156.34C347.248 157.755 347.028 160.659 345.94 163.693C345.583 164.694 345.145 165.664 344.628 166.592C344.291 167.185 343.867 167.722 343.368 168.187C340.652 170.759 335.915 171.74 334.671 171.964V171.964Z" fill="#3B7CD3"/>
<path d="M358.595 165.756L353.411 164.695C348.842 163.749 347.155 157.804 346.816 156.392V156.341L346.772 156.137V156.089C346.333 154.55 344.985 152.408 344.985 152.408C344.985 152.408 347.574 150.682 350.664 151.129C353.937 151.587 357.052 158.183 358.595 165.756V165.756Z" fill="#3B7CD3"/>
<path d="M358.851 166.01L353.352 164.873C348.618 163.897 346.9 157.66 346.601 156.42L346.572 156.289C346.561 156.246 346.551 156.201 346.545 156.157V156.113C346.122 154.634 344.798 152.524 344.782 152.496L344.679 152.332L344.842 152.225C346.58 151.148 348.629 150.686 350.66 150.913C354.309 151.436 357.379 158.72 358.803 165.715L358.851 166.01V166.01ZM345.213 152.452C345.914 153.571 346.487 154.766 346.92 156.013V156.073C346.925 156.113 346.933 156.153 346.944 156.193L346.976 156.332C347.263 157.528 348.922 163.549 353.415 164.479L358.32 165.491C356.653 157.517 353.483 151.723 350.577 151.303C348.044 150.94 345.835 152.101 345.213 152.456V152.452V152.452Z" fill="#3B7CD3"/>
<path d="M346.509 171.848C344.867 171.681 343.81 169.619 343.232 168.028C343.715 167.581 344.127 167.063 344.456 166.493C344.968 165.574 345.403 164.613 345.756 163.621C346.633 166.002 348.69 172.072 346.509 171.848Z" fill="#3B7CD3"/>
<path d="M346.633 172.051C346.589 172.055 346.545 172.055 346.501 172.051C344.774 171.875 343.674 169.807 343.06 168.103L343.012 167.98L343.108 167.888C343.581 167.457 343.985 166.955 344.304 166.4C344.813 165.492 345.244 164.543 345.592 163.562L345.776 163.047L345.967 163.562C346.904 166.082 348.331 170.488 347.387 171.712C347.296 171.825 347.181 171.914 347.051 171.972C346.919 172.031 346.776 172.059 346.633 172.051V172.051ZM343.478 168.063C344.065 169.659 345.074 171.481 346.541 171.653C346.631 171.669 346.724 171.661 346.811 171.63C346.897 171.598 346.974 171.544 347.031 171.473C347.602 170.74 347.12 168.04 345.739 164.215C345.419 165.038 345.044 165.837 344.615 166.608C344.303 167.15 343.916 167.646 343.467 168.079L343.478 168.063Z" fill="#3B7CD3"/>
<path d="M347.798 179.675C347.798 179.651 347.319 177.37 342.374 175.029C337.429 172.689 334.064 173.781 334.032 173.793L333.9 173.419C334.041 173.371 337.398 172.222 342.541 174.667C347.685 177.111 348.172 179.508 348.192 179.607L347.798 179.675V179.675Z" fill="#3B7CD3"/>
<path d="M325.635 194.27H325.527C325.354 194.225 325.199 194.131 325.077 194C324.956 193.87 324.874 193.707 324.841 193.533C324.722 193.097 324.704 192.64 324.789 192.197C324.968 191.133 325.587 190.378 326.172 190.482C326.344 190.529 326.499 190.623 326.62 190.753C326.741 190.883 326.822 191.045 326.855 191.22C326.977 191.655 326.996 192.112 326.911 192.555C326.739 193.549 326.192 194.27 325.635 194.27V194.27ZM326.061 190.865C325.75 190.865 325.324 191.411 325.18 192.253C325.107 192.635 325.121 193.03 325.224 193.405C325.307 193.672 325.443 193.844 325.591 193.868C325.909 193.92 326.368 193.366 326.516 192.484C326.593 192.102 326.578 191.708 326.476 191.331C326.392 191.064 326.257 190.893 326.105 190.869L326.061 190.865Z" fill="#3B7CD3"/>
<path d="M339.914 196.364H339.798C339.627 196.317 339.471 196.222 339.351 196.09C339.23 195.96 339.15 195.797 339.116 195.623C338.994 195.188 338.975 194.73 339.061 194.286C339.244 193.225 339.858 192.476 340.449 192.576C340.62 192.623 340.775 192.716 340.895 192.846C341.016 192.977 341.098 193.139 341.13 193.314C341.25 193.749 341.269 194.206 341.186 194.649C341.118 195.097 340.948 195.523 340.688 195.893C340.604 196.027 340.491 196.138 340.357 196.221C340.222 196.302 340.07 196.351 339.914 196.364V196.364ZM340.336 192.959C340.021 192.959 339.599 193.501 339.455 194.346C339.381 194.728 339.395 195.122 339.495 195.499C339.579 195.766 339.714 195.937 339.866 195.961C340.018 195.985 340.201 195.873 340.368 195.647C340.59 195.327 340.734 194.961 340.791 194.577C340.866 194.195 340.852 193.801 340.751 193.425C340.668 193.158 340.532 192.986 340.381 192.962L340.336 192.959Z" fill="#3B7CD3"/>
<path d="M354.839 194.656C354.677 194.645 354.52 194.596 354.382 194.512C354.242 194.428 354.126 194.312 354.041 194.174C353.792 193.799 353.625 193.374 353.551 192.93C353.478 192.485 353.499 192.029 353.615 191.594C353.647 191.419 353.73 191.258 353.851 191.127C353.973 190.997 354.128 190.905 354.3 190.86C354.89 190.756 355.497 191.514 355.676 192.579C355.76 193.023 355.74 193.48 355.616 193.915C355.583 194.09 355.5 194.251 355.379 194.38C355.257 194.51 355.103 194.603 354.931 194.648C354.9 194.654 354.869 194.657 354.839 194.656V194.656ZM354.44 191.247H354.396C354.244 191.275 354.109 191.443 354.025 191.71C353.929 192.086 353.912 192.478 353.976 192.861C354.04 193.245 354.183 193.61 354.396 193.935C354.564 194.162 354.751 194.278 354.898 194.25C355.046 194.222 355.186 194.058 355.27 193.787C355.371 193.413 355.388 193.02 355.318 192.639C355.162 191.81 354.739 191.247 354.428 191.247H354.44Z" fill="#3B7CD3"/>
<path d="M362.221 183.527C361.962 183.527 361.705 183.492 361.455 183.423C360.49 183.173 359.861 182.571 360.012 182.025C360.163 181.478 360.992 181.255 361.958 181.51C362.923 181.766 363.553 182.364 363.401 182.91C363.297 183.304 362.831 183.527 362.221 183.527V183.527ZM361.204 181.805C360.766 181.805 360.446 181.94 360.407 182.124C360.335 182.395 360.805 182.842 361.563 183.038C362.321 183.232 362.951 183.077 363.023 182.806C363.094 182.535 362.623 182.088 361.862 181.892C361.647 181.836 361.426 181.807 361.204 181.805V181.805Z" fill="#3B7CD3"/>
<path d="M362.432 171.473H362.264C361.343 171.421 360.669 170.986 360.693 170.456C360.714 170.304 360.779 170.16 360.879 170.044C360.98 169.926 361.112 169.841 361.26 169.798C361.61 169.654 361.99 169.593 362.368 169.623C363.293 169.675 363.963 170.109 363.939 170.636C363.919 170.789 363.855 170.934 363.754 171.051C363.654 171.168 363.522 171.254 363.373 171.297C363.074 171.418 362.755 171.479 362.432 171.473V171.473ZM362.205 170.014C361.932 170.007 361.66 170.056 361.407 170.157C361.212 170.245 361.088 170.364 361.08 170.476C361.08 170.723 361.575 171.03 362.277 171.07C362.591 171.094 362.907 171.047 363.201 170.931C363.401 170.843 363.521 170.723 363.528 170.612C363.528 170.364 363.034 170.057 362.332 170.018H362.193L362.205 170.014Z" fill="#3B7CD3"/>
<path d="M361.184 161.129H361.016C360.092 161.077 359.421 160.643 359.445 160.116C359.469 159.59 360.195 159.231 361.12 159.283C362.041 159.335 362.715 159.77 362.687 160.296C362.667 160.448 362.604 160.592 362.504 160.71C362.404 160.827 362.273 160.914 362.125 160.958C361.826 161.078 361.506 161.136 361.184 161.129V161.129ZM360.953 159.674C360.323 159.674 359.856 159.905 359.844 160.132C359.832 160.36 360.338 160.69 361.04 160.727C361.357 160.75 361.674 160.703 361.969 160.587C362.165 160.499 362.288 160.383 362.297 160.272C362.297 160.021 361.802 159.714 361.101 159.677L360.953 159.674V159.674Z" fill="#3B7CD3"/>
<path d="M357.248 153.186H357.081C356.156 153.134 355.486 152.699 355.51 152.169C355.531 152.016 355.595 151.873 355.695 151.756C355.796 151.639 355.928 151.555 356.076 151.511C356.427 151.367 356.807 151.307 357.185 151.336C358.11 151.388 358.78 151.822 358.756 152.349C358.736 152.502 358.671 152.646 358.571 152.763C358.471 152.881 358.338 152.967 358.189 153.01C357.891 153.132 357.571 153.191 357.248 153.186ZM357.021 151.726C356.748 151.72 356.478 151.769 356.224 151.87C356.024 151.958 355.904 152.077 355.897 152.189C355.897 152.436 356.391 152.743 357.093 152.783C357.408 152.807 357.725 152.759 358.018 152.643C358.217 152.556 358.337 152.436 358.345 152.325C358.345 152.077 357.85 151.771 357.149 151.73L357.021 151.726Z" fill="#3B7CD3"/>
<path d="M131.913 141.638C131.913 141.638 129.329 141.403 127.599 143.125C126.557 144.158 125.771 145.418 125.302 146.806L187.752 229.88C187.752 229.88 190.348 230.514 195.655 224.935C196.379 224.148 197.046 223.31 197.649 222.427L206.226 214.659L144.745 138.776L131.912 141.638H131.913Z" fill="#5E96FC"/>
<path d="M188.022 230.091C187.915 230.093 187.808 230.084 187.703 230.063L187.631 230.043L187.592 229.987L125.083 146.85L125.11 146.754C125.587 145.331 126.389 144.039 127.455 142.982C129.149 141.303 131.574 141.411 131.897 141.439L144.82 138.556L144.9 138.652L206.504 214.683L197.807 222.559C197.204 223.443 196.537 224.282 195.814 225.071C191.451 229.641 188.879 230.091 188.022 230.091V230.091ZM187.859 229.693C188.285 229.732 190.825 229.721 195.511 224.792C196.235 224.014 196.901 223.186 197.504 222.311L197.537 222.276L205.974 214.635L144.665 138.998L131.925 141.838H131.893C131.869 141.838 129.381 141.634 127.738 143.265C126.751 144.256 125.995 145.453 125.525 146.77L187.859 229.693Z" fill="#3B7CD3"/>
<path d="M213.714 214.487C206.56 219.642 197.88 222.358 197.66 222.423C197.756 222.299 200.483 218.474 184.314 195.765C182.139 192.713 180.049 189.822 178.045 187.092C164.862 169.148 155.056 157.887 146.013 150.278C135.163 141.159 131.912 141.637 131.912 141.637C131.912 141.637 139.365 130.073 152.225 131.545C165.086 133.016 183.396 160.1 187.826 160.865C192.257 161.632 193.011 162.588 192.129 163.382C191.783 163.685 192.763 164.542 194.406 165.806C196.647 167.54 200.12 170.049 203.083 172.984C203.543 173.444 203.987 173.91 204.416 174.383C207.941 178.303 213.527 187.942 216.777 193.747C218.332 196.539 219.349 198.449 219.349 198.449C219.349 198.449 221.191 196.814 222.307 199.118C223.424 201.423 220.964 209.267 213.714 214.487V214.487Z" fill="#92C1FF"/>
<path d="M197.66 222.621C197.628 222.622 197.596 222.615 197.568 222.6C197.54 222.586 197.515 222.564 197.497 222.538C197.473 222.503 197.459 222.462 197.459 222.42C197.459 222.378 197.473 222.337 197.497 222.303C197.524 222.266 200.14 218.351 184.142 195.881C182.048 192.938 179.939 190.023 177.878 187.211C164.754 169.347 154.885 158.007 145.873 150.43C135.302 141.542 131.956 141.837 131.916 141.832C131.879 141.838 131.84 141.832 131.807 141.816C131.772 141.801 131.743 141.775 131.723 141.743C131.703 141.711 131.691 141.675 131.691 141.637C131.691 141.599 131.702 141.562 131.721 141.53C131.797 141.41 139.394 129.858 152.229 131.345C160.5 132.306 170.943 143.679 178.571 151.986C182.742 156.503 186.331 160.403 187.858 160.666C190.845 161.181 192.404 161.81 192.643 162.597C192.683 162.77 192.67 162.954 192.604 163.12C192.539 163.287 192.424 163.429 192.276 163.53C192.204 163.848 193.967 165.204 194.545 165.647L195.741 166.572C198.373 168.501 200.876 170.6 203.234 172.856C203.7 173.323 204.151 173.797 204.57 174.26C208.138 178.224 213.861 188.12 216.955 193.664C218.203 195.9 219.112 197.591 219.416 198.157C219.883 197.806 220.471 197.652 221.051 197.731C221.641 197.846 222.123 198.289 222.49 199.043C223.65 201.436 221.178 209.355 213.833 214.643C206.615 219.826 197.807 222.582 197.719 222.618C197.699 222.623 197.679 222.625 197.659 222.621H197.66ZM132.264 141.45C133.42 141.586 137.248 142.647 146.12 150.123C155.152 157.7 165.041 169.088 178.185 186.976C180.251 189.768 182.36 192.706 184.458 195.65C198.084 214.79 198.379 220.584 197.991 222.099C199.802 221.501 207.294 218.85 213.579 214.327C220.892 209.059 223.093 201.253 222.108 199.226C222.014 198.966 221.861 198.732 221.66 198.54C221.459 198.35 221.217 198.209 220.952 198.13C220.198 197.983 219.468 198.612 219.461 198.616C219.438 198.636 219.411 198.651 219.382 198.66C219.353 198.668 219.322 198.669 219.293 198.664C219.263 198.659 219.235 198.647 219.211 198.629C219.186 198.611 219.167 198.588 219.154 198.561C219.154 198.561 218.121 196.619 216.585 193.863C213.499 188.333 207.793 178.467 204.247 174.531C203.849 174.073 203.39 173.606 202.927 173.143C200.592 170.898 198.112 168.808 195.503 166.887L194.306 165.966C192.484 164.563 191.894 163.972 191.878 163.549C191.875 163.489 191.885 163.43 191.909 163.374C191.932 163.319 191.969 163.27 192.014 163.23C192.225 163.043 192.309 162.867 192.265 162.708C192.186 162.429 191.592 161.707 187.811 161.061C186.141 160.774 182.686 157.014 178.32 152.256C170.744 143.998 160.344 132.685 152.221 131.745C140.761 130.421 133.556 139.668 132.284 141.45H132.264V141.45Z" fill="#3B7CD3"/>
<path d="M187.751 229.881C190.816 227.635 179.409 206.863 162.275 183.486C145.14 160.109 128.765 142.978 125.701 145.225C122.637 147.47 134.043 168.242 151.178 191.619C168.312 214.997 184.687 232.126 187.751 229.881H187.751Z" fill="#92C1FF"/>
<path d="M187.078 230.274C184.518 230.274 179.011 225.09 174.597 220.496C167.683 213.263 159.309 203.047 151.018 191.734C142.728 180.421 135.506 169.359 130.681 160.59C127.24 154.323 123.559 146.539 125.573 145.063C127.587 143.588 133.903 149.449 138.843 154.606C145.758 161.839 154.131 172.055 162.426 183.368C170.72 194.681 177.934 205.743 182.763 214.512C186.208 220.78 189.889 228.563 187.871 230.039C187.64 230.202 187.36 230.285 187.077 230.274H187.078ZM126.387 145.219C126.184 145.211 125.985 145.269 125.817 145.382C124.469 146.371 126.419 151.986 131.04 160.399C135.825 169.172 143.055 180.198 151.337 191.503C159.619 202.807 167.982 213.003 174.884 220.213C181.516 227.156 186.284 230.705 187.645 229.716C189.004 228.727 187.043 223.112 182.425 214.699C177.616 205.926 170.407 194.9 162.125 183.595C153.842 172.29 145.48 162.094 138.597 154.885C132.668 148.712 128.246 145.219 126.388 145.219H126.387Z" fill="#3B7CD3"/>
<path d="M130.318 156.507C130.265 156.52 130.209 156.51 130.163 156.481C130.117 156.453 130.084 156.407 130.072 156.354C130.06 156.301 130.069 156.245 130.098 156.199C130.127 156.153 130.173 156.121 130.226 156.109L135.869 153.162C135.892 153.15 135.918 153.143 135.943 153.141C135.969 153.138 135.996 153.141 136.021 153.149C136.046 153.157 136.069 153.169 136.089 153.187C136.11 153.204 136.126 153.224 136.138 153.247C136.151 153.271 136.158 153.296 136.16 153.322C136.162 153.349 136.16 153.375 136.152 153.4C136.144 153.425 136.131 153.448 136.114 153.468C136.097 153.488 136.077 153.504 136.053 153.517L130.411 156.463C130.385 156.486 130.353 156.502 130.319 156.507H130.318Z" fill="#3B7CD3"/>
<path d="M135.961 166.664C135.926 166.662 135.891 166.653 135.86 166.634C135.83 166.616 135.804 166.59 135.785 166.561C135.761 166.513 135.756 166.459 135.77 166.409C135.785 166.358 135.819 166.315 135.865 166.289L143.633 162.014C143.656 162.001 143.681 161.994 143.706 161.991C143.732 161.988 143.759 161.99 143.784 161.998C143.809 162.005 143.833 162.018 143.853 162.034C143.873 162.05 143.891 162.071 143.903 162.094C143.917 162.117 143.925 162.142 143.928 162.168C143.931 162.193 143.93 162.22 143.922 162.245C143.916 162.271 143.903 162.294 143.887 162.315C143.871 162.336 143.85 162.353 143.827 162.365L136.056 166.64C136.026 166.656 135.994 166.664 135.96 166.664H135.961Z" fill="#3B7CD3"/>
<path d="M141.803 176.294C141.769 176.294 141.737 176.285 141.708 176.269C141.679 176.253 141.654 176.23 141.636 176.202C141.607 176.158 141.597 176.104 141.609 176.052C141.621 176 141.651 175.955 141.695 175.926L150.468 170.236C150.49 170.222 150.514 170.211 150.54 170.207C150.566 170.202 150.593 170.203 150.618 170.208C150.644 170.213 150.668 170.224 150.689 170.239C150.71 170.255 150.728 170.274 150.743 170.296C150.771 170.34 150.782 170.394 150.771 170.446C150.761 170.497 150.73 170.543 150.687 170.571L141.91 176.258C141.879 176.28 141.841 176.292 141.803 176.294V176.294Z" fill="#3B7CD3"/>
<path d="M149.458 186.838C149.426 186.838 149.395 186.828 149.366 186.814C149.337 186.799 149.313 186.777 149.295 186.751C149.266 186.706 149.255 186.654 149.264 186.602C149.274 186.551 149.304 186.505 149.347 186.475L158.02 180.465C158.064 180.437 158.118 180.425 158.169 180.435C158.221 180.444 158.267 180.474 158.298 180.517C158.327 180.561 158.338 180.614 158.329 180.666C158.319 180.717 158.289 180.763 158.246 180.793L149.581 186.802C149.545 186.827 149.501 186.84 149.457 186.838H149.458Z" fill="#3B7CD3"/>
<path d="M155.978 196.463C155.936 196.463 155.895 196.449 155.861 196.424C155.827 196.398 155.803 196.364 155.79 196.323C155.778 196.282 155.779 196.239 155.792 196.199C155.805 196.159 155.831 196.124 155.867 196.1L164.799 190.144C164.844 190.114 164.898 190.103 164.95 190.114C165.001 190.124 165.047 190.155 165.078 190.199C165.107 190.242 165.118 190.296 165.107 190.348C165.096 190.4 165.066 190.445 165.023 190.474L156.083 196.432C156.052 196.453 156.017 196.463 155.979 196.463H155.978Z" fill="#3B7CD3"/>
<path d="M162.406 204.211C162.373 204.211 162.34 204.204 162.31 204.187C162.28 204.171 162.256 204.148 162.239 204.119C162.21 204.075 162.201 204.021 162.212 203.97C162.224 203.918 162.255 203.873 162.299 203.844L171.071 198.333C171.093 198.319 171.118 198.309 171.144 198.304C171.17 198.3 171.197 198.301 171.223 198.306C171.249 198.312 171.273 198.324 171.294 198.339C171.315 198.354 171.333 198.375 171.347 198.398C171.374 198.443 171.382 198.497 171.371 198.547C171.359 198.599 171.328 198.643 171.283 198.672L162.526 204.171C162.492 204.196 162.449 204.21 162.406 204.211V204.211Z" fill="#3B7CD3"/>
<path d="M167.718 211.37C167.682 211.369 167.646 211.359 167.615 211.34C167.585 211.321 167.56 211.294 167.542 211.261C167.53 211.238 167.522 211.213 167.519 211.187C167.517 211.161 167.519 211.135 167.527 211.111C167.535 211.086 167.547 211.063 167.565 211.042C167.582 211.022 167.602 211.006 167.625 210.994L175.385 206.648C175.432 206.623 175.487 206.619 175.537 206.635C175.588 206.651 175.63 206.687 175.655 206.734C175.679 206.781 175.683 206.836 175.667 206.886C175.651 206.936 175.615 206.979 175.568 207.003L167.808 211.35C167.78 211.362 167.748 211.369 167.717 211.37H167.718Z" fill="#3B7CD3"/>
<path d="M173.755 218.053C173.721 218.053 173.688 218.044 173.66 218.028C173.631 218.011 173.606 217.988 173.588 217.961C173.573 217.939 173.564 217.914 173.559 217.888C173.554 217.863 173.555 217.836 173.561 217.81C173.566 217.784 173.578 217.76 173.593 217.739C173.609 217.718 173.629 217.699 173.651 217.686L179.233 214.153C179.279 214.125 179.332 214.116 179.384 214.128C179.436 214.14 179.48 214.171 179.509 214.216C179.537 214.262 179.546 214.316 179.534 214.367C179.522 214.419 179.49 214.464 179.445 214.492L173.862 218.025C173.829 218.044 173.792 218.054 173.755 218.053V218.053Z" fill="#3B7CD3"/>
<path d="M179.353 223.945C179.317 223.945 179.282 223.936 179.251 223.918C179.22 223.899 179.195 223.873 179.177 223.842C179.151 223.796 179.145 223.742 179.159 223.691C179.173 223.64 179.207 223.597 179.253 223.571L183.54 221.198C183.586 221.172 183.64 221.166 183.69 221.18C183.741 221.194 183.784 221.228 183.81 221.274C183.824 221.297 183.832 221.322 183.835 221.348C183.838 221.374 183.837 221.4 183.83 221.425C183.823 221.451 183.81 221.474 183.794 221.496C183.778 221.516 183.758 221.533 183.734 221.545L179.463 223.918C179.431 223.94 179.391 223.949 179.352 223.945H179.353Z" fill="#3B7CD3"/>
<path d="M170.585 191.1C170.392 191.115 170.198 191.088 170.018 191.018C169.837 190.949 169.674 190.841 169.539 190.702C169.193 190.303 169.189 189.645 169.539 188.883C169.939 188.073 170.509 187.359 171.21 186.79C171.889 186.191 172.69 185.746 173.559 185.49C174.357 185.279 175.003 185.386 175.349 185.797C175.696 186.208 175.7 186.854 175.349 187.615C174.51 189.234 173.066 190.456 171.33 191.013C171.086 191.072 170.835 191.102 170.584 191.1H170.585ZM174.297 185.765C174.08 185.769 173.864 185.8 173.655 185.856C172.034 186.387 170.685 187.533 169.898 189.047C169.623 189.649 169.604 190.155 169.843 190.442C170.082 190.73 170.589 190.789 171.23 190.622C172.851 190.09 174.199 188.945 174.987 187.432C175.262 186.826 175.281 186.319 175.042 186.036C174.944 185.94 174.828 185.866 174.699 185.819C174.57 185.773 174.433 185.754 174.296 185.765H174.297Z" fill="#3B7CD3"/>
<path d="M181.766 207.565C181.573 207.58 181.379 207.552 181.199 207.483C181.018 207.414 180.855 207.306 180.722 207.166C180.37 206.767 180.37 206.109 180.722 205.347C181.123 204.538 181.694 203.824 182.397 203.254C183.072 202.651 183.87 202.201 184.737 201.938C185.535 201.727 186.181 201.835 186.532 202.245C186.883 202.656 186.878 203.302 186.532 204.064C185.692 205.682 184.248 206.903 182.512 207.461C182.269 207.525 182.019 207.561 181.766 207.565V207.565ZM185.475 202.229C185.259 202.233 185.044 202.264 184.836 202.321C183.213 202.849 181.862 203.995 181.076 205.511C180.805 206.113 180.785 206.619 181.024 206.907C181.263 207.194 181.766 207.254 182.407 207.086C184.031 206.557 185.38 205.412 186.168 203.897C186.438 203.29 186.459 202.784 186.22 202.501C186.123 202.404 186.005 202.329 185.877 202.283C185.748 202.236 185.611 202.218 185.474 202.229H185.475Z" fill="#3B7CD3"/>
<path d="M191.304 225.254C191.111 225.269 190.917 225.241 190.737 225.173C190.557 225.103 190.393 224.995 190.26 224.855C189.566 224.034 190.299 222.315 191.926 220.939C192.607 220.343 193.408 219.899 194.276 219.639C195.073 219.428 195.715 219.539 196.066 219.95C196.756 220.772 196.026 222.49 194.396 223.862C193.718 224.462 192.917 224.907 192.05 225.166C191.806 225.225 191.556 225.255 191.304 225.254V225.254ZM195.013 219.918C194.798 219.922 194.584 219.953 194.375 220.011C193.566 220.253 192.818 220.67 192.186 221.231C190.774 222.427 190.032 223.954 190.562 224.58C190.801 224.863 191.308 224.931 191.946 224.764C192.756 224.52 193.504 224.103 194.139 223.543C195.547 222.347 196.289 220.82 195.758 220.189C195.661 220.093 195.544 220.018 195.415 219.971C195.287 219.925 195.149 219.907 195.012 219.918H195.013Z" fill="#3B7CD3"/>
<path d="M157.441 173.997C157.247 174.013 157.053 173.985 156.872 173.916C156.691 173.847 156.526 173.739 156.393 173.598C156.043 173.199 156.043 172.541 156.393 171.784C156.793 170.972 157.364 170.256 158.067 169.686C159.694 168.311 161.513 167.876 162.207 168.697C162.901 169.519 162.166 171.234 160.536 172.61C159.455 173.499 158.303 173.997 157.442 173.997H157.441ZM158.319 169.973C157.66 170.505 157.124 171.173 156.748 171.932C156.477 172.534 156.457 173.043 156.696 173.327C157.226 173.953 158.866 173.478 160.285 172.29C161.705 171.102 162.434 169.562 161.903 168.937C161.373 168.311 159.738 168.785 158.315 169.973H158.319Z" fill="#3B7CD3"/>
<path d="M144.668 158.713C144.503 158.724 144.338 158.698 144.184 158.638C144.03 158.577 143.892 158.483 143.779 158.362C143.484 158.015 143.479 157.469 143.779 156.83C144.111 156.158 144.584 155.566 145.166 155.092C146.521 153.952 148.037 153.593 148.619 154.295C149.202 154.997 148.595 156.42 147.243 157.565C146.536 158.222 145.629 158.625 144.667 158.713H144.668ZM147.711 154.327C146.848 154.424 146.039 154.801 145.41 155.399C144.873 155.833 144.436 156.376 144.13 156.994C143.911 157.476 143.895 157.883 144.082 158.107C144.461 158.553 145.713 158.314 146.973 157.25C148.233 156.185 148.68 154.988 148.305 154.542C148.228 154.465 148.134 154.405 148.031 154.368C147.929 154.331 147.819 154.317 147.711 154.327V154.327Z" fill="#3B7CD3"/>
<path d="M131.938 147.005C131.796 147.014 131.656 146.991 131.526 146.938C131.395 146.884 131.278 146.803 131.184 146.698C130.929 146.399 130.925 145.94 131.184 145.402C131.459 144.843 131.852 144.351 132.336 143.959C132.797 143.55 133.341 143.247 133.931 143.069C134.505 142.917 134.956 142.997 135.206 143.297C135.457 143.596 135.466 144.058 135.206 144.596C134.628 145.707 133.635 146.545 132.443 146.929C132.278 146.974 132.108 147 131.937 147.005H131.938ZM132.576 144.265C132.138 144.618 131.782 145.062 131.531 145.565C131.36 145.964 131.344 146.272 131.487 146.443C131.63 146.614 131.95 146.65 132.361 146.542C132.899 146.386 133.395 146.113 133.816 145.745C134.252 145.39 134.608 144.947 134.861 144.445C135.033 144.046 135.048 143.739 134.905 143.567C134.762 143.396 134.442 143.356 134.031 143.464C133.495 143.623 132.998 143.895 132.576 144.261V144.265Z" fill="#3B7CD3"/>
<path d="M213.714 214.488C206.56 219.643 197.88 222.359 197.66 222.422C197.756 222.299 200.483 218.474 184.314 195.765C182.139 192.713 180.049 189.823 178.045 187.093C181.948 186.215 191.204 184.432 199.231 185.147C209.599 186.063 216.558 193.521 216.777 193.76C218.332 196.551 219.349 198.461 219.349 198.461C219.349 198.461 221.191 196.826 222.307 199.131C223.424 201.436 220.963 209.267 213.714 214.488Z" fill="#3B7CD3"/>
<path d="M197.13 222.79L197.504 222.303C197.532 222.268 200.148 218.352 184.15 195.882C182.057 192.938 179.947 190.024 177.886 187.212L177.707 186.965L178.002 186.902C181.675 186.072 191.093 184.225 199.251 184.947C209.359 185.845 216.175 192.827 216.916 193.625L216.972 193.708C218.208 195.925 219.109 197.6 219.413 198.166C219.88 197.814 220.468 197.66 221.048 197.739C221.637 197.855 222.12 198.298 222.487 199.051C223.647 201.444 221.175 209.363 213.829 214.651C206.612 219.835 197.804 222.59 197.715 222.626L197.13 222.79V222.79ZM178.387 187.224C180.381 189.959 182.439 192.807 184.477 195.65C198.102 214.79 198.398 220.585 198.011 222.1C199.822 221.501 207.314 218.85 213.599 214.328C220.911 209.061 223.113 201.253 222.128 199.227C222.034 198.966 221.881 198.732 221.68 198.541C221.48 198.351 221.237 198.21 220.972 198.13C220.218 197.983 219.489 198.613 219.48 198.617L219.289 198.784L219.173 198.561C219.173 198.561 218.141 196.623 216.609 193.879C215.728 192.946 209.052 186.215 199.215 185.342C191.324 184.632 182.228 186.371 178.388 187.224H178.387Z" fill="#3B7CD3"/>
<path d="M203.079 172.996C197.724 172.378 187.269 170.791 185.778 167.736C184.489 165.092 190.164 165.307 194.403 165.805C196.648 167.54 200.121 170.049 203.08 172.996H203.079Z" fill="#3B7CD3"/>
<path d="M203.634 173.264L203.064 173.195C197.186 172.518 187.113 170.914 185.602 167.824C185.464 167.606 185.39 167.353 185.39 167.095C185.39 166.836 185.464 166.583 185.602 166.365C186.38 165.269 189.35 165.013 194.423 165.607H194.479L194.522 165.639L195.719 166.565C198.35 168.493 200.853 170.593 203.211 172.849L203.634 173.264ZM189.865 165.687C187.715 165.687 186.356 165.991 185.933 166.589C185.838 166.749 185.79 166.934 185.795 167.12C185.8 167.308 185.858 167.489 185.96 167.645C187.38 170.552 197.592 172.123 202.529 172.721C200.303 170.641 197.957 168.693 195.503 166.887C195.105 166.572 194.706 166.278 194.343 165.998C192.857 165.814 191.362 165.712 189.865 165.695V165.687V165.687Z" fill="#3B7CD3"/>
</g>
<path d="M10.2821 104.864L9.20627 97.6098L25.567 60.68L31.6159 59.7829L33.1476 70.1103L29.4592 70.6573L18.4553 95.5847L18.5136 95.9781L48.3401 91.5545L49.4523 99.0542L10.2821 104.864ZM35.6913 110.644L33.9773 99.0876L33.5943 95.8273L28.321 60.2716L36.9271 58.9952L44.3958 109.353L35.6913 110.644ZM77.4504 105.431C73.4014 106.032 69.7742 105.523 66.5688 103.904C63.3774 102.266 60.7149 99.6204 58.5814 95.9663C56.4619 92.2934 54.9949 87.7111 54.1804 82.2196C53.3824 76.7256 53.4681 71.9382 54.4377 67.8574C55.4212 63.7578 57.2048 60.4777 59.7885 58.0171C62.3885 55.5541 65.7048 54.0235 69.7374 53.4254C73.77 52.8274 77.3878 53.3295 80.5908 54.9319C83.7937 56.5343 86.4526 59.1555 88.5672 62.7956C90.6983 66.4333 92.1698 70.9898 92.9819 76.4649C93.7988 81.9729 93.7179 86.793 92.7392 90.9254C91.7745 95.039 89.9933 98.3355 87.3957 100.815C84.8145 103.292 81.4994 104.831 77.4504 105.431ZM76.309 97.7348C79.4564 97.268 81.7101 95.3506 83.0702 91.9825C84.4442 88.5956 84.6827 83.8777 83.7856 77.8288C83.1924 73.829 82.276 70.5305 81.0364 67.9333C79.7967 65.3361 78.3126 63.4621 76.5838 62.3112C74.8527 61.1439 72.9461 60.7147 70.8643 61.0235C67.7333 61.4878 65.4889 63.4122 64.1313 66.7967C62.7712 70.1648 62.5279 74.8499 63.4013 80.852C63.9806 84.8707 64.883 88.188 66.1087 90.804C67.3507 93.4176 68.8373 95.308 70.5685 96.4753C72.2972 97.6262 74.2107 98.046 76.309 97.7348ZM102.583 91.1743L101.507 83.9206L117.868 46.9908L123.917 46.0937L125.449 56.4211L121.76 56.9681L110.756 81.8955L110.815 82.2889L140.641 77.8653L141.753 85.365L102.583 91.1743ZM127.992 96.9552L126.278 85.3984L125.895 82.1381L120.622 46.5824L129.228 45.306L136.697 95.6642L127.992 96.9552Z" fill="#B7D6FF"/>
<path d="M7.46103 106.293L6.38522 99.0391L22.746 62.1093L28.7949 61.2122L30.3265 71.5396L26.6382 72.0866L15.6342 97.014L15.6926 97.4074L45.519 92.9838L46.6313 100.483L7.46103 106.293ZM32.8703 112.074L31.1563 100.517L30.7732 97.2566L25.5 61.7009L34.1061 60.4245L41.5748 110.783L32.8703 112.074ZM74.6294 106.86C70.5804 107.461 66.9532 106.952 63.7478 105.333C60.5563 103.696 57.8939 101.05 55.7604 97.3956C53.6408 93.7227 52.1738 89.1404 51.3594 83.6489C50.5613 78.1549 50.6471 73.3675 51.6167 69.2867C52.6002 65.1871 54.3838 61.907 56.9674 59.4464C59.5675 56.9834 62.8838 55.4528 66.9164 54.8547C70.949 54.2567 74.5667 54.7588 77.7697 56.3612C80.9727 57.9635 83.6315 60.5848 85.7462 64.2249C87.8773 67.8626 89.3488 72.4191 90.1608 77.8942C90.9777 83.4021 90.8968 88.2223 89.9181 92.3547C88.9534 96.4683 87.1723 99.7648 84.5747 102.244C81.9935 104.721 78.6784 106.26 74.6294 106.86ZM73.4879 99.1641C76.6353 98.6973 78.889 96.7799 80.2491 93.4118C81.6232 90.0249 81.8617 85.307 80.9645 79.2581C80.3713 75.2583 79.4549 71.9598 78.2153 69.3626C76.9757 66.7654 75.4915 64.8914 73.7628 63.7405C72.0316 62.5732 70.1251 62.144 68.0432 62.4527C64.9122 62.9171 62.6679 64.8415 61.3102 68.226C59.9502 71.5941 59.7068 76.2792 60.5803 82.2813C61.1595 86.3 62.062 89.6173 63.2876 92.2333C64.5296 94.8469 66.0162 96.7373 67.7474 97.9046C69.4762 99.0555 71.3897 99.4753 73.4879 99.1641ZM99.762 92.6036L98.6862 85.3499L115.047 48.4201L121.096 47.523L122.627 57.8504L118.939 58.3974L107.935 83.3248L107.994 83.7182L137.82 79.2946L138.932 86.7943L99.762 92.6036ZM125.171 98.3845L123.457 86.8277L123.074 83.5673L117.801 48.0117L126.407 46.7353L133.876 97.0935L125.171 98.3845Z" fill="#3B7CD3"/>
<defs>
<clipPath id="clip0_362_260">
<rect width="240.001" height="230.275" fill="white" transform="translate(125)"/>
</clipPath>
</defs>
</svg>
