<svg width="240" height="231" viewBox="0 0 240 231" fill="none" xmlns="http://www.w3.org/2000/svg">
<g clip-path="url(#clip0_72_799)">
<path d="M62.6716 59.4975L96.1838 111.201L98.2891 110.344L64.7213 58.7478L62.6716 59.4975Z" fill="#3B7CD3"/>
<path d="M96.1033 111.447L96.015 111.308L62.3684 59.397L64.8011 58.508L64.8884 58.6395L98.583 110.439L96.1033 111.447ZM62.9742 59.6091L96.2588 110.961L97.9897 110.26L64.6369 58.9909L62.9742 59.6091Z" fill="#3B7CD3"/>
<path d="M64.7222 58.7474L66.4848 58.0294L99.6264 109.03L98.29 110.342L64.7231 58.7465L64.7222 58.7474Z" fill="#DEECFF"/>
<path d="M98.2533 110.658L64.4224 58.6561L66.5632 57.7824L66.6506 57.9216L99.8834 109.064L98.2523 110.658H98.2533ZM65.0205 58.8433L98.3205 110.032L99.3698 109.003L66.4077 58.2768L65.0205 58.8433Z" fill="#3B7CD3"/>
<path d="M56.1474 24.8008C45.5047 8.99031 32.4091 -0.819121 26.9025 2.86925C21.3958 6.55763 25.5584 22.4084 36.206 38.2151C46.8525 54.0217 59.9442 63.8398 65.4509 60.1264C70.9585 56.4141 66.7747 40.6113 56.1474 24.8008ZM63.4406 54.0419C61.2115 55.6365 48.3991 46.2821 40.0969 33.9488C31.7947 21.6155 28.6324 8.63126 31.0651 6.88884C33.4978 5.14641 45.3126 12.7104 53.6149 25.0446C61.9171 37.3779 67.3719 51.2271 63.4204 54.0428H63.4406V54.0419Z" fill="#3B7CD3"/>
<path d="M62.6313 61.1285C59.9835 61.1285 56.5505 59.6136 52.6145 56.6664C47.0714 52.5153 41.1778 46.0073 36.0177 38.3435C25.328 22.4649 21.1807 6.48642 26.7709 2.71837C32.361 -1.04969 45.6083 8.81542 56.2788 24.6902C66.9494 40.565 71.1168 56.5435 65.5257 60.3116C64.6646 60.8684 63.6556 61.1535 62.6303 61.1285H62.6313ZM29.7018 2.29116C28.7437 2.26716 27.801 2.53116 26.9946 3.04861C21.583 6.69379 25.7984 22.4246 36.3499 38.1199C41.486 45.7481 47.3478 52.2196 52.8545 56.3467C58.3611 60.4738 62.7321 61.7218 65.3241 59.9794C70.7271 56.3342 66.5203 40.6034 55.9649 24.912C46.889 11.4315 36.0187 2.29116 29.7018 2.29116ZM62.7474 54.4132C62.5737 54.4123 62.3999 54.3959 62.229 54.3652C58.3054 53.6519 47.4035 45.1942 39.8981 34.06C31.4442 21.5068 28.4259 8.53893 30.9335 6.72547C31.3319 6.44226 31.9146 6.37026 32.6884 6.51042C36.7195 7.22467 46.5453 14.1982 53.7713 24.9331C61.8738 36.9678 67.728 51.2077 63.525 54.202C63.2946 54.3518 63.022 54.4257 62.7474 54.4132ZM32.003 6.84163C31.714 6.82339 31.427 6.89635 31.1812 7.04899C28.8522 8.7319 32.0548 21.6758 40.2408 33.8372C47.6781 44.8832 58.4398 53.2689 62.3001 53.9707C62.6341 54.0686 62.9942 54.0359 63.3052 53.8785C66.8419 51.3623 62.4239 38.4789 53.4516 25.1683C46.2736 14.5256 36.5918 7.62308 32.6279 6.91267C32.4215 6.87139 32.2122 6.84643 32.002 6.84067L32.003 6.84163Z" fill="#3B7CD3"/>
<g opacity="0.5">
<path d="M63.5964 60.929L96.1832 111.2L98.2885 110.343L65.6221 60.135L63.5964 60.929Z" fill="#3B7CD3"/>
<path d="M96.1827 111.401C96.1491 111.401 96.1165 111.392 96.0877 111.376C96.0579 111.36 96.033 111.337 96.0157 111.309L63.4289 61.0376C63.4126 61.0127 63.403 60.9848 63.3992 60.956C63.3953 60.9272 63.3992 60.8975 63.4088 60.8696C63.4174 60.8408 63.4318 60.8149 63.452 60.7928C63.4721 60.7707 63.4971 60.7534 63.5249 60.7429L65.5467 59.9451C65.5899 59.9298 65.637 59.9288 65.6811 59.9422C65.7253 59.9557 65.7637 59.9835 65.7906 60.021L98.4522 110.233C98.4704 110.256 98.481 110.283 98.4858 110.313C98.4896 110.342 98.4867 110.372 98.4762 110.4C98.4685 110.428 98.4531 110.453 98.433 110.475C98.4138 110.497 98.3888 110.513 98.361 110.523L96.2557 111.381C96.2336 111.393 96.2086 111.4 96.1837 111.401H96.1827ZM63.8993 61.0175L96.2585 110.946L97.9895 110.244L65.5419 60.379L63.8993 61.0175Z" fill="#3B7CD3"/>
</g>
<g opacity="0.5">
<path d="M56.1493 24.8008C45.5057 8.99028 32.4111 -0.819152 26.9035 2.86922C21.3968 6.5576 25.5594 22.4084 36.206 38.215C46.8526 54.0217 59.9443 63.8397 65.4509 60.1274C70.9576 56.415 66.7748 40.6122 56.1484 24.8008H56.1493ZM63.4426 54.0418C61.2134 55.6364 48.4011 46.282 40.0989 33.9487C31.7966 21.6154 28.6344 8.63123 31.067 6.88881C33.4997 5.14638 45.3146 12.7103 53.6168 25.0446C61.919 37.3779 67.3738 51.2271 63.4224 54.0428H63.4426V54.0418Z" fill="#3B7CD3"/>
<path d="M62.632 61.1276C59.9843 61.1276 56.5513 59.6127 52.6152 56.6655C47.0721 52.5144 41.1786 46.0065 36.0185 38.3427C25.3287 22.464 21.1815 6.48554 26.7716 2.71748C32.3618 -1.05058 45.609 8.81453 56.2796 24.6893C66.9501 40.5641 71.1176 56.5426 65.5264 60.3107C64.6653 60.8675 63.6563 61.1526 62.631 61.1276H62.632ZM29.7025 2.29027C28.7444 2.26627 27.8017 2.53028 26.9953 3.04773C21.5837 6.6929 25.7991 22.4237 36.3506 38.119C41.4867 45.7472 47.3486 52.2187 52.8552 56.3458C58.3619 60.4729 62.7328 61.7209 65.3248 59.9785C70.7278 56.3333 66.521 40.6025 55.9657 24.9111C46.8897 11.4306 36.0194 2.29027 29.7025 2.29027ZM62.7482 54.4123C62.5744 54.4114 62.4006 54.3951 62.2298 54.3643C58.3062 53.651 47.4042 45.1933 39.8989 34.0591C31.445 21.5059 28.4267 8.53805 30.9342 6.72458C31.3326 6.44138 31.9154 6.36938 32.6891 6.50954C36.7202 7.22379 46.546 14.1973 53.772 24.9322C61.8745 36.967 67.7287 51.2069 63.5258 54.2011C63.2954 54.3509 63.0227 54.4248 62.7482 54.4123ZM32.0037 6.84074C31.7147 6.8225 31.4277 6.89546 31.1819 7.04811C28.8529 8.73101 32.0555 21.6749 40.2416 33.8363C47.6788 44.8823 58.4406 53.268 62.3008 53.9698C62.6349 54.0677 62.9949 54.035 63.3059 53.8776C66.8426 51.3614 62.4246 38.478 53.4523 25.1674C46.2743 14.5247 36.5926 7.62219 32.6287 6.91178C32.4223 6.8705 32.213 6.84554 32.0027 6.83978L32.0037 6.84074Z" fill="#3B7CD3"/>
</g>
<path d="M60.2041 55.7291C54.8645 56.4146 47.6231 49.1933 40.1465 39.6393C31.107 28.0749 28.6023 19.382 27.7853 13.764C26.9684 8.146 31.0715 6.88934 31.0715 6.88934C28.6551 8.63177 31.7771 21.6198 40.0831 33.9493C48.3892 46.2787 61.1977 55.6254 63.4268 54.0424C64.0969 53.5633 64.4953 52.7704 64.6595 51.7172L64.7392 51.8286C64.7392 51.8286 65.5446 55.0341 60.205 55.7282L60.2041 55.7291Z" fill="#DEECFF"/>
<path d="M59.4735 55.9755C54.8395 55.9755 48.6157 50.7914 39.9862 39.758C32.8686 30.6666 28.8212 22.1724 27.5809 13.7905C26.7437 8.07654 30.962 6.70852 31.0062 6.697L32.1582 6.3418L31.1809 7.04741C28.8519 8.73031 32.0545 21.6742 40.2406 33.8366C47.6778 44.8825 58.4396 53.2683 62.2998 53.97C62.6339 54.068 62.9939 54.0353 63.3049 53.8788C63.9107 53.4478 64.2976 52.7105 64.4531 51.6852L64.5251 51.2148L64.9235 51.7774C64.9945 52.146 64.9897 52.5243 64.911 52.891C64.8323 53.2577 64.6806 53.6043 64.4646 53.9105C63.735 54.979 62.3075 55.6568 60.2213 55.9285C59.9727 55.9601 59.7221 55.9765 59.4716 55.9765L59.4735 55.9755ZM30.4407 7.39109C29.3482 8.01702 27.3898 9.72393 27.9764 13.7358C29.1966 22.0419 33.2277 30.4833 40.302 39.5151C49.3098 51.0276 55.6306 56.1195 60.1762 55.5329C62.1385 55.2776 63.47 54.6593 64.1363 53.6945C64.2438 53.5361 64.3331 53.3662 64.4032 53.1886C64.2006 53.5918 63.902 53.9393 63.5334 54.2014C63.3376 54.3128 63.1215 54.3848 62.8979 54.4126C62.6742 54.4404 62.4467 54.4241 62.2297 54.3646C58.3061 53.6503 47.4042 45.1936 39.8988 34.0593C32.1505 22.5353 28.9729 10.6599 30.4407 7.39013V7.39109Z" fill="#3B7CD3"/>
<path d="M66.472 59.6969C66.2204 59.8034 65.9603 59.8898 65.6943 59.9522C69.4509 54.8997 65.9699 39.4204 56.124 24.8013C45.6012 9.17033 32.6852 -0.595901 27.071 2.76991C27.5002 2.15166 28.0407 1.61789 28.6656 1.19837C35.1889 -3.11594 47.9178 6.78085 58.477 22.767C69.0362 38.7532 75.1246 55.4776 66.472 59.6959V59.6969Z" fill="#DEECFF"/>
<path d="M65.2554 60.2188L65.5347 59.8204C69.0676 55.0712 66.0647 39.902 55.9644 24.9009C45.5972 9.48879 32.6773 -0.364805 27.1745 2.92516L26.3767 3.41573L26.9268 2.61796C27.378 1.98819 27.9415 1.4477 28.5895 1.02338C34.9698 -3.18725 47.6103 5.90793 58.6802 22.6477C67.8081 36.4489 72.1896 48.5671 70.4116 55.1029C70.1658 56.1311 69.6935 57.0921 69.0302 57.9148C68.3668 58.7375 67.5277 59.4028 66.5754 59.8607L66.488 59.6812L66.5754 59.8607C66.3047 59.9788 66.0253 60.0719 65.7383 60.1401L65.2554 60.2198V60.2188ZM29.706 1.89987C36.214 1.89987 47.0804 10.9998 56.2956 24.6887C60.9334 31.5787 64.4538 39.1196 66.2048 45.9146C67.7716 51.9953 67.7524 56.9289 66.1693 59.6006L66.3843 59.5171C67.2848 59.0802 68.0769 58.4486 68.7038 57.669C69.3316 56.8895 69.778 55.9804 70.0122 55.0069C71.7595 48.5988 67.3972 36.5881 58.3327 22.8791C47.3876 6.33418 34.966 -2.713 28.7931 1.34594C28.4273 1.58882 28.0903 1.87203 27.7879 2.19171C28.4052 1.98435 29.0542 1.88547 29.706 1.90083V1.89987Z" fill="#3B7CD3"/>
<path d="M105.961 40.9269V41.9118C105.961 42.5695 104.582 42.965 104.582 42.965L101.606 42.3871L98.4164 44.4808L90.2533 40.2059C89.2559 39.9688 88.3199 39.5243 87.5058 38.9012C86.6907 38.2792 86.0158 37.4929 85.5243 36.5924C83.8174 33.506 87.4943 32.1303 87.4943 32.1303C87.4943 32.1303 86.8367 30.8822 88.4792 29.1715C88.8901 28.6924 89.4517 28.367 90.0719 28.2489C90.6921 28.1299 91.3334 28.2249 91.8931 28.5177C91.8931 28.5177 92.8771 26.4124 96.6182 26.3481C100.358 26.2847 99.7719 30.8822 99.7719 30.8822C100.326 30.4829 100.973 30.2313 101.651 30.1517C102.328 30.071 103.016 30.1651 103.648 30.4234C105.75 31.3402 104.565 34.6897 104.565 34.6897C104.565 34.6897 106.73 34.8173 107.719 37.4487C108.709 40.0801 105.961 40.9259 105.961 40.9259V40.9269Z" fill="#5E96FC"/>
<path d="M98.4158 44.6679C98.3832 44.6679 98.3524 44.6602 98.3236 44.6439L90.201 40.3968C89.1795 40.1539 88.2214 39.6989 87.3881 39.0605C86.5548 38.4221 85.8646 37.6157 85.3644 36.6921C85.1244 36.3168 84.9718 35.8924 84.9161 35.4499C84.8614 35.0073 84.9055 34.559 85.0457 34.1356C85.4998 32.9116 86.7756 32.2377 87.2547 32.0178C87.1232 31.5752 86.9916 30.4424 88.351 29.0312C88.7686 28.5445 89.3312 28.2037 89.9562 28.0606C90.5811 27.9176 91.2359 27.9781 91.8243 28.2334C92.1632 27.7073 93.4189 26.1838 96.6331 26.1281C97.0823 26.0955 97.5336 26.1636 97.9531 26.3278C98.3726 26.492 98.7499 26.7483 99.0581 27.0776C99.9912 28.1221 100.047 29.7253 100.019 30.4751C100.576 30.1419 101.203 29.9451 101.851 29.9C102.498 29.8559 103.146 29.9653 103.743 30.2197C105.677 31.0655 105.079 33.7007 104.844 34.5062C105.466 34.6262 107.089 35.1446 107.922 37.3574C108.075 37.703 108.155 38.0774 108.155 38.4557C108.155 38.8339 108.075 39.2083 107.922 39.5539C107.536 40.2432 106.917 40.7722 106.176 41.0448V41.8906C106.176 42.6884 104.808 43.0868 104.652 43.1348C104.622 43.1425 104.591 43.1425 104.561 43.1348L101.641 42.5722L98.5435 44.666C98.5022 44.6785 98.4571 44.6785 98.4158 44.666V44.6679ZM90.5965 28.3784C90.2211 28.3851 89.8515 28.4715 89.5117 28.6299C89.1718 28.7883 88.8685 29.0168 88.6217 29.3C87.1107 30.8706 87.6454 31.9794 87.6694 32.0274C87.6819 32.0524 87.6886 32.0812 87.6886 32.109C87.6886 32.1369 87.6819 32.1657 87.6694 32.1906C87.6598 32.2165 87.6435 32.2405 87.6243 32.2597C87.6041 32.2789 87.5801 32.2933 87.5532 32.3029C87.5532 32.3029 85.8828 32.949 85.3961 34.269C85.278 34.6377 85.2434 35.0265 85.2934 35.4105C85.3442 35.7936 85.4786 36.1612 85.687 36.4867C86.167 37.3584 86.8227 38.1206 87.6128 38.7254C88.4029 39.3302 89.3101 39.7642 90.2768 39.9994L90.3373 40.0195L98.4158 44.2705L101.471 42.2448C101.492 42.2304 101.516 42.2199 101.541 42.2141C101.567 42.2084 101.592 42.2084 101.617 42.2132L104.569 42.7834C104.967 42.6519 105.765 42.3053 105.765 41.9338V40.9488C105.765 40.9066 105.778 40.8643 105.803 40.8298C105.828 40.7952 105.864 40.7703 105.905 40.7568C106.597 40.5235 107.183 40.0483 107.551 39.4166C107.683 39.121 107.751 38.8013 107.751 38.4777C107.751 38.1542 107.683 37.8345 107.551 37.5389C106.626 35.0707 104.656 34.9151 104.572 34.9113C104.542 34.9103 104.512 34.9017 104.486 34.8863C104.459 34.871 104.437 34.8499 104.421 34.8239C104.403 34.799 104.393 34.7692 104.389 34.7395C104.384 34.7087 104.387 34.678 104.397 34.6492C104.397 34.6175 105.494 31.4591 103.6 30.6258C103 30.3858 102.35 30.2994 101.708 30.3752C101.066 30.4511 100.454 30.6863 99.9269 31.0607C99.8942 31.0828 99.8549 31.0952 99.8155 31.0952C99.7761 31.0952 99.7368 31.0837 99.7041 31.0607C99.6705 31.0415 99.6437 31.0127 99.6264 30.9772C99.6091 30.9426 99.6024 30.9032 99.6081 30.8648C99.6081 30.8408 99.8789 28.604 98.7749 27.3713C98.5032 27.0862 98.1729 26.8654 97.8062 26.7243C97.4385 26.5832 97.0449 26.5246 96.6532 26.5544C93.0964 26.6139 92.1114 28.5877 92.1037 28.6078C92.0912 28.6328 92.0739 28.6549 92.0528 28.6731C92.0317 28.6914 92.0067 28.7038 91.9799 28.7115C91.9549 28.7221 91.9271 28.7278 91.9002 28.7278C91.8733 28.7278 91.8455 28.7221 91.8205 28.7115C91.4519 28.5032 91.0352 28.3938 90.6118 28.3928L90.5965 28.3813V28.3784Z" fill="#5E96FC"/>
<path d="M105.961 40.9274V41.9124C105.961 42.57 104.386 43.1403 104.386 43.1403L101.594 42.3866C101.594 42.3866 103.732 42.0199 104.31 41.6494C104.487 41.513 104.631 41.3374 104.727 41.1358C104.824 40.9341 104.873 40.7124 104.869 40.4887C105.661 39.7284 106.224 38.7616 106.495 37.697C106.815 36.1024 104.593 34.6902 104.593 34.6902C104.593 34.6902 106.758 34.8179 107.748 37.4493C108.736 40.0807 105.961 40.9265 105.961 40.9265V40.9274Z" fill="#3B7CD3"/>
<path d="M90.8399 40.3164C90.8399 40.3164 86.9441 38.55 88.3918 35.9541C89.4162 34.1157 89.9384 38.1189 91.2383 38.4021C92.5391 38.6853 91.8364 40.0332 91.8364 40.0332L90.8399 40.3164Z" fill="#3B7CD3"/>
<path d="M109.522 55.3182C106.228 57.1643 103.329 53.7706 103.329 53.7706C103.209 53.0305 103.048 52.297 102.851 51.5732C102.564 50.5364 102.145 49.3882 101.582 48.7344C101.084 48.1478 100.442 48.072 99.6999 48.2237C98.664 48.431 97.4275 49.0848 96.0873 49.4199C93.791 50.018 92.9414 46.2739 92.4988 45.3763C92.0562 44.4787 91.2508 44.9779 90.0623 43.678C88.8738 42.3782 90.7525 38.0955 90.7525 38.0955C91.0828 38.3269 91.437 38.5237 91.8086 38.6821C92.6063 39.0805 95.2464 37.3419 96.2947 37.4418C97.344 37.5416 97.5946 42.3868 98.4922 42.2265C99.3898 42.0671 98.2128 40.2325 98.4605 39.0882C98.7072 37.9438 101.399 36.3406 102.89 37.892C105.378 40.4716 102.89 42.6335 102.89 42.6335L112.425 45.8236C112.425 45.8236 114.395 52.5869 109.522 55.3182Z" fill="#DEECFF"/>
<path d="M107.499 56.064C105.059 56.064 103.197 53.927 103.176 53.8992C103.152 53.8704 103.136 53.8368 103.129 53.7993C103.01 53.0669 102.852 52.3411 102.654 51.6259V51.598C102.435 50.6121 102.02 49.6809 101.434 48.8582C101.036 48.3916 100.517 48.2524 99.7396 48.4117C99.1521 48.5538 98.578 48.743 98.0212 48.9782C97.4068 49.2278 96.778 49.4409 96.1386 49.6166C94.0736 50.1551 93.1079 47.5554 92.5895 46.1557C92.4819 45.8687 92.3907 45.621 92.3149 45.4703C92.2333 45.3195 92.12 45.189 91.9818 45.0872C91.8445 44.9855 91.6851 44.9163 91.5171 44.8837C90.8912 44.6821 90.3315 44.3144 89.8985 43.819C88.6304 42.4395 90.4726 38.1924 90.5523 38.0129C90.5638 37.9841 90.583 37.9591 90.6061 37.9389C90.6301 37.9188 90.6579 37.9044 90.6877 37.8967C90.7174 37.89 90.7482 37.89 90.7779 37.8967C90.8077 37.9034 90.8355 37.9169 90.8595 37.9361C91.1782 38.1569 91.519 38.345 91.8762 38.4986C92.2314 38.6657 93.2039 38.2596 94.0612 37.9005C94.9184 37.5415 95.7556 37.1911 96.2942 37.2391C96.9719 37.3025 97.2993 38.5946 97.6459 39.9627C97.8292 40.6923 98.1729 42.0401 98.4436 42.0401C98.4705 42.0392 98.4974 42.0315 98.5204 42.018C98.5444 42.0046 98.5646 41.9864 98.579 41.9643C98.6951 41.7924 98.579 41.2827 98.4475 40.8315C98.2526 40.2603 98.1863 39.6526 98.2526 39.0526C98.4119 38.3105 99.3844 37.4858 100.469 37.1786C100.905 37.025 101.376 36.9981 101.827 37.1009C102.277 37.2036 102.69 37.4301 103.017 37.7565C103.383 38.0926 103.676 38.5015 103.875 38.9566C104.075 39.4116 104.178 39.9031 104.178 40.4004C104.119 41.202 103.788 41.9604 103.241 42.5499L112.472 45.6363C112.503 45.6469 112.53 45.6651 112.553 45.6882C112.575 45.7122 112.591 45.741 112.6 45.7717C112.624 45.8399 114.565 52.7145 109.612 55.4938C108.969 55.8624 108.242 56.0583 107.499 56.064ZM103.512 53.6717C103.863 54.0701 106.463 56.7898 109.418 55.1309C113.78 52.6867 112.46 46.8085 112.245 45.9599L102.802 42.8254C102.768 42.8158 102.737 42.7966 102.714 42.7697C102.69 42.7438 102.672 42.7112 102.666 42.6766C102.659 42.6421 102.662 42.6056 102.673 42.572C102.686 42.5384 102.707 42.5086 102.734 42.4865C103.324 41.9326 103.691 41.1828 103.767 40.3774C103.764 39.9358 103.669 39.4999 103.488 39.0967C103.308 38.6935 103.046 38.3326 102.719 38.0359C102.438 37.7652 102.089 37.578 101.709 37.4954C101.328 37.4129 100.932 37.4369 100.565 37.5655C99.5486 37.8525 98.7431 38.61 98.627 39.1409C98.5819 39.6804 98.6481 40.2228 98.8228 40.7355C98.9784 41.3412 99.1099 41.8635 98.9025 42.187C98.8574 42.2542 98.7988 42.3118 98.7297 42.3541C98.6616 42.3963 98.5838 42.4241 98.5032 42.4337C97.8811 42.5297 97.6065 41.4449 97.2551 40.0654C97.0161 39.1121 96.6494 37.673 96.2548 37.6404C95.8593 37.6087 95.002 37.9389 94.2128 38.2702C93.1837 38.6964 92.2189 39.1034 91.7005 38.8606C91.3981 38.7223 91.1034 38.5668 90.8192 38.394C90.2806 39.6977 89.3321 42.6209 90.1856 43.5502C90.5763 43.9995 91.0842 44.3317 91.6525 44.5112C91.8675 44.563 92.0682 44.661 92.2419 44.7992C92.4147 44.9375 92.5549 45.1112 92.6538 45.309C92.7373 45.476 92.8295 45.7074 92.9447 46.0309C93.4554 47.4028 94.304 49.6914 96.0234 49.2489C96.6474 49.0732 97.2609 48.863 97.8619 48.6191C98.4407 48.3772 99.0379 48.1833 99.6475 48.0373C100.012 47.925 100.401 47.9193 100.769 48.021C101.136 48.1228 101.467 48.3282 101.721 48.6114C102.212 49.1855 102.65 50.1667 103.03 51.5308V51.5587C103.32 52.5475 103.476 53.4403 103.516 53.6841L103.512 53.6726V53.6717Z" fill="#3B7CD3"/>
<path d="M99.2449 40.4958C99.1921 40.4958 99.1412 40.4747 99.1037 40.4372C99.0663 40.3998 99.0452 40.3489 99.0452 40.2961C99.0452 40.2241 99.0769 38.5057 100.465 38.139C100.76 38.0305 101.081 38.0238 101.38 38.1198C101.678 38.2158 101.936 38.4087 102.111 38.6689C102.124 38.6919 102.133 38.7169 102.135 38.7428C102.138 38.7687 102.135 38.7956 102.128 38.8206C102.121 38.8455 102.109 38.8695 102.092 38.8897C102.076 38.9099 102.055 38.9271 102.032 38.9396C102.009 38.9521 101.984 38.9598 101.958 38.9626C101.932 38.9655 101.905 38.9627 101.88 38.9559C101.855 38.9483 101.831 38.9367 101.811 38.9195C101.791 38.9031 101.774 38.883 101.761 38.8599C101.761 38.8398 101.426 38.2935 100.565 38.521C99.4724 38.8119 99.4445 40.2836 99.4445 40.3C99.4445 40.3259 99.4388 40.3518 99.4292 40.3758C99.4186 40.3998 99.4042 40.4219 99.386 40.4401C99.3668 40.4584 99.3447 40.4728 99.3207 40.4824C99.2967 40.492 99.2708 40.4968 99.2449 40.4958Z" fill="#3B7CD3"/>
<path d="M101.123 40.6801H101.083C100.828 40.6148 100.588 40.4996 100.378 40.3412C100.043 40.0897 100.293 39.7508 100.441 39.5434C100.566 39.4013 100.656 39.2324 100.704 39.049C100.704 39.001 100.704 38.9809 100.685 38.9693C100.495 38.8657 100.276 38.8282 100.063 38.8618C100.01 38.8657 99.9583 38.8484 99.917 38.8157C99.8767 38.7821 99.8498 38.7351 99.8431 38.6823C99.8383 38.6295 99.8546 38.5767 99.8882 38.5364C99.9218 38.4951 99.9698 38.4692 100.023 38.4634C100.359 38.4164 100.699 38.4989 100.976 38.6948C101.025 38.7476 101.062 38.8109 101.083 38.8801C101.106 38.9492 101.11 39.0221 101.1 39.0941C101.045 39.3418 100.93 39.5722 100.765 39.7642C100.701 39.8381 100.65 39.9217 100.613 40.0119C100.78 40.131 100.968 40.2193 101.167 40.2711C101.22 40.2769 101.269 40.3038 101.301 40.345C101.335 40.3863 101.35 40.4391 101.345 40.4919C101.339 40.5447 101.312 40.5937 101.271 40.6263C101.229 40.6599 101.177 40.6753 101.123 40.6695V40.681V40.6801Z" fill="#3B7CD3"/>
<path d="M94.0295 46.4896C93.9239 46.4915 93.8183 46.481 93.7146 46.4579C93.6627 46.4445 93.6186 46.4119 93.5908 46.3667C93.5639 46.3216 93.5552 46.2669 93.5668 46.2151C93.5735 46.1891 93.585 46.1661 93.6003 46.145C93.6167 46.1239 93.6359 46.1066 93.6589 46.0931C93.681 46.0797 93.706 46.0711 93.7328 46.0672C93.7588 46.0634 93.7847 46.0653 93.8106 46.072C94.0429 46.1075 94.281 46.0903 94.5056 46.0211C94.7303 45.952 94.9376 45.833 95.1104 45.6736C95.7364 45.1389 95.314 43.8313 95.3092 43.8198C95.2929 43.7699 95.2967 43.7161 95.3197 43.6691C95.3428 43.6221 95.3841 43.5865 95.433 43.5683C95.458 43.5597 95.4849 43.5558 95.5117 43.5577C95.5377 43.5597 95.5636 43.5664 95.5876 43.5789C95.6116 43.5913 95.6327 43.6077 95.65 43.6278C95.6673 43.648 95.6807 43.671 95.6884 43.6969C95.7085 43.7603 96.1991 45.2723 95.3697 45.9779C94.9991 46.3043 94.5229 46.4877 94.0295 46.4925V46.4896Z" fill="#3B7CD3"/>
<path d="M92.5189 41.4571C92.7896 41.4571 93.0095 41.2373 93.0095 40.9666C93.0095 40.6959 92.7896 40.476 92.5189 40.476C92.2482 40.476 92.0283 40.6959 92.0283 40.9666C92.0283 41.2373 92.2482 41.4571 92.5189 41.4571Z" fill="#3B7CD3"/>
<path d="M103.265 45.0218C103.265 45.0218 103.449 47.0513 103.449 48.523C103.423 49.484 103.274 50.4382 103.006 51.3617C102.773 50.3547 102.339 49.4052 101.73 48.571C101.495 48.3022 101.189 48.1044 100.847 48.0007C100.505 47.898 100.141 47.8932 99.7959 47.9882C99.7959 47.9882 101.391 47.5658 102.229 46.553C102.646 46.0951 102.995 45.5796 103.265 45.0218Z" fill="#3B7CD3"/>
<path d="M149.96 45.8843C149.96 45.8843 158.951 47.4117 166.34 59.2352C173.73 71.0587 176.309 85.0193 176.309 85.0193L146.753 71.5733L149.96 45.8852V45.8843Z" fill="#DEECFF"/>
<path d="M176.317 85.2177C176.29 85.2225 176.262 85.2225 176.234 85.2177L146.666 71.7516C146.627 71.7353 146.594 71.7065 146.573 71.669C146.552 71.6326 146.544 71.5894 146.55 71.5481L149.74 45.86C149.744 45.8331 149.753 45.8072 149.766 45.7842C149.78 45.7611 149.798 45.741 149.82 45.7246C149.864 45.6939 149.919 45.6805 149.972 45.6891C150.064 45.6891 159.143 47.3682 166.493 59.1274C173.841 70.8866 176.461 84.8433 176.493 84.9825C176.499 85.019 176.495 85.0555 176.482 85.0891C176.469 85.1227 176.446 85.1524 176.417 85.1745C176.389 85.1985 176.355 85.2139 176.317 85.2187V85.2177ZM146.977 71.4521L176.043 84.6753C175.568 82.3626 172.781 69.9209 166.173 59.3377C159.566 48.7545 151.507 46.4418 150.131 46.1231L146.977 71.4521Z" fill="#3B7CD3"/>
<path d="M100.593 75.1887C100.593 75.1887 98.7031 80.2249 92.0281 78.5065C85.3531 76.788 69.7452 68.9361 67.8031 72.9797C66.2997 76.1218 69.2547 77.9679 69.2547 77.9679C69.2547 77.9679 67.2213 80.9113 67.5765 83.7578C67.9318 86.6052 73.4749 99.2697 79.1678 99.8562C81.3816 100.088 83.0078 100.402 88.3916 99.1785L90.5324 95.0427C90.5324 95.0427 92.1913 98.4757 92.9248 98.3212C102.204 96.3627 112.269 93.1092 114.119 91.3188C117.054 88.4791 117.257 85.433 117.257 85.433L100.593 75.1887Z" fill="#DEECFF"/>
<path d="M82.0676 100.271C81.2477 100.262 80.4288 100.207 79.6147 100.106L79.1443 100.055C73.2508 99.445 67.7038 86.4099 67.3774 83.7814C67.0587 81.245 68.5534 78.6856 68.972 78.0155C68.3499 77.5489 66.2686 75.7067 67.6165 72.8958C69.0718 69.8611 77.302 72.9668 84.5636 75.7105C87.4312 76.7953 90.1461 77.8158 92.0728 78.315C98.48 79.9653 100.322 75.3198 100.398 75.1249C100.409 75.0961 100.424 75.0711 100.445 75.05C100.466 75.0289 100.491 75.0135 100.52 75.0039C100.548 74.9943 100.578 74.9915 100.607 74.9943C100.636 74.9982 100.665 75.0087 100.69 75.0251L117.35 85.2694C117.382 85.2876 117.407 85.3145 117.424 85.3471C117.441 85.3798 117.448 85.4163 117.445 85.4527C117.445 85.5804 117.206 88.6064 114.255 91.4615C112.413 93.2442 102.664 96.4737 92.9656 98.5195C92.2437 98.6712 91.1234 96.6695 90.5291 95.4887L88.5669 99.2731C88.5534 99.299 88.5342 99.3211 88.5121 99.3384C88.4891 99.3566 88.4632 99.3691 88.4353 99.3768C85.3614 100.071 83.5114 100.271 82.0676 100.271ZM70.4235 72.0337C69.2072 72.0337 68.3346 72.3332 67.9832 73.0666C66.5758 76.0062 69.2475 77.7246 69.3589 77.7966C69.3819 77.8101 69.4021 77.8283 69.4184 77.8504C69.4338 77.8725 69.4453 77.8974 69.4511 77.9233C69.4607 77.9781 69.4491 78.0337 69.4184 78.0789C69.4184 78.1077 67.4254 80.9983 67.7758 83.7334C68.1742 86.8563 73.7097 99.0897 79.1885 99.66L79.6752 99.6965C81.6692 99.9115 83.3751 100.095 88.2683 98.9899L90.3698 94.9386C90.3861 94.907 90.4111 94.8801 90.4427 94.8609C90.4735 94.8417 90.509 94.8311 90.5454 94.8311C90.5819 94.8311 90.6175 94.8417 90.6491 94.8618C90.6799 94.881 90.7048 94.9098 90.7202 94.9425C91.5698 96.6974 92.5864 98.1883 92.8898 98.1134C102.36 96.1195 112.218 92.8689 113.984 91.1629C115.598 89.671 116.675 87.6896 117.05 85.5238L100.701 75.4676C100.227 76.4363 97.9539 80.2207 92.0008 78.6894C90.051 78.1874 87.3275 77.1582 84.4484 76.0696C79.5072 74.2235 73.6934 72.0337 70.4235 72.0337Z" fill="#3B7CD3"/>
<path d="M203.657 168.977L211.851 173.101L228.787 168.977L227.806 154.447L215.045 151.109L203.657 168.977Z" fill="#DEECFF"/>
<path d="M75.1167 156.308L61.7581 168.131L90.3895 202.692L105.295 186.785L75.1167 156.308Z" fill="#DEECFF"/>
<path d="M90.389 202.891C90.3602 202.891 90.3323 202.884 90.3064 202.872C90.2814 202.859 90.2584 202.841 90.2411 202.819L61.6106 168.258C61.578 168.219 61.5617 168.168 61.5655 168.117C61.5693 168.065 61.5924 168.017 61.6308 167.983L74.9894 156.156C75.0268 156.122 75.0758 156.103 75.1267 156.103C75.1775 156.103 75.2275 156.122 75.2649 156.156L105.439 186.633C105.476 186.67 105.496 186.719 105.496 186.771C105.496 186.823 105.476 186.872 105.439 186.909L90.5368 202.815C90.5195 202.837 90.4965 202.855 90.4715 202.868C90.4456 202.881 90.4178 202.889 90.3899 202.891H90.389ZM62.0369 168.155L90.4005 202.393L105.015 186.789L75.1084 156.579L62.0369 168.155Z" fill="#3B7CD3"/>
<path d="M88.5187 99.1307C88.4716 99.1327 88.4255 99.1173 88.391 99.0866C88.3699 99.0703 88.3535 99.0501 88.3401 99.0271C88.3276 99.004 88.3199 98.9791 88.318 98.9531C88.3151 98.9272 88.318 98.9004 88.3257 98.8754C88.3334 98.8504 88.3459 98.8274 88.3631 98.8072C88.3862 98.7755 90.959 95.5739 89.9577 93.3524C88.6502 90.3821 87.1343 90.7124 87.071 90.7287C87.0191 90.7412 86.9644 90.7316 86.9193 90.7047C86.8732 90.6769 86.8406 90.6327 86.8271 90.5809C86.8214 90.5559 86.8194 90.53 86.8233 90.5041C86.8271 90.4781 86.8358 90.4532 86.8492 90.4311C86.8626 90.409 86.8799 90.3898 86.901 90.3745C86.9222 90.3591 86.9462 90.3476 86.9711 90.3418C87.047 90.3217 88.8652 89.8868 90.3206 93.1892C91.4016 95.6373 88.7654 98.9195 88.6502 99.0587C88.6339 99.0789 88.6137 99.0952 88.5907 99.1077C88.5686 99.1202 88.5436 99.1279 88.5187 99.1307Z" fill="#3B7CD3"/>
<path d="M82.306 93.4594C82.2532 93.4661 82.1994 93.4517 82.1572 93.42C82.1149 93.3874 82.0881 93.3394 82.0804 93.2866C82.0737 93.2328 82.0881 93.18 82.1207 93.1378C82.1533 93.0955 82.2013 93.0677 82.2541 93.061C82.2945 93.061 86.5444 91.8648 87.3864 89.4283C87.7253 88.451 87.4661 87.3863 86.6241 86.2382C83.1239 81.5408 78.5821 84.2922 78.3901 84.4122C78.368 84.4257 78.343 84.4353 78.3171 84.4391C78.2912 84.4439 78.2653 84.4429 78.2394 84.4372C78.2134 84.4314 78.1894 84.4199 78.1683 84.4045C78.1472 84.3892 78.129 84.37 78.1155 84.3479C78.0877 84.3028 78.079 84.249 78.0915 84.1972C78.103 84.1463 78.1347 84.1012 78.1789 84.0724C78.2307 84.0407 83.2228 81.0022 86.9515 86.003C87.8769 87.2433 88.1477 88.4356 87.7694 89.5435C86.8555 92.1835 82.545 93.3797 82.3617 93.4277C82.3463 93.4431 82.3271 93.4536 82.306 93.4594Z" fill="#3B7CD3"/>
<path d="M82.7049 83.6262C82.6645 83.6272 82.6252 83.6156 82.5916 83.5926C82.558 83.5696 82.532 83.5369 82.5176 83.4985C82.508 83.4745 82.5033 83.4476 82.5042 83.4217C82.5052 83.3948 82.5109 83.3689 82.5215 83.3449C82.5321 83.3209 82.5474 83.2988 82.5666 83.2816C82.5858 83.2633 82.6089 83.2489 82.6338 83.2393C82.7999 83.1616 82.9477 83.0502 83.0697 82.9139C83.1916 82.7766 83.2847 82.6163 83.3433 82.4425C83.5785 81.7926 83.3989 80.8873 82.821 79.8226C80.0015 74.6385 69.4231 78.108 69.3194 78.1436C69.2934 78.1522 69.2675 78.156 69.2406 78.1541C69.2138 78.1522 69.1878 78.1455 69.1648 78.133C69.1408 78.1215 69.1197 78.1052 69.1024 78.085C69.0851 78.0648 69.0717 78.0408 69.064 78.0159C69.0486 77.966 69.0534 77.9112 69.0774 77.8642C69.1005 77.8181 69.1418 77.7816 69.1917 77.7644C69.6381 77.6175 80.1935 74.1758 83.1714 79.6306C83.8175 80.8268 84.0009 81.8156 83.7138 82.5855C83.6341 82.8102 83.5093 83.0156 83.3471 83.1904C83.1858 83.3651 82.99 83.5052 82.773 83.6022C82.7519 83.6147 82.7289 83.6224 82.7049 83.6262Z" fill="#3B7CD3"/>
<path d="M88.5195 98.9307L90.5327 95.0426L92.5948 98.2126C92.5948 98.2126 91.0194 96.7533 90.5692 96.809C90.118 96.8657 88.5195 98.9307 88.5195 98.9307Z" fill="#3B7CD3"/>
<path d="M168.039 76.1897C168.039 76.1897 186.897 90.325 192.631 112.225C198.365 134.125 198.828 138.483 198.828 138.483L219.939 151.136C219.939 151.136 219.711 159.111 214.89 163.713C211.779 166.613 208.309 169.105 204.566 171.126C204.566 171.126 174.886 159.442 169.874 151.136C164.862 142.83 160.044 135.637 160.044 135.637C160.044 135.637 103.676 196.432 100.829 197.121C99.236 197.549 97.5435 197.408 96.044 196.722L101.132 191.319C101.132 191.319 98.0456 180.855 90.2138 172.665C82.9129 165.029 70.6986 156.767 67.2608 159.614C63.823 162.461 130.508 97.2083 130.508 97.2083L128.914 84.4161L164.06 73.2262L168.039 76.1897Z" fill="#5E96FC"/>
<path d="M98.9218 197.552C97.8898 197.572 96.8674 197.351 95.9352 196.906C95.9102 196.89 95.8882 196.869 95.8709 196.844C95.8536 196.819 95.8421 196.791 95.8363 196.763C95.8315 196.732 95.8344 196.701 95.843 196.672C95.8526 196.644 95.867 196.617 95.8882 196.595L100.897 191.275C100.541 190.142 97.3435 180.429 90.0618 172.808C82.3702 164.765 70.5227 157.157 67.3805 159.773C67.2769 159.861 67.1136 159.992 66.9821 159.845C66.8506 159.697 66.8151 159.658 69.6452 156.811C71.2763 155.176 73.6811 152.779 76.7954 149.697C82.0428 144.513 89.3764 137.279 98.5916 128.227C113.744 113.337 129.12 98.2919 130.293 97.1438L128.698 84.4514C128.692 84.4053 128.701 84.3583 128.726 84.3189C128.751 84.2796 128.789 84.2508 128.833 84.2364L163.976 73.0426C164.006 73.033 164.039 73.0301 164.069 73.0359C164.101 73.0416 164.131 73.0551 164.156 73.0752L168.143 76.0292C168.335 76.1732 187.12 90.4563 192.81 112.173C198.054 132.135 198.903 137.579 199.015 138.375L220.037 150.973C220.068 150.991 220.093 151.018 220.11 151.05C220.127 151.08 220.135 151.116 220.133 151.152C220.133 151.232 219.846 159.266 215.025 163.865C211.896 166.773 208.413 169.274 204.658 171.31C204.631 171.321 204.602 171.327 204.573 171.327C204.545 171.327 204.517 171.321 204.49 171.31C203.294 170.831 174.691 159.506 169.707 151.24C165.228 143.819 160.853 137.203 160.024 135.959C155.976 140.325 103.695 196.63 100.873 197.313C100.234 197.469 99.5794 197.55 98.9218 197.552ZM96.3701 196.667C97.7775 197.211 99.3193 197.302 100.78 196.926C102.986 196.391 140.417 156.52 159.901 135.517C159.921 135.494 159.947 135.477 159.975 135.467C160.004 135.455 160.033 135.451 160.064 135.453C160.094 135.455 160.123 135.465 160.148 135.48C160.174 135.495 160.195 135.516 160.212 135.541C160.264 135.613 165.093 142.838 170.045 151.049C174.83 158.984 202.795 170.221 204.554 170.923C208.247 168.912 211.675 166.445 214.754 163.582C219.141 159.399 219.678 152.256 219.735 151.264L198.724 138.659C198.698 138.642 198.676 138.621 198.66 138.595C198.643 138.57 198.633 138.542 198.628 138.512C198.628 138.468 198.098 133.882 192.44 112.281C186.781 90.68 168.139 76.5198 167.92 76.3566L164.008 73.4612L129.12 84.5628L130.716 97.1918C130.718 97.2225 130.716 97.2532 130.704 97.282C130.693 97.3108 130.677 97.3377 130.655 97.3598C110.598 116.986 73.8001 153.078 68.0506 158.992C72.556 157.692 83.8294 165.715 90.3489 172.549C98.125 180.684 101.282 191.184 101.315 191.291C101.325 191.324 101.326 191.36 101.317 191.393C101.308 191.427 101.291 191.458 101.267 191.482L96.3701 196.667Z" fill="#3B7CD3"/>
<path d="M160.047 135.645L138.595 102.44L157.136 138.775L160.047 135.645Z" fill="#3B7CD3"/>
<path d="M211.851 163.921C211.811 163.92 211.772 163.907 211.74 163.884C211.532 163.745 190.884 149.853 182.745 144.119C174.607 138.384 154.832 81.3538 153.979 78.9288C153.962 78.8789 153.966 78.8251 153.989 78.7781C154.012 78.7311 154.053 78.6955 154.102 78.6783C154.153 78.661 154.208 78.6648 154.255 78.6879C154.303 78.7109 154.339 78.7512 154.358 78.8011C154.561 79.3916 174.894 138.097 182.977 143.799C191.06 149.501 211.755 163.423 211.962 163.562C212.007 163.592 212.037 163.638 212.048 163.69C212.058 163.742 212.048 163.796 212.018 163.841C211.999 163.866 211.973 163.887 211.944 163.901C211.915 163.914 211.883 163.922 211.851 163.921Z" fill="#3B7CD3"/>
<path d="M158.993 97.4862C155.778 97.4344 152.616 96.6606 149.741 95.2216C143.76 92.3185 144.809 83.8732 144.821 83.7849C144.828 83.7331 144.855 83.6851 144.897 83.6534C144.939 83.6208 144.992 83.6073 145.044 83.614C145.096 83.6217 145.143 83.6496 145.174 83.6908C145.206 83.7321 145.221 83.7849 145.216 83.8368C145.216 83.9212 144.203 92.0871 149.917 94.8625C155.707 97.6783 160.241 97.0283 160.285 97.0197C160.338 97.012 160.391 97.0254 160.434 97.0571C160.477 97.0888 160.506 97.1368 160.513 97.1896C160.522 97.2424 160.509 97.2962 160.477 97.3394C160.444 97.3826 160.397 97.4114 160.344 97.419C159.895 97.4699 159.444 97.492 158.993 97.4862Z" fill="#3B7CD3"/>
<path d="M170.934 78.5029L168.239 76.3457C165.642 76.3121 163.05 76.5608 160.507 77.0868C158.117 77.5553 155.774 78.236 153.504 79.1211C150.933 80.1186 148.485 81.4108 146.211 82.9727C140.413 87.0624 135.136 91.8461 130.501 97.2164L129.603 96.4187L128.008 95.0036L119.451 87.3945L117.249 85.4332C115.567 85.3142 113.918 84.91 112.373 84.237C110.626 83.518 109 82.5397 107.548 81.334C102.691 77.3259 100.586 75.1726 100.586 75.1726C100.586 75.1726 99.3375 67.0662 100.278 61.5039C100.362 61.0056 100.466 60.5228 100.586 60.0764C100.84 59.1509 101.084 58.3579 101.315 57.684C101.498 57.1454 101.678 56.6789 101.845 56.2728C102.04 55.7985 102.258 55.3339 102.499 54.8808C102.699 54.4545 102.98 54.0715 103.324 53.7518C103.324 53.7518 107.364 57.9067 110.61 54.5256C113.856 51.1444 112.412 45.8163 112.412 45.8163C112.412 45.8163 113.708 44.0422 122.254 43.1244C130.799 42.2076 139.966 42.1318 144.437 42.6703L145.123 42.7702C145.794 42.8681 146.46 43.0006 147.116 43.1686C149.968 43.8828 151.662 44.983 152.025 45.4179C152.092 45.4745 152.146 45.5446 152.183 45.6243C152.22 45.704 152.239 45.7904 152.239 45.8787C152.239 45.967 152.22 46.0534 152.183 46.1331C152.146 46.2128 152.092 46.2829 152.025 46.3395L150.143 45.8173C150.143 45.8173 150.318 46.3558 150.573 47.241C151.302 49.7293 151.878 52.259 152.301 54.8174C152.559 56.3381 152.636 57.8846 152.527 59.4235C152.424 60.421 152.34 61.286 152.26 62.0357C151.977 64.7833 151.834 65.9718 151.834 65.9718L152.734 66.3702C156.519 68.0646 170.958 74.6926 171.629 77.3681C172.003 78.8475 170.934 78.5048 170.934 78.5048V78.5029Z" fill="#92C1FF"/>
<path d="M130.501 97.4159C130.452 97.4159 130.406 97.3996 130.369 97.3679L117.158 85.6279C115.479 85.5021 113.832 85.0979 112.286 84.4317C110.52 83.7059 108.876 82.7161 107.409 81.4969C102.623 77.533 100.455 75.3442 100.434 75.324C100.403 75.2952 100.383 75.2559 100.379 75.2127C100.379 75.133 99.1346 67.0103 100.068 61.4835C100.159 60.9651 100.263 60.4784 100.383 60.0358C100.633 59.1142 100.881 58.3049 101.116 57.6434C101.284 57.1529 101.459 56.6863 101.651 56.2197C101.844 55.7368 102.065 55.2655 102.312 54.8085C102.525 54.3554 102.827 53.9483 103.197 53.6123C103.237 53.5864 103.284 53.5749 103.331 53.5797C103.377 53.5845 103.42 53.6066 103.453 53.6402C103.473 53.6402 105.467 55.6773 107.7 55.6773C108.219 55.6687 108.732 55.5516 109.204 55.3336C109.677 55.1157 110.098 54.8028 110.444 54.413C113.573 51.1509 112.21 45.9437 112.198 45.8919C112.19 45.8631 112.188 45.8324 112.194 45.8026C112.199 45.7729 112.212 45.745 112.229 45.721C112.281 45.6452 113.673 43.8624 122.199 42.9495C131.242 41.9846 140.222 41.9923 144.425 42.4992C144.664 42.5271 144.892 42.5587 145.119 42.5952C145.789 42.6951 146.459 42.8304 147.113 42.9936C150.076 43.7395 151.77 44.88 152.125 45.314C152.212 45.4042 152.278 45.5117 152.319 45.6289C152.362 45.746 152.378 45.8717 152.368 45.9956C152.342 46.201 152.236 46.3892 152.074 46.5178C152.05 46.537 152.022 46.5495 151.992 46.5553C151.962 46.561 151.932 46.5591 151.902 46.5505L150.371 46.1242C150.446 46.3757 150.559 46.7425 150.694 47.2052C151.425 49.7089 152.003 52.2549 152.425 54.8296C152.692 56.3484 152.776 57.893 152.676 59.431L152.592 60.2681C152.529 60.9219 152.468 61.5123 152.413 62.0422C152.185 64.2272 152.05 65.4397 152.014 65.8343L152.783 66.1732C157.066 68.0951 171.102 74.5704 171.789 77.3065C171.935 77.9084 171.888 78.3308 171.637 78.5622C171.525 78.6486 171.394 78.7062 171.255 78.7302C171.116 78.7542 170.973 78.7446 170.839 78.7014C170.816 78.6946 170.794 78.6822 170.776 78.6658L168.132 76.5528C165.572 76.5298 163.019 76.7775 160.511 77.2901C158.134 77.7557 155.802 78.4326 153.545 79.3119C150.985 80.3036 148.549 81.5891 146.288 83.1443C137.352 89.3287 130.716 97.2642 130.657 97.3439C130.639 97.365 130.618 97.3823 130.594 97.3948C130.57 97.4072 130.543 97.414 130.517 97.4159H130.501ZM100.777 75.085C101.108 75.4162 103.269 77.5493 107.676 81.1859C109.117 82.3801 110.73 83.3497 112.461 84.0611C113.986 84.7139 115.61 85.1056 117.265 85.2218C117.313 85.2227 117.359 85.241 117.393 85.2736L130.489 96.9215C131.474 95.7647 137.786 88.5271 146.108 82.7929C148.398 81.2291 150.859 79.934 153.445 78.9327C155.725 78.0457 158.079 77.3621 160.48 76.8917C163.04 76.3647 165.649 76.1151 168.263 76.1458C168.305 76.1506 168.345 76.166 168.379 76.19L171.039 78.3193C171.101 78.3385 171.167 78.3433 171.233 78.3337C171.297 78.3241 171.359 78.3001 171.413 78.2636C171.545 78.1397 171.557 77.8325 171.45 77.3977C170.927 75.372 161.42 70.4472 152.648 66.5313C152.074 66.2721 151.746 66.1328 151.746 66.1328C151.708 66.1156 151.675 66.0858 151.655 66.0484C151.634 66.0109 151.625 65.9677 151.631 65.9255C151.631 65.9255 151.774 64.7091 152.057 61.9933C152.114 61.4633 152.17 60.8729 152.237 60.2192L152.321 59.382C152.414 57.8767 152.332 56.3657 152.074 54.8805C151.652 52.323 151.077 49.7924 150.351 47.3041C150.096 46.4266 149.924 45.8842 149.924 45.8842C149.913 45.8506 149.911 45.8132 149.918 45.7786C149.926 45.7441 149.943 45.7114 149.968 45.6855C149.994 45.6605 150.026 45.6423 150.06 45.6317C150.096 45.6221 150.132 45.6212 150.168 45.6298L151.934 46.1242C151.977 46.0695 152.004 46.0052 152.014 45.937C152.014 45.8669 152.002 45.7969 151.975 45.7316C151.948 45.6663 151.909 45.6077 151.859 45.5578C151.544 45.1594 149.896 44.0861 147.073 43.3728C146.435 43.2135 145.773 43.0819 145.112 42.9744C144.888 42.9399 144.66 42.9082 144.429 42.8784C140.25 42.3763 131.307 42.3715 122.294 43.3325C114.913 44.1303 112.988 45.5655 112.649 45.8804C112.832 46.6782 113.801 51.5233 110.77 54.6732C110.389 55.1023 109.923 55.4469 109.401 55.686C108.879 55.925 108.313 56.0527 107.739 56.0604C105.666 56.0604 103.86 54.5167 103.353 54.0386C103.102 54.3275 102.885 54.6444 102.707 54.9842C102.468 55.4296 102.252 55.8876 102.061 56.3561C101.874 56.8149 101.703 57.2729 101.538 57.7558C101.303 58.4297 101.06 59.2275 100.813 60.1481C100.694 60.5792 100.594 61.0534 100.506 61.5555C99.6127 66.7636 100.666 74.3275 100.777 75.0975V75.085Z" fill="#3B7CD3"/>
<path d="M141.234 60.2025L151.834 65.9492L152.288 61.7702L141.234 60.2035V60.2025Z" fill="#3B7CD3"/>
<path d="M108.717 74.0439L117.254 85.4325L114.702 85.0216L108.717 74.0439Z" fill="#3B7CD3"/>
<path d="M149.961 45.8839L151.902 46.3543C151.902 46.3543 153.381 45.7437 150.974 44.6675C149.291 43.9139 149.961 45.8839 149.961 45.8839Z" fill="#3B7CD3"/>
<path d="M168.039 76.19C168.039 76.19 170.296 78.6342 170.934 78.5027C171.572 78.3711 172.075 77.8489 171.365 76.8274C170.727 75.9106 168.039 76.19 168.039 76.19Z" fill="#3B7CD3"/>
<path d="M95.9719 196.738C95.9719 196.738 99.4453 197.966 100.829 197.136C103.341 195.594 101.156 190.908 101.156 190.908L95.9719 196.738Z" fill="#3B7CD3"/>
<path d="M66.9618 159.674C66.86 160 66.8331 160.345 66.883 160.683C66.933 161.02 67.0597 161.342 67.2526 161.624L67.9151 162.684L71.5439 159.47C70.8066 159.216 70.0348 159.074 69.2552 159.048C68.47 159.172 67.7019 159.382 66.9627 159.674H66.9618Z" fill="#3B7CD3"/>
<path d="M146.91 43.3837C146.266 43.3895 145.629 43.2531 145.044 42.9853C145 42.9642 144.967 42.9287 144.948 42.8845C144.928 42.8403 144.926 42.7914 144.94 42.7453C144.953 42.6992 144.983 42.6598 145.024 42.6339C145.064 42.608 145.112 42.5984 145.16 42.6061C145.834 42.7098 146.507 42.8413 147.153 43.0045C147.2 43.016 147.242 43.0439 147.27 43.0832C147.298 43.1226 147.31 43.1715 147.304 43.2195C147.3 43.2666 147.278 43.3107 147.243 43.3434C147.209 43.376 147.164 43.3962 147.117 43.3991L146.91 43.3827V43.3837Z" fill="#3B7CD3"/>
<path d="M122.039 52.0764C120.954 52.0783 119.906 51.6751 119.102 50.9465C118.298 50.2178 117.794 49.2146 117.69 48.1346C117.585 47.0546 117.887 45.9736 118.537 45.1038C119.185 44.234 120.136 43.6379 121.202 43.4315C122.048 43.2635 122.926 43.3499 123.723 43.6811C124.52 44.0113 125.202 44.572 125.681 45.29C126.16 46.0081 126.414 46.852 126.414 47.715C126.413 48.5781 126.156 49.4219 125.675 50.1391C125.356 50.6172 124.946 51.0281 124.467 51.3449C123.987 51.6617 123.449 51.8815 122.884 51.989C122.606 52.0476 122.323 52.0764 122.039 52.0764ZM122.039 43.7463C121.771 43.7444 121.504 43.7703 121.242 43.8222C120.602 43.9499 120.004 44.2321 119.501 44.6459C118.997 45.0596 118.603 45.5905 118.354 46.1925C118.105 46.7944 118.008 47.4491 118.071 48.0971C118.134 48.7461 118.357 49.3682 118.719 49.9106C119.081 50.452 119.57 50.8965 120.145 51.2047C120.72 51.5119 121.361 51.6732 122.013 51.6741C122.664 51.6741 123.306 51.5148 123.881 51.2076C124.456 50.9004 124.947 50.4568 125.308 49.9164C125.707 49.3202 125.935 48.6271 125.971 47.9109C126.006 47.1947 125.847 46.4824 125.51 45.8497C125.172 45.2171 124.67 44.6872 124.057 44.3176C123.442 43.947 122.739 43.7502 122.023 43.7473H122.039V43.7463Z" fill="#3B7CD3"/>
<path d="M139.368 54.6369C138.58 54.6341 137.808 54.4181 137.133 54.011C136.458 53.6049 135.905 53.0232 135.534 52.3271C135.164 51.6321 134.988 50.8497 135.025 50.0625C135.064 49.2753 135.314 48.513 135.751 47.8573C136.065 47.3716 136.473 46.9539 136.951 46.6266C137.428 46.3002 137.966 46.0717 138.533 45.9555C139.1 45.8384 139.683 45.8355 140.252 45.9469C140.819 46.0583 141.36 46.281 141.84 46.6026C142.321 46.9242 142.732 47.3389 143.052 47.8208C143.371 48.3037 143.591 48.8442 143.699 49.4125C143.807 49.9809 143.801 50.5655 143.681 51.131C143.561 51.6974 143.33 52.2331 143 52.7092C142.682 53.1883 142.271 53.5982 141.792 53.9169C141.313 54.2357 140.774 54.4555 140.21 54.563C139.932 54.6129 139.65 54.6369 139.368 54.635V54.6369ZM139.368 46.3107C138.685 46.3146 138.014 46.4951 137.421 46.8339C136.827 47.1728 136.332 47.6605 135.984 48.2471C135.634 48.8346 135.442 49.5018 135.427 50.1854C135.411 50.8689 135.573 51.5438 135.895 52.1467C136.219 52.7486 136.691 53.2574 137.269 53.6232C137.846 53.9889 138.507 54.1992 139.19 54.2337C139.873 54.2683 140.552 54.1253 141.164 53.82C141.774 53.5137 142.296 53.0558 142.678 52.4884C143.077 51.8923 143.307 51.1991 143.343 50.482C143.38 49.7649 143.22 49.0516 142.882 48.4189C142.544 47.7853 142.04 47.2564 141.425 46.8877C140.81 46.5181 140.106 46.3232 139.388 46.3242L139.368 46.3127V46.3107Z" fill="#3B7CD3"/>
<path d="M148.963 68.9355C148.175 68.9326 147.403 68.7166 146.728 68.3105C146.053 67.9035 145.501 67.3217 145.13 66.6266C144.758 65.9316 144.583 65.1492 144.621 64.362C144.66 63.5748 144.91 62.8125 145.347 62.1568C145.361 62.1347 145.381 62.1165 145.403 62.1021C145.425 62.0877 145.45 62.0781 145.476 62.0723C145.501 62.0675 145.528 62.0675 145.554 62.0733C145.579 62.0791 145.604 62.0896 145.625 62.105C145.647 62.1194 145.667 62.1376 145.681 62.1597C145.695 62.1818 145.705 62.2058 145.71 62.2317C145.715 62.2576 145.715 62.2835 145.709 62.3095C145.703 62.3354 145.693 62.3594 145.677 62.3805C145.093 63.2541 144.88 64.3245 145.085 65.3565C145.29 66.3876 145.896 67.2958 146.771 67.8795C147.644 68.4641 148.715 68.6772 149.746 68.4718C150.777 68.2673 151.685 67.6606 152.27 66.787C152.344 66.6718 152.413 66.5633 152.468 66.4596L151.755 66.1447C151.716 66.1274 151.684 66.0977 151.663 66.0602C151.642 66.0228 151.634 65.9796 151.639 65.9374C151.639 65.9374 151.783 64.721 152.066 62.0061C152.071 61.9533 152.097 61.9043 152.138 61.8707C152.179 61.8371 152.232 61.8208 152.285 61.8266C152.338 61.8323 152.387 61.8583 152.42 61.8986C152.454 61.9389 152.47 61.9927 152.464 62.0455C152.237 64.2305 152.102 65.4429 152.066 65.8375L152.835 66.1764C152.883 66.1985 152.92 66.2388 152.938 66.2878C152.957 66.3367 152.956 66.3914 152.935 66.4394C152.846 66.6382 152.739 66.8292 152.616 67.0097C152.296 67.4887 151.886 67.8987 151.407 68.2164C150.927 68.5352 150.39 68.755 149.824 68.8635C149.54 68.9153 149.252 68.9393 148.963 68.9355Z" fill="#3B7CD3"/>
<path d="M113.915 64.2071C112.944 64.2052 111.999 63.8788 111.234 63.2788C110.469 62.6787 109.926 61.8407 109.691 60.897C109.456 59.9533 109.544 58.9587 109.939 58.0697C110.336 57.1817 111.016 56.4511 111.874 55.9942C112.733 55.5372 113.72 55.3797 114.677 55.5478C115.635 55.7158 116.509 56.1986 117.161 56.9196C117.813 57.6406 118.206 58.5593 118.276 59.5299C118.346 60.5005 118.09 61.4653 117.548 62.2736C117.149 62.8698 116.608 63.3584 115.975 63.6954C115.341 64.0324 114.633 64.209 113.915 64.2071ZM113.915 55.8847C113.231 55.8838 112.557 56.0604 111.961 56.3974C111.364 56.7343 110.864 57.2201 110.512 57.8067C110.159 58.3942 109.964 59.0624 109.947 59.7478C109.929 60.4333 110.09 61.1101 110.412 61.7149C110.735 62.3197 111.208 62.8295 111.787 63.1962C112.366 63.5629 113.029 63.7732 113.714 63.8077C114.398 63.8413 115.08 63.6973 115.691 63.3892C116.304 63.081 116.825 62.6192 117.205 62.0499C117.606 61.4538 117.835 60.7606 117.872 60.0435C117.907 59.3264 117.748 58.614 117.41 57.9804C117.072 57.3468 116.569 56.8179 115.954 56.4492C115.338 56.0806 114.633 55.8847 113.915 55.8857V55.8847Z" fill="#3B7CD3"/>
<path d="M131.242 66.7896C130.382 66.7915 129.54 66.5361 128.825 66.0561C128.108 65.5761 127.549 64.8945 127.219 64.0967C126.89 63.299 126.805 62.4215 126.973 61.5757C127.142 60.729 127.559 59.9524 128.17 59.3427C128.78 58.7331 129.559 58.3184 130.405 58.1514C131.251 57.9843 132.129 58.0717 132.926 58.4029C133.722 58.7341 134.403 59.2938 134.882 60.0128C135.36 60.7309 135.615 61.5748 135.614 62.4378C135.614 63.3009 135.355 64.1438 134.874 64.8609C134.475 65.4571 133.934 65.9448 133.3 66.2817C132.666 66.6187 131.96 66.7934 131.242 66.7915V66.7896ZM131.242 58.4672C130.291 58.4653 129.372 58.8051 128.651 59.4253C127.93 60.0445 127.455 60.9028 127.314 61.8436C127.173 62.7834 127.375 63.7434 127.882 64.547C128.389 65.3515 129.169 65.9457 130.078 66.2232C130.987 66.5006 131.967 66.4411 132.835 66.0571C133.705 65.6731 134.408 64.9895 134.815 64.1303C135.223 63.2711 135.308 62.2948 135.055 61.378C134.802 60.4612 134.229 59.6663 133.439 59.1373C132.794 58.7024 132.036 58.4701 131.258 58.4672H131.242Z" fill="#3B7CD3"/>
<path d="M140.836 81.0814C139.71 81.0805 138.627 80.6465 137.813 79.8689C136.998 79.0923 136.513 78.0315 136.459 76.9063C136.404 75.7821 136.784 74.6791 137.521 73.8276C138.257 72.9751 139.293 72.4394 140.413 72.3299C141.535 72.2205 142.654 72.5459 143.541 73.2391C144.428 73.9332 145.015 74.9412 145.18 76.0548C145.344 77.1684 145.073 78.3031 144.424 79.2238C143.775 80.1435 142.798 80.779 141.693 80.9979C141.411 81.0536 141.124 81.0814 140.836 81.0814ZM140.836 72.7514C140.568 72.7514 140.301 72.7783 140.038 72.8311C139.399 72.9578 138.801 73.241 138.296 73.6538C137.792 74.0676 137.398 74.5985 137.147 75.2013C136.898 75.8033 136.801 76.458 136.864 77.107C136.928 77.7559 137.151 78.379 137.513 78.9204C137.875 79.4628 138.366 79.9073 138.941 80.2145C139.516 80.5217 140.158 80.683 140.81 80.683C141.462 80.683 142.103 80.5217 142.678 80.2145C143.253 79.9073 143.744 79.4628 144.106 78.9204C144.496 78.3223 144.719 77.6302 144.752 76.9169C144.783 76.2036 144.623 75.4941 144.287 74.8644C143.951 74.2336 143.453 73.7047 142.842 73.3332C142.233 72.9616 141.534 72.761 140.819 72.7514H140.836Z" fill="#3B7CD3"/>
<path d="M153.505 79.3199C153.475 79.3199 153.446 79.3112 153.419 79.2978C153.392 79.2844 153.369 79.2652 153.351 79.2412C153.333 79.2181 153.32 79.1903 153.314 79.1615C153.307 79.1317 153.307 79.102 153.314 79.0732C153.431 78.5499 153.644 78.0536 153.943 77.6091C154.591 76.653 155.591 75.9905 156.725 75.7669C157.857 75.5432 159.033 75.7755 159.996 76.413C160.229 76.5723 160.446 76.7509 160.646 76.9477C160.672 76.9726 160.69 77.0053 160.7 77.0398C160.709 77.0754 160.709 77.1119 160.698 77.1464C160.688 77.181 160.668 77.2117 160.641 77.2357C160.615 77.2597 160.582 77.276 160.547 77.2827C158.169 77.7474 155.838 78.4242 153.581 79.3045C153.557 79.3132 153.531 79.3189 153.505 79.3199ZM157.576 76.0741C156.923 76.0731 156.281 76.2325 155.705 76.5397C155.129 76.8459 154.637 77.2904 154.275 77.8328C154.074 78.1285 153.916 78.4511 153.804 78.79C155.844 78.0162 157.943 77.4066 160.081 76.9678C159.981 76.8872 159.877 76.8123 159.774 76.7403C159.123 76.3054 158.359 76.0731 157.576 76.0741Z" fill="#3B7CD3"/>
<path d="M101.323 57.8984C101.293 57.9003 101.263 57.8927 101.236 57.8783C101.191 57.8581 101.155 57.8216 101.136 57.7765C101.117 57.7314 101.116 57.6805 101.132 57.6344C101.299 57.1439 101.475 56.6773 101.666 56.2107C101.685 56.1656 101.72 56.1282 101.764 56.107C101.808 56.0859 101.858 56.0811 101.906 56.0946C101.953 56.109 101.993 56.1397 102.019 56.181C102.044 56.2232 102.054 56.2731 102.045 56.3211C101.957 56.8453 101.769 57.3474 101.491 57.8005C101.474 57.8293 101.449 57.8533 101.419 57.8706C101.391 57.8869 101.357 57.8965 101.323 57.8965V57.8984Z" fill="#3B7CD3"/>
<path d="M106.735 74.9729C105.763 74.97 104.819 74.6436 104.054 74.0436C103.289 73.4446 102.745 72.6065 102.511 71.6628C102.277 70.7191 102.364 69.7245 102.76 68.8365C103.154 67.9485 103.835 67.2179 104.693 66.7609C105.551 66.304 106.537 66.1465 107.494 66.3136C108.452 66.4806 109.327 66.9626 109.979 67.6835C110.632 68.4045 111.024 69.3232 111.095 70.2919C111.166 71.2615 110.912 72.2273 110.372 73.0356C110.052 73.5137 109.641 73.9246 109.162 74.2423C108.683 74.5611 108.145 74.7809 107.58 74.8894C107.301 74.9451 107.018 74.9729 106.735 74.9739V74.9729ZM106.754 66.6429C106.487 66.6409 106.219 66.6669 105.957 66.7187C105.189 66.8723 104.485 67.2496 103.931 67.8035C103.378 68.3575 103.001 69.0621 102.848 69.8301C102.694 70.5972 102.772 71.393 103.071 72.1169C103.369 72.8407 103.875 73.4599 104.525 73.8958C104.958 74.1857 105.444 74.3873 105.954 74.4891C106.464 74.5908 106.989 74.5918 107.5 74.491C108.011 74.3892 108.497 74.1886 108.93 73.8996C109.363 73.6116 109.735 73.2401 110.024 72.8071C110.603 71.9316 110.812 70.8631 110.608 69.833C110.403 68.8039 109.801 67.8966 108.932 67.3082C108.29 66.8685 107.532 66.6294 106.754 66.6227V66.6429Z" fill="#3B7CD3"/>
<path d="M124.06 77.5251C122.935 77.5242 121.852 77.0902 121.037 76.3126C120.223 75.536 119.738 74.4752 119.683 73.35C119.629 72.2258 120.009 71.1228 120.746 70.2713C121.482 69.4188 122.517 68.8831 123.638 68.7736C124.759 68.6642 125.879 68.9896 126.766 69.6828C127.653 70.3759 128.24 71.3849 128.404 72.4985C128.568 73.6121 128.298 74.7468 127.649 75.6665C127 76.5872 126.022 77.2227 124.917 77.4416C124.635 77.4973 124.348 77.5251 124.06 77.5251ZM124.08 69.1951C123.812 69.1951 123.545 69.222 123.282 69.2748C122.646 69.4053 122.05 69.6904 121.549 70.1052C121.049 70.5199 120.657 71.0517 120.411 71.6537C120.164 72.2546 120.069 72.9084 120.134 73.5555C120.199 74.2025 120.423 74.8236 120.785 75.3632C121.147 75.9037 121.636 76.3462 122.21 76.6534C122.783 76.9597 123.423 77.121 124.073 77.1219C124.723 77.1219 125.363 76.9635 125.938 76.6582C126.513 76.3529 127.002 75.9113 127.366 75.3718C127.757 74.7737 127.979 74.0825 128.011 73.3683C128.044 72.655 127.883 71.9465 127.547 71.3157C127.211 70.685 126.712 70.157 126.103 69.7855C125.493 69.413 124.794 69.2124 124.08 69.2028V69.1951Z" fill="#3B7CD3"/>
<path d="M100.283 61.7217C100.233 61.7217 100.185 61.7035 100.148 61.6699C100.122 61.6469 100.102 61.619 100.092 61.5864C100.08 61.5547 100.077 61.5201 100.083 61.4865C100.175 60.972 100.279 60.4852 100.398 60.0427C100.65 59.122 100.897 58.3118 101.132 57.6503C101.3 57.1598 101.475 56.6932 101.666 56.2266C101.86 55.7437 102.081 55.2724 102.329 54.8154C102.344 54.7866 102.367 54.7616 102.395 54.7444C102.422 54.7261 102.453 54.7156 102.486 54.7127C102.52 54.7098 102.552 54.7156 102.582 54.728C102.613 54.7415 102.639 54.7616 102.66 54.7876C103.239 55.5104 103.572 56.3985 103.61 57.3239C103.65 58.2494 103.391 59.1623 102.875 59.9313C102.278 60.8241 101.372 61.4654 100.331 61.7294L100.283 61.7217ZM102.532 55.2695C102.368 55.592 102.201 55.9597 102.033 56.362C101.866 56.7642 101.675 57.2788 101.511 57.7617C101.276 58.4356 101.033 59.2334 100.785 60.154C100.694 60.4929 100.61 60.8596 100.534 61.2465C101.351 60.9643 102.052 60.4209 102.528 59.699C102.973 59.0462 103.211 58.2743 103.212 57.4842C103.212 56.6941 102.976 55.9223 102.532 55.2685V55.2695Z" fill="#3B7CD3"/>
<path d="M133.659 91.813C132.976 91.8139 132.303 91.6555 131.692 91.3493C131.083 91.0431 130.553 90.5976 130.146 90.0494C129.74 89.5013 129.467 88.8648 129.351 88.1918C129.235 87.5188 129.279 86.8286 129.478 86.1758C129.677 85.523 130.028 84.9258 130.499 84.4334C130.972 83.9399 131.553 83.5645 132.196 83.337C132.841 83.1095 133.528 83.0365 134.206 83.1239C134.883 83.2103 135.53 83.4551 136.095 83.8372C137.051 84.4862 137.714 85.4846 137.937 86.6183C138.162 87.7512 137.93 88.9272 137.291 89.891C136.973 90.3691 136.561 90.78 136.082 91.0978C135.603 91.4165 135.065 91.6363 134.501 91.7448C134.222 91.7938 133.941 91.8168 133.659 91.813ZM133.659 83.4868C132.974 83.4868 132.3 83.6625 131.703 83.9985C131.107 84.3354 130.608 84.8212 130.255 85.4087C129.902 85.9963 129.707 86.6644 129.69 87.3499C129.673 88.0344 129.833 88.7121 130.155 89.316C130.478 89.9208 130.951 90.4315 131.53 90.7982C132.109 91.165 132.772 91.3752 133.457 91.4088C134.141 91.4434 134.823 91.2984 135.435 90.9903C136.046 90.683 136.568 90.2213 136.949 89.651C137.348 89.0558 137.578 88.3617 137.615 87.6456C137.65 86.9284 137.491 86.2151 137.153 85.5825C136.815 84.9489 136.312 84.4199 135.697 84.0503C135.08 83.6817 134.377 83.4868 133.659 83.4868Z" fill="#3B7CD3"/>
<path d="M152.277 55.0353H152.249C151.515 54.9364 150.819 54.6522 150.226 54.2087C149.632 53.7661 149.162 53.1786 148.859 52.5037C148.555 51.8279 148.429 51.0867 148.492 50.3494C148.555 49.6121 148.805 48.9027 149.219 48.2883C149.537 47.8035 149.953 47.3897 150.439 47.0719C150.465 47.0547 150.495 47.0441 150.526 47.0412C150.557 47.0383 150.589 47.0412 150.618 47.0518C150.647 47.0633 150.673 47.0806 150.695 47.1036C150.716 47.1267 150.733 47.1536 150.742 47.1833C151.473 49.687 152.051 52.233 152.472 54.8077C152.478 54.8375 152.476 54.8692 152.467 54.898C152.459 54.9268 152.442 54.9537 152.42 54.9757C152.383 55.0142 152.331 55.0353 152.277 55.0353ZM150.435 47.5625C150.089 47.8265 149.79 48.1452 149.55 48.5081C149.187 49.0467 148.962 49.6669 148.895 50.3139C148.829 50.96 148.923 51.6128 149.169 52.2147C149.415 52.8167 149.805 53.3476 150.306 53.7623C150.806 54.177 151.401 54.4621 152.038 54.5927C151.634 52.2253 151.099 49.8819 150.435 47.574V47.5625Z" fill="#3B7CD3"/>
<path d="M119.455 87.59C119.407 87.59 119.36 87.5737 119.323 87.542L117.122 85.5807C117.098 85.5643 117.079 85.5432 117.064 85.5192C117.049 85.4952 117.039 85.4683 117.036 85.4395C117.033 85.4117 117.035 85.3829 117.044 85.356C117.052 85.3291 117.066 85.3042 117.085 85.2831C117.105 85.2619 117.128 85.2447 117.154 85.2331C117.179 85.2216 117.207 85.2159 117.236 85.2159C117.264 85.2168 117.292 85.2226 117.318 85.2341C117.344 85.2466 117.367 85.2639 117.385 85.285L119.446 87.1196C119.593 86.9669 119.726 86.8028 119.845 86.629C120.423 85.7535 120.633 84.685 120.428 83.6549C120.224 82.6257 119.622 81.7185 118.753 81.13C116.855 79.858 114.626 80.2007 113.461 81.9278C113.432 81.972 113.385 82.0017 113.334 82.0123C113.282 82.0219 113.228 82.0123 113.184 81.9816C113.14 81.9518 113.11 81.9057 113.099 81.8539C113.09 81.802 113.1 81.7483 113.13 81.7041C114.422 79.7745 116.883 79.3876 118.976 80.7873C119.933 81.4353 120.594 82.4347 120.818 83.5675C121.043 84.7013 120.81 85.8773 120.172 86.8402C120.009 87.0888 119.819 87.3192 119.606 87.5266C119.586 87.5468 119.563 87.5631 119.537 87.5737C119.511 87.5852 119.483 87.5909 119.455 87.59Z" fill="#3B7CD3"/>
<path d="M117.253 85.6327C115.547 85.5223 113.873 85.1182 112.304 84.4356C112.256 84.4155 112.218 84.3771 112.198 84.3281C112.177 84.2801 112.177 84.2254 112.197 84.1764C112.206 84.1524 112.221 84.1303 112.239 84.1121C112.257 84.0929 112.279 84.0785 112.303 84.0679C112.328 84.0583 112.354 84.0526 112.38 84.0535C112.406 84.0535 112.432 84.0583 112.456 84.0689C113.981 84.7217 115.606 85.1143 117.261 85.2295C117.314 85.2295 117.364 85.2507 117.402 85.2881C117.439 85.3255 117.46 85.3764 117.46 85.4292C117.46 85.482 117.439 85.5329 117.402 85.5704C117.364 85.6068 117.314 85.628 117.261 85.628L117.253 85.6327Z" fill="#3B7CD3"/>
<path d="M129.602 96.6171C129.578 96.6171 129.554 96.6133 129.531 96.6046C129.508 96.595 129.488 96.5825 129.471 96.5653L127.875 95.1531C127.841 95.1214 127.819 95.0772 127.813 95.0302C127.807 94.9822 127.818 94.9342 127.844 94.8939C127.869 94.8536 127.909 94.8238 127.956 94.8104C128.002 94.7969 128.052 94.8017 128.095 94.8228C128.255 94.8996 128.41 94.987 128.558 95.0859C129.034 95.4104 129.441 95.826 129.754 96.3099C129.781 96.3502 129.792 96.3982 129.786 96.4462C129.779 96.4942 129.755 96.5384 129.717 96.5691C129.685 96.5969 129.645 96.6133 129.602 96.6171Z" fill="#3B7CD3"/>
<path d="M226.765 151.535C226.765 151.535 229.636 149.968 232.575 150.379C235.514 150.79 239.389 155.786 239.685 164.958C239.98 174.129 239.976 190.108 235.59 193.405C230.27 197.349 213.96 199.574 203.206 196.46C192.451 193.346 197.978 187.125 197.978 187.125L223.423 174.42L226.765 151.535Z" fill="#5E96FC"/>
<path d="M214.962 198.111C210.807 198.111 206.668 197.66 203.131 196.635C199.33 195.534 197.101 193.923 196.499 191.85C195.77 189.318 197.728 187.065 197.812 186.985L197.871 186.937L223.228 174.264L226.59 151.384L226.677 151.34C226.797 151.272 229.641 149.744 232.607 150.144C235.45 150.542 239.586 155.383 239.893 164.897C240.423 181.427 239.012 191.053 235.698 193.512C232.093 196.217 223.496 198.111 214.962 198.111ZM198.082 187.268C197.867 187.528 196.252 189.557 196.886 191.734C197.449 193.672 199.59 195.195 203.266 196.252C213.973 199.354 230.199 197.145 235.474 193.229C237.679 191.594 240.164 185.362 239.51 164.945C239.21 155.654 235.271 150.941 232.571 150.562C230.011 150.203 227.467 151.399 226.988 151.651L223.627 174.536L223.535 174.584L198.082 187.268Z" fill="#3B7CD3"/>
<path d="M231.124 187.475C226.107 192.343 214.982 191.861 208.23 190.633C201.479 189.405 198.106 188.799 197.958 187.107C197.811 185.417 200.526 180.153 201.862 178.303C204.223 175.041 207.497 174.048 208.965 173.606C210.432 173.163 209.307 171.819 209.307 171.819C209.307 171.819 215.133 170.962 218.232 168.027C218.715 167.58 219.127 167.062 219.456 166.492C219.968 165.573 220.403 164.612 220.756 163.621C221.84 160.599 222.044 157.731 221.796 156.375V156.324C221.787 156.254 221.772 156.187 221.752 156.12V156.072C221.314 154.533 219.966 152.392 219.966 152.392C219.966 152.392 222.554 150.665 225.644 151.112C228.962 151.586 232.076 158.182 233.62 165.754C235.294 174.096 235.083 183.63 231.124 187.475Z" fill="#92C1FF"/>
<path d="M217.123 191.658C214.129 191.648 211.141 191.37 208.195 190.829L207.797 190.753C201.017 189.501 197.927 188.931 197.772 187.124C197.616 185.318 200.46 179.923 201.715 178.188C204.109 174.858 207.486 173.849 208.921 173.403C209.049 173.383 209.169 173.331 209.272 173.252C209.374 173.173 209.455 173.071 209.508 172.953C209.523 172.768 209.501 172.583 209.443 172.407C209.385 172.232 209.292 172.069 209.169 171.932C209.146 171.905 209.13 171.873 209.124 171.839C209.117 171.804 209.121 171.769 209.132 171.736C209.146 171.703 209.168 171.674 209.196 171.652C209.224 171.629 209.257 171.614 209.292 171.609C209.347 171.609 215.09 170.727 218.108 167.868C218.582 167.437 218.986 166.936 219.305 166.381C219.813 165.472 220.244 164.523 220.593 163.542C221.654 160.579 221.873 157.759 221.626 156.4V156.36C221.615 156.294 221.601 156.229 221.582 156.165V156.1C221.159 154.621 219.836 152.512 219.819 152.484C219.792 152.44 219.783 152.387 219.794 152.336C219.806 152.285 219.836 152.241 219.879 152.213C221.616 151.136 223.665 150.674 225.697 150.901C229.345 151.423 232.417 158.709 233.839 165.702C235.363 173.192 235.618 183.428 231.308 187.607C228.193 190.614 222.694 191.658 217.123 191.658ZM209.671 171.964C209.78 172.125 209.857 172.305 209.896 172.497C209.935 172.688 209.936 172.884 209.898 173.076C209.829 173.259 209.714 173.421 209.565 173.548C209.416 173.674 209.237 173.76 209.045 173.797C207.645 174.197 204.375 175.202 202.046 178.42C200.687 180.298 198.039 185.497 198.179 187.093C198.306 188.596 201.708 189.222 207.877 190.362L208.275 190.438C215.851 191.834 226.327 191.862 231.004 187.332C235.196 183.264 234.924 173.188 233.421 165.798C231.766 157.688 228.556 151.734 225.613 151.312C223.065 150.945 220.828 152.11 220.234 152.46C220.935 153.579 221.507 154.774 221.941 156.021V156.081C221.961 156.153 221.977 156.226 221.989 156.3V156.34C222.248 157.755 222.028 160.659 220.94 163.693C220.583 164.694 220.145 165.664 219.628 166.592C219.291 167.185 218.867 167.722 218.368 168.187C215.652 170.759 210.915 171.74 209.671 171.964Z" fill="#3B7CD3"/>
<path d="M233.595 165.756L228.411 164.695C223.842 163.749 222.155 157.804 221.816 156.392V156.341L221.772 156.137V156.089C221.333 154.55 219.985 152.408 219.985 152.408C219.985 152.408 222.574 150.682 225.664 151.129C228.937 151.587 232.052 158.183 233.595 165.756Z" fill="#3B7CD3"/>
<path d="M233.851 166.01L228.352 164.873C223.618 163.897 221.9 157.66 221.601 156.42L221.572 156.289C221.561 156.246 221.551 156.201 221.545 156.157V156.113C221.122 154.634 219.798 152.524 219.782 152.496L219.679 152.332L219.842 152.225C221.58 151.148 223.629 150.686 225.66 150.913C229.309 151.436 232.379 158.72 233.803 165.715L233.851 166.01ZM220.213 152.452C220.914 153.571 221.487 154.766 221.92 156.013V156.073C221.925 156.113 221.933 156.153 221.944 156.193L221.976 156.332C222.263 157.528 223.922 163.549 228.415 164.479L233.32 165.491C231.653 157.517 228.483 151.723 225.577 151.303C223.044 150.94 220.835 152.101 220.213 152.456V152.452Z" fill="#3B7CD3"/>
<path d="M221.509 171.848C219.867 171.681 218.81 169.619 218.232 168.028C218.715 167.581 219.127 167.063 219.456 166.493C219.968 165.574 220.403 164.613 220.756 163.621C221.633 166.002 223.69 172.072 221.509 171.848Z" fill="#3B7CD3"/>
<path d="M221.633 172.051C221.589 172.055 221.545 172.055 221.501 172.051C219.774 171.875 218.674 169.807 218.06 168.103L218.012 167.98L218.108 167.888C218.581 167.457 218.985 166.955 219.304 166.4C219.813 165.492 220.244 164.543 220.592 163.562L220.776 163.047L220.967 163.562C221.904 166.082 223.331 170.488 222.387 171.712C222.296 171.825 222.181 171.914 222.051 171.972C221.919 172.031 221.776 172.059 221.633 172.051ZM218.478 168.063C219.065 169.659 220.074 171.481 221.541 171.653C221.631 171.669 221.724 171.661 221.811 171.63C221.897 171.598 221.974 171.544 222.031 171.473C222.602 170.74 222.12 168.04 220.739 164.215C220.419 165.038 220.044 165.837 219.615 166.608C219.303 167.15 218.916 167.646 218.467 168.079L218.478 168.063Z" fill="#3B7CD3"/>
<path d="M222.798 179.675C222.798 179.651 222.319 177.37 217.374 175.029C212.429 172.689 209.064 173.781 209.032 173.793L208.9 173.419C209.041 173.371 212.398 172.222 217.541 174.667C222.685 177.111 223.172 179.508 223.192 179.607L222.798 179.675Z" fill="#3B7CD3"/>
<path d="M200.635 194.27H200.527C200.354 194.225 200.199 194.131 200.077 194C199.956 193.87 199.874 193.707 199.841 193.533C199.722 193.097 199.704 192.64 199.789 192.197C199.968 191.133 200.587 190.378 201.172 190.482C201.344 190.529 201.499 190.623 201.62 190.753C201.741 190.883 201.822 191.045 201.855 191.22C201.977 191.655 201.996 192.112 201.911 192.555C201.739 193.549 201.192 194.27 200.635 194.27ZM201.061 190.865C200.75 190.865 200.324 191.411 200.18 192.253C200.107 192.635 200.121 193.03 200.224 193.405C200.307 193.672 200.443 193.844 200.591 193.868C200.909 193.92 201.368 193.366 201.516 192.484C201.593 192.102 201.578 191.708 201.476 191.331C201.392 191.064 201.257 190.893 201.105 190.869L201.061 190.865Z" fill="#3B7CD3"/>
<path d="M214.914 196.364H214.798C214.627 196.317 214.471 196.222 214.351 196.09C214.23 195.96 214.15 195.797 214.116 195.623C213.994 195.188 213.975 194.73 214.061 194.286C214.244 193.225 214.858 192.476 215.449 192.576C215.62 192.623 215.775 192.716 215.895 192.846C216.016 192.977 216.098 193.139 216.13 193.314C216.25 193.749 216.269 194.206 216.186 194.649C216.118 195.097 215.948 195.523 215.688 195.893C215.604 196.027 215.491 196.138 215.357 196.221C215.222 196.302 215.07 196.351 214.914 196.364ZM215.336 192.959C215.021 192.959 214.599 193.501 214.455 194.346C214.381 194.728 214.395 195.122 214.495 195.499C214.579 195.766 214.714 195.937 214.866 195.961C215.018 195.985 215.201 195.873 215.368 195.647C215.59 195.327 215.734 194.961 215.791 194.577C215.866 194.195 215.852 193.801 215.751 193.425C215.668 193.158 215.532 192.986 215.381 192.962L215.336 192.959Z" fill="#3B7CD3"/>
<path d="M229.839 194.656C229.677 194.645 229.52 194.596 229.382 194.512C229.242 194.428 229.126 194.312 229.041 194.174C228.792 193.799 228.625 193.374 228.551 192.93C228.478 192.485 228.499 192.029 228.615 191.594C228.647 191.419 228.73 191.258 228.851 191.127C228.973 190.997 229.128 190.905 229.3 190.86C229.89 190.756 230.497 191.514 230.676 192.579C230.76 193.023 230.74 193.48 230.616 193.915C230.583 194.09 230.5 194.251 230.379 194.38C230.257 194.51 230.103 194.603 229.931 194.648C229.9 194.654 229.869 194.657 229.839 194.656ZM229.44 191.247H229.396C229.244 191.275 229.109 191.443 229.025 191.71C228.929 192.086 228.912 192.478 228.976 192.861C229.04 193.245 229.183 193.61 229.396 193.935C229.564 194.162 229.751 194.278 229.898 194.25C230.046 194.222 230.186 194.058 230.27 193.787C230.371 193.413 230.388 193.02 230.318 192.639C230.162 191.81 229.739 191.247 229.428 191.247H229.44Z" fill="#3B7CD3"/>
<path d="M237.221 183.527C236.962 183.527 236.705 183.492 236.455 183.423C235.49 183.173 234.861 182.571 235.012 182.025C235.163 181.478 235.992 181.255 236.958 181.51C237.923 181.766 238.553 182.364 238.401 182.91C238.297 183.304 237.831 183.527 237.221 183.527ZM236.204 181.805C235.766 181.805 235.446 181.94 235.407 182.124C235.335 182.395 235.805 182.842 236.563 183.038C237.321 183.232 237.951 183.077 238.023 182.806C238.094 182.535 237.623 182.088 236.862 181.892C236.647 181.836 236.426 181.807 236.204 181.805Z" fill="#3B7CD3"/>
<path d="M237.432 171.473H237.264C236.343 171.421 235.669 170.986 235.693 170.456C235.714 170.304 235.779 170.16 235.879 170.044C235.98 169.926 236.112 169.841 236.26 169.798C236.61 169.654 236.99 169.593 237.368 169.623C238.293 169.675 238.963 170.109 238.939 170.636C238.919 170.789 238.855 170.934 238.754 171.051C238.654 171.168 238.522 171.254 238.373 171.297C238.074 171.418 237.755 171.479 237.432 171.473ZM237.205 170.014C236.932 170.007 236.66 170.056 236.407 170.157C236.212 170.245 236.088 170.364 236.08 170.476C236.08 170.723 236.575 171.03 237.277 171.07C237.591 171.094 237.907 171.047 238.201 170.931C238.401 170.843 238.521 170.723 238.528 170.612C238.528 170.364 238.034 170.057 237.332 170.018H237.193L237.205 170.014Z" fill="#3B7CD3"/>
<path d="M236.184 161.129H236.016C235.092 161.077 234.421 160.643 234.445 160.116C234.469 159.59 235.195 159.231 236.12 159.283C237.041 159.335 237.715 159.77 237.687 160.296C237.667 160.448 237.604 160.592 237.504 160.71C237.404 160.827 237.273 160.914 237.125 160.958C236.826 161.078 236.506 161.136 236.184 161.129ZM235.953 159.674C235.323 159.674 234.856 159.905 234.844 160.132C234.832 160.36 235.338 160.69 236.04 160.727C236.357 160.75 236.674 160.703 236.969 160.587C237.165 160.499 237.288 160.383 237.297 160.272C237.297 160.021 236.802 159.714 236.101 159.677L235.953 159.674Z" fill="#3B7CD3"/>
<path d="M232.248 153.186H232.081C231.156 153.134 230.486 152.699 230.51 152.169C230.531 152.016 230.595 151.873 230.695 151.756C230.796 151.639 230.928 151.555 231.076 151.511C231.427 151.367 231.807 151.307 232.185 151.336C233.11 151.388 233.78 151.822 233.756 152.349C233.736 152.502 233.671 152.646 233.571 152.763C233.471 152.881 233.338 152.967 233.189 153.01C232.891 153.132 232.571 153.191 232.248 153.186ZM232.021 151.726C231.748 151.72 231.478 151.769 231.224 151.87C231.024 151.958 230.904 152.077 230.897 152.189C230.897 152.436 231.391 152.743 232.093 152.783C232.408 152.807 232.725 152.759 233.018 152.643C233.217 152.556 233.337 152.436 233.345 152.325C233.345 152.077 232.85 151.771 232.149 151.73L232.021 151.726Z" fill="#3B7CD3"/>
<path d="M6.91338 141.638C6.91338 141.638 4.32902 141.403 2.59907 143.126C1.55746 144.158 0.771205 145.418 0.301758 146.806L62.7517 229.88C62.7517 229.88 65.3475 230.514 70.6554 224.935C71.3793 224.148 72.0456 223.31 72.6494 222.427L81.2262 214.659L19.7449 138.776L6.91242 141.638H6.91338Z" fill="#5E96FC"/>
<path d="M63.022 230.091C62.9145 230.093 62.8079 230.084 62.7033 230.063L62.6313 230.043L62.5919 229.987L0.0825195 146.85L0.11036 146.754C0.586527 145.331 1.3891 144.039 2.45472 142.982C4.14914 141.303 6.57414 141.411 6.8967 141.439L19.8204 138.556L19.9001 138.652L81.5042 214.683L72.8075 222.559C72.2036 223.443 71.5374 224.282 70.8135 225.071C66.4512 229.641 63.8793 230.091 63.022 230.091ZM62.8588 229.693C63.2851 229.732 65.8253 229.721 70.5111 224.792C71.2349 224.014 71.9012 223.186 72.5041 222.311L72.5367 222.276L80.9743 214.635L19.6649 138.998L6.92454 141.838H6.89286C6.86886 141.838 4.3805 141.634 2.73792 143.265C1.75102 144.256 0.995493 145.453 0.525086 146.77L62.8588 229.693Z" fill="#3B7CD3"/>
<path d="M88.7142 214.487C81.5602 219.642 72.8797 222.358 72.6599 222.423C72.7559 222.299 75.4833 218.474 59.3138 195.765C57.1394 192.713 55.0494 189.822 53.0449 187.092C39.862 169.148 30.0564 157.887 21.013 150.278C10.163 141.159 6.91235 141.637 6.91235 141.637C6.91235 141.637 14.3649 130.073 27.2253 131.545C40.0857 133.016 58.396 160.1 62.8265 160.865C67.2569 161.632 68.0106 162.588 67.1293 163.382C66.7827 163.685 67.7629 164.542 69.4064 165.806C71.6471 167.54 75.1204 170.049 78.083 172.984C78.5429 173.444 78.9874 173.91 79.4155 174.383C82.9407 178.303 88.527 187.942 91.7767 193.747C93.3319 196.539 94.3486 198.449 94.3486 198.449C94.3486 198.449 96.1908 196.814 97.3073 199.118C98.4238 201.423 95.9643 209.267 88.7142 214.487Z" fill="#92C1FF"/>
<path d="M72.6598 222.621C72.6281 222.622 72.5964 222.615 72.5676 222.6C72.5398 222.586 72.5148 222.564 72.4966 222.538C72.4726 222.503 72.4591 222.462 72.4591 222.42C72.4591 222.378 72.4726 222.337 72.4966 222.303C72.5244 222.266 75.1404 218.351 59.1418 195.881C57.048 192.938 54.9389 190.023 52.8777 187.211C39.7543 169.347 29.8854 158.007 20.8727 150.43C10.302 141.542 6.95637 141.837 6.91605 141.832C6.87861 141.838 6.84021 141.832 6.80661 141.816C6.77205 141.801 6.74325 141.775 6.72309 141.743C6.70293 141.711 6.69141 141.675 6.69141 141.637C6.69141 141.599 6.70197 141.562 6.72117 141.53C6.79701 141.41 14.3936 129.858 27.229 131.345C35.4995 132.306 45.9426 143.679 53.5708 151.986C57.7421 156.503 61.3306 160.403 62.858 160.666C65.8446 161.181 67.4037 161.81 67.6427 162.597C67.683 162.77 67.6696 162.954 67.6043 163.12C67.539 163.287 67.4238 163.429 67.276 163.53C67.204 163.848 68.9666 165.204 69.5445 165.647L70.7407 166.572C73.373 168.501 75.8758 170.6 78.2336 172.856C78.7002 173.323 79.1514 173.797 79.5699 174.26C83.1383 178.224 88.861 188.12 91.9551 193.664C93.2031 195.9 94.1122 197.591 94.4156 198.157C94.8831 197.806 95.4707 197.652 96.0505 197.731C96.6409 197.846 97.1228 198.289 97.4896 199.043C98.6502 201.436 96.1782 209.355 88.8331 214.643C81.6148 219.826 72.8066 222.582 72.7193 222.618C72.6991 222.623 72.679 222.625 72.6588 222.621H72.6598ZM7.26358 141.45C8.42039 141.586 12.248 142.647 21.1204 150.123C30.1522 157.7 40.0413 169.088 53.1849 186.976C55.2509 189.768 57.36 192.706 59.4576 195.65C73.0841 214.79 73.3788 220.584 72.991 222.099C74.8016 221.501 82.2945 218.85 88.5787 214.327C95.8921 209.059 98.0934 201.253 97.1085 199.226C97.0144 198.966 96.8608 198.732 96.6601 198.54C96.4595 198.35 96.2166 198.209 95.9516 198.13C95.198 197.983 94.4684 198.612 94.4607 198.616C94.4377 198.636 94.4108 198.651 94.382 198.66C94.3532 198.668 94.3225 198.669 94.2927 198.664C94.263 198.659 94.2351 198.647 94.2111 198.629C94.1862 198.611 94.167 198.588 94.1535 198.561C94.1535 198.561 93.1205 196.619 91.5855 193.863C88.499 188.333 82.7927 178.467 79.2474 174.531C78.849 174.073 78.3901 173.606 77.9274 173.143C75.5916 170.898 73.1119 168.808 70.5026 166.887L69.3064 165.966C67.4843 164.563 66.8939 163.972 66.8776 163.549C66.8747 163.489 66.8853 163.43 66.9093 163.374C66.9323 163.319 66.9688 163.27 67.0139 163.23C67.2251 163.043 67.3086 162.867 67.2654 162.708C67.1858 162.429 66.5915 161.707 62.811 161.061C61.1405 160.774 57.6864 157.014 53.3203 152.256C45.7438 143.998 35.344 132.685 27.2213 131.745C15.7607 130.421 8.55575 139.668 7.28374 141.45H7.26358Z" fill="#3B7CD3"/>
<path d="M62.7515 229.881C65.8159 227.635 54.409 206.863 37.2746 183.486C20.1403 160.109 3.76532 142.978 0.700951 145.225C-2.36341 147.47 9.04348 168.242 26.1778 191.619C43.3121 214.997 59.6871 232.126 62.7505 229.881H62.7515Z" fill="#92C1FF"/>
<path d="M62.0782 230.274C59.5178 230.274 54.0112 225.09 49.597 220.496C42.683 213.263 34.3088 203.047 26.0181 191.734C17.7284 180.421 10.5062 169.359 5.68116 160.59C2.23951 154.323 -1.44119 146.539 0.572921 145.063C2.58703 143.588 8.90297 149.449 13.8432 154.606C20.7582 161.839 29.1314 172.055 37.426 183.368C45.7205 194.681 52.934 205.743 57.7629 214.512C61.2084 220.78 64.8891 228.563 62.8711 230.039C62.6398 230.202 62.3604 230.285 62.0772 230.274H62.0782ZM1.38701 145.219C1.18445 145.211 0.984767 145.269 0.816764 145.382C-0.531096 146.371 1.41869 151.986 6.0402 160.399C10.8249 169.172 18.0548 180.198 26.3368 191.503C34.6189 202.807 42.9816 213.003 49.8841 220.213C56.5158 227.156 61.2842 230.705 62.6446 229.716C64.004 228.727 62.0426 223.112 57.425 214.699C52.6163 205.926 45.4066 194.9 37.1245 183.595C28.8425 172.29 20.4798 162.094 13.5974 154.885C7.66839 148.712 3.2456 145.219 1.38797 145.219H1.38701Z" fill="#3B7CD3"/>
<path d="M5.31777 156.507C5.26497 156.52 5.20929 156.51 5.16321 156.481C5.11713 156.453 5.08449 156.407 5.07201 156.354C5.05953 156.301 5.06913 156.245 5.09793 156.199C5.12673 156.153 5.17281 156.121 5.22561 156.109L10.8686 153.162C10.8916 153.15 10.9175 153.143 10.9435 153.141C10.9694 153.138 10.9963 153.141 11.0212 153.149C11.0462 153.157 11.0692 153.169 11.0894 153.187C11.1095 153.204 11.1259 153.224 11.1383 153.247C11.1508 153.271 11.1575 153.296 11.1604 153.322C11.1623 153.349 11.1604 153.375 11.1518 153.4C11.1441 153.425 11.1307 153.448 11.1143 153.468C11.0971 153.488 11.0769 153.504 11.0529 153.517L5.41089 156.463C5.38497 156.486 5.35329 156.502 5.31873 156.507H5.31777Z" fill="#3B7CD3"/>
<path d="M10.9611 166.664C10.9255 166.662 10.891 166.653 10.8603 166.634C10.8295 166.616 10.8036 166.59 10.7854 166.561C10.7614 166.513 10.7556 166.459 10.77 166.409C10.7854 166.358 10.819 166.315 10.8651 166.289L18.6325 162.014C18.6556 162.001 18.6805 161.994 18.7065 161.991C18.7324 161.988 18.7593 161.99 18.7842 161.998C18.8092 162.005 18.8332 162.018 18.8533 162.034C18.8735 162.05 18.8908 162.071 18.9033 162.094C18.9167 162.117 18.9253 162.142 18.9282 162.168C18.9311 162.193 18.9301 162.22 18.9225 162.245C18.9157 162.271 18.9033 162.294 18.8869 162.315C18.8706 162.336 18.8505 162.353 18.8274 162.365L11.0561 166.64C11.0263 166.656 10.9937 166.664 10.9601 166.664H10.9611Z" fill="#3B7CD3"/>
<path d="M16.8029 176.294C16.7693 176.294 16.7367 176.285 16.7079 176.269C16.6791 176.253 16.6541 176.23 16.6359 176.202C16.6071 176.158 16.5975 176.104 16.609 176.052C16.6205 176 16.6512 175.955 16.6954 175.926L25.468 170.236C25.4901 170.222 25.5141 170.211 25.54 170.207C25.5659 170.202 25.5928 170.203 25.6178 170.208C25.6437 170.213 25.6677 170.224 25.6888 170.239C25.7099 170.255 25.7282 170.274 25.7426 170.296C25.7714 170.34 25.7819 170.394 25.7714 170.446C25.7608 170.497 25.7301 170.543 25.6869 170.571L16.9104 176.258C16.8788 176.28 16.8413 176.292 16.8029 176.294Z" fill="#3B7CD3"/>
<path d="M24.4582 186.838C24.4256 186.838 24.3949 186.828 24.3661 186.814C24.3373 186.799 24.3133 186.777 24.295 186.751C24.2662 186.706 24.2547 186.654 24.2643 186.602C24.2739 186.551 24.3037 186.505 24.3469 186.475L33.0196 180.465C33.0638 180.437 33.1176 180.425 33.1694 180.435C33.2212 180.444 33.2673 180.474 33.298 180.517C33.3268 180.561 33.3384 180.614 33.3288 180.666C33.3192 180.717 33.2894 180.763 33.2462 180.793L24.5811 186.802C24.5446 186.827 24.5014 186.84 24.4573 186.838H24.4582Z" fill="#3B7CD3"/>
<path d="M30.9782 196.463C30.936 196.463 30.8947 196.449 30.8611 196.424C30.8275 196.398 30.8025 196.364 30.79 196.323C30.7776 196.282 30.7785 196.239 30.792 196.199C30.8054 196.159 30.8313 196.124 30.8668 196.1L39.7988 190.144C39.8439 190.114 39.8977 190.103 39.9495 190.114C40.0014 190.124 40.0475 190.155 40.0782 190.199C40.107 190.242 40.1175 190.296 40.107 190.348C40.0964 190.4 40.0657 190.445 40.0225 190.474L31.0828 196.432C31.0521 196.453 31.0166 196.463 30.9792 196.463H30.9782Z" fill="#3B7CD3"/>
<path d="M37.4062 204.211C37.3726 204.211 37.34 204.204 37.3102 204.187C37.2804 204.171 37.2564 204.148 37.2392 204.119C37.2104 204.075 37.2008 204.021 37.2123 203.97C37.2238 203.918 37.2545 203.873 37.2987 203.844L46.0713 198.333C46.0934 198.319 46.1183 198.309 46.1442 198.304C46.1702 198.3 46.197 198.301 46.223 198.306C46.2489 198.312 46.2729 198.324 46.294 198.339C46.3151 198.354 46.3334 198.375 46.3468 198.398C46.3737 198.443 46.3823 198.497 46.3708 198.547C46.3593 198.599 46.3276 198.643 46.2834 198.672L37.5262 204.171C37.4916 204.196 37.4494 204.21 37.4062 204.211Z" fill="#3B7CD3"/>
<path d="M42.7181 211.37C42.6816 211.369 42.6461 211.359 42.6154 211.34C42.5847 211.321 42.5597 211.294 42.5424 211.261C42.53 211.238 42.5223 211.213 42.5194 211.187C42.5165 211.161 42.5194 211.135 42.5271 211.111C42.5348 211.086 42.5472 211.063 42.5645 211.042C42.5818 211.022 42.602 211.006 42.625 210.994L50.3848 206.648C50.4318 206.623 50.4866 206.619 50.5374 206.635C50.5883 206.651 50.6296 206.687 50.6546 206.734C50.6786 206.781 50.6834 206.836 50.6671 206.886C50.6507 206.936 50.6152 206.979 50.5682 207.003L42.8084 211.35C42.7796 211.362 42.7479 211.369 42.7172 211.37H42.7181Z" fill="#3B7CD3"/>
<path d="M48.7546 218.053C48.721 218.053 48.6883 218.044 48.6595 218.028C48.6307 218.011 48.6058 217.988 48.5875 217.961C48.5731 217.939 48.5635 217.914 48.5587 217.888C48.5539 217.863 48.5549 217.836 48.5607 217.81C48.5664 217.784 48.5779 217.76 48.5933 217.739C48.6087 217.718 48.6288 217.699 48.6509 217.686L54.2334 214.153C54.2785 214.125 54.3323 214.116 54.3841 214.128C54.4359 214.14 54.4801 214.171 54.5089 214.216C54.5367 214.262 54.5463 214.316 54.5339 214.367C54.5223 214.419 54.4897 214.464 54.4446 214.492L48.8621 218.025C48.8295 218.044 48.792 218.054 48.7546 218.053Z" fill="#3B7CD3"/>
<path d="M54.353 223.945C54.3175 223.945 54.2819 223.936 54.2512 223.918C54.2205 223.899 54.1946 223.873 54.1773 223.842C54.1514 223.796 54.1447 223.742 54.1591 223.691C54.1735 223.64 54.2071 223.597 54.2531 223.571L58.5396 221.198C58.5857 221.172 58.6404 221.166 58.6903 221.18C58.7412 221.194 58.7844 221.228 58.8103 221.274C58.8238 221.297 58.8324 221.322 58.8353 221.348C58.8382 221.374 58.8372 221.4 58.8295 221.425C58.8228 221.451 58.8103 221.474 58.794 221.496C58.7777 221.516 58.7575 221.533 58.7345 221.545L54.4634 223.918C54.4307 223.94 54.3914 223.949 54.352 223.945H54.353Z" fill="#3B7CD3"/>
<path d="M45.5849 191.1C45.3919 191.115 45.198 191.088 45.0175 191.018C44.837 190.949 44.6738 190.841 44.5394 190.702C44.1929 190.303 44.189 189.645 44.5394 188.883C44.9388 188.073 45.5091 187.359 46.2099 186.79C46.8886 186.191 47.6902 185.746 48.559 185.49C49.3568 185.279 50.0029 185.386 50.3495 185.797C50.696 186.208 50.6999 186.854 50.3495 187.615C49.5104 189.234 48.0656 190.456 46.3299 191.013C46.086 191.072 45.8355 191.102 45.5839 191.1H45.5849ZM49.2973 185.765C49.0803 185.769 48.8643 185.8 48.655 185.856C47.0336 186.387 45.6847 187.533 44.8985 189.047C44.623 189.649 44.6038 190.155 44.8428 190.442C45.0819 190.73 45.5887 190.789 46.23 190.622C47.8505 190.09 49.1994 188.945 49.9866 187.432C50.2621 186.826 50.2813 186.319 50.0422 186.036C49.9443 185.94 49.8282 185.866 49.6986 185.819C49.5699 185.773 49.4326 185.754 49.2963 185.765H49.2973Z" fill="#3B7CD3"/>
<path d="M56.766 207.565C56.5731 207.58 56.3791 207.552 56.1987 207.483C56.0182 207.414 55.855 207.306 55.7215 207.166C55.3702 206.767 55.3702 206.109 55.7215 205.347C56.1228 204.538 56.694 203.824 57.3968 203.254C58.0716 202.651 58.8704 202.201 59.7373 201.938C60.535 201.727 61.1811 201.835 61.5315 202.245C61.8829 202.656 61.8781 203.302 61.5315 204.064C60.6925 205.682 59.2477 206.903 57.512 207.461C57.2691 207.525 57.0185 207.561 56.766 207.565ZM60.4746 202.229C60.2586 202.233 60.0445 202.264 59.8362 202.321C58.2128 202.849 56.862 203.995 56.0758 205.511C55.8051 206.113 55.7849 206.619 56.0239 206.907C56.263 207.194 56.766 207.254 57.4073 207.086C59.0307 206.557 60.3805 205.412 61.1677 203.897C61.4384 203.29 61.4586 202.784 61.2195 202.501C61.1226 202.404 61.0055 202.329 60.8768 202.283C60.7482 202.236 60.6109 202.218 60.4736 202.229H60.4746Z" fill="#3B7CD3"/>
<path d="M66.3044 225.254C66.1114 225.269 65.9175 225.241 65.737 225.173C65.5565 225.103 65.3933 224.995 65.2599 224.855C64.5658 224.034 65.2992 222.315 66.9265 220.939C67.6071 220.343 68.4078 219.899 69.2756 219.639C70.0734 219.428 70.7147 219.539 71.0661 219.95C71.7563 220.772 71.0257 222.49 69.3956 223.862C68.7179 224.462 67.9172 224.907 67.0503 225.166C66.8065 225.225 66.5559 225.255 66.3044 225.254ZM70.0129 219.918C69.7979 219.922 69.5838 219.953 69.3755 220.011C68.5662 220.253 67.8183 220.67 67.1857 221.231C65.7745 222.427 65.0324 223.954 65.5623 224.58C65.8013 224.863 66.3082 224.931 66.9457 224.764C67.7559 224.52 68.5038 224.103 69.1393 223.543C70.5467 222.347 71.2888 220.82 70.7579 220.189C70.6609 220.093 70.5438 220.018 70.4152 219.971C70.2865 219.925 70.1492 219.907 70.012 219.918H70.0129Z" fill="#3B7CD3"/>
<path d="M32.4413 173.997C32.2473 174.013 32.0534 173.985 31.872 173.916C31.6905 173.847 31.5264 173.739 31.3929 173.598C31.0425 173.199 31.0425 172.541 31.3929 171.784C31.7933 170.972 32.3645 170.256 33.0672 169.686C34.6944 168.311 36.5127 167.876 37.2068 168.697C37.9009 169.519 37.1665 171.234 35.5364 172.61C34.4554 173.499 33.3034 173.997 32.4422 173.997H32.4413ZM33.3187 169.973C32.6601 170.505 32.1235 171.173 31.7481 171.932C31.4774 172.534 31.4573 173.043 31.6963 173.327C32.2262 173.953 33.8659 173.478 35.2848 172.29C36.7047 171.102 37.4343 169.562 36.9034 168.937C36.3725 168.311 34.7376 168.785 33.3149 169.973H33.3187Z" fill="#3B7CD3"/>
<path d="M19.6684 158.713C19.5033 158.724 19.3382 158.698 19.1836 158.638C19.03 158.577 18.8918 158.483 18.7785 158.362C18.4838 158.015 18.479 157.469 18.7785 156.83C19.1107 156.158 19.584 155.566 20.1657 155.092C21.5213 153.952 23.0371 153.593 23.6189 154.295C24.2016 154.997 23.5949 156.42 22.2432 157.565C21.5357 158.222 20.6294 158.625 19.6675 158.713H19.6684ZM22.7107 154.327C21.8477 154.424 21.0393 154.801 20.4096 155.399C19.8729 155.833 19.4361 156.376 19.1299 156.994C18.911 157.476 18.8947 157.883 19.0819 158.107C19.4611 158.553 20.7129 158.314 21.9734 157.25C23.233 156.185 23.6803 154.988 23.305 154.542C23.2282 154.465 23.1341 154.405 23.0314 154.368C22.9287 154.331 22.8192 154.317 22.7107 154.327Z" fill="#3B7CD3"/>
<path d="M6.93754 147.005C6.79642 147.014 6.65626 146.991 6.5257 146.938C6.39514 146.884 6.27801 146.803 6.18393 146.698C5.92857 146.399 5.92473 145.94 6.18393 145.402C6.45946 144.843 6.8521 144.351 7.33595 143.959C7.79676 143.55 8.34108 143.247 8.93053 143.069C9.50462 142.917 9.95583 142.997 10.2064 143.297C10.457 143.596 10.4656 144.058 10.2064 144.596C9.6275 145.707 8.63485 146.545 7.44347 146.929C7.27835 146.974 7.10843 147 6.93658 147.005H6.93754ZM7.57595 144.265C7.13819 144.618 6.78202 145.062 6.53146 145.565C6.35961 145.964 6.34425 146.272 6.4873 146.443C6.63034 146.614 6.95002 146.65 7.36091 146.542C7.89852 146.386 8.39485 146.113 8.81629 145.745C9.25214 145.39 9.6083 144.947 9.86079 144.445C10.0326 144.046 10.048 143.739 9.90495 143.567C9.76191 143.396 9.44222 143.356 9.03133 143.464C8.49469 143.623 7.99836 143.895 7.57595 144.261V144.265Z" fill="#3B7CD3"/>
<path d="M88.7143 214.488C81.5602 219.643 72.8798 222.359 72.6599 222.422C72.7559 222.299 75.4833 218.474 59.3138 195.765C57.1394 192.713 55.0494 189.823 53.0449 187.093C56.9483 186.215 66.2038 184.432 74.2315 185.147C84.5987 186.063 91.5578 193.521 91.7767 193.76C93.3319 196.551 94.3486 198.461 94.3486 198.461C94.3486 198.461 96.1909 196.826 97.3074 199.131C98.4238 201.436 95.9633 209.267 88.7143 214.488Z" fill="#3B7CD3"/>
<path d="M72.1298 222.79L72.5042 222.303C72.532 222.268 75.1481 218.352 59.1504 195.882C57.0566 192.938 54.9475 190.024 52.8863 187.212L52.7068 186.965L53.0015 186.902C56.6745 186.072 66.0932 184.225 74.2514 184.947C84.3594 185.845 91.1746 192.827 91.9157 193.625L91.9723 193.708C93.2079 195.925 94.1093 197.6 94.4127 198.166C94.8802 197.814 95.4677 197.66 96.0476 197.739C96.637 197.855 97.1199 198.298 97.4867 199.051C98.6473 201.444 96.1753 209.363 88.8292 214.651C81.6119 219.835 72.8037 222.59 72.7154 222.626L72.1298 222.79ZM53.3874 187.224C55.3814 189.959 57.4387 192.807 59.4768 195.65C73.1023 214.79 73.398 220.585 73.0111 222.1C74.8217 221.501 82.3136 218.85 88.5988 214.328C95.9113 209.061 98.1126 201.253 97.1276 199.227C97.0345 198.966 96.8809 198.732 96.6802 198.541C96.4796 198.351 96.2367 198.21 95.9718 198.13C95.2181 197.983 94.4885 198.613 94.4799 198.617L94.2888 198.784L94.1727 198.561C94.1727 198.561 93.1407 196.623 91.6095 193.879C90.7282 192.946 84.0522 186.215 74.2149 185.342C66.3236 184.632 57.2285 186.371 53.3884 187.224H53.3874Z" fill="#3B7CD3"/>
<path d="M78.079 172.996C72.724 172.378 62.2685 170.791 60.7776 167.736C59.4893 165.092 65.1639 165.307 69.4033 165.805C71.6479 167.54 75.1212 170.049 78.08 172.996H78.079Z" fill="#3B7CD3"/>
<path d="M78.6343 173.264L78.064 173.195C72.1858 172.518 62.1134 170.914 60.6023 167.824C60.4641 167.606 60.3901 167.353 60.3901 167.095C60.3901 166.836 60.4641 166.583 60.6023 166.365C61.3799 165.269 64.3502 165.013 69.4229 165.607H69.4786L69.5218 165.639L70.7189 166.565C73.3503 168.493 75.8531 170.593 78.2109 172.849L78.6343 173.264ZM64.8648 165.687C62.7153 165.687 61.3559 165.991 60.9325 166.589C60.8375 166.749 60.7905 166.934 60.7953 167.12C60.8001 167.308 60.8577 167.489 60.9604 167.645C62.3802 170.552 72.5919 172.123 77.5293 172.721C75.303 170.641 72.9567 168.693 70.5029 166.887C70.1045 166.572 69.7061 166.278 69.3432 165.998C67.8571 165.814 66.3624 165.712 64.8648 165.695V165.687Z" fill="#3B7CD3"/>
</g>
<defs>
<clipPath id="clip0_72_799">
<rect width="240.001" height="230.275" fill="white"/>
</clipPath>
</defs>
</svg>
